<svg xmlns="http://www.w3.org/2000/svg" viewBox="0 0 642 361.38"><defs><style>.cls-1{fill:#aad0e2;}.cls-2{fill:#0d6efd;}.cls-3{fill:#fff;}</style></defs><g id="Layer_2" data-name="Layer 2"><g id="Object"><path class="cls-1" d="M525.47,128.32c-2.69,0-5.37.1-8,.29A110.63,110.63,0,0,0,341.86,59.15,116.55,116.55,0,0,0,124.52,128.6c-2.64-.18-5.31-.28-8-.28a116.53,116.53,0,0,0,0,233.06H525.47a116.53,116.53,0,0,0,0-233.06Z"/><path class="cls-2" d="M525.47,128.32c-2.69,0-5.37.1-8,.29A110.63,110.63,0,0,0,341.86,59.15,116.55,116.55,0,0,0,124.52,128.6c-2.64-.18-5.31-.28-8-.28a116.53,116.53,0,0,0,0,233.06H525.47a116.53,116.53,0,0,0,0-233.06Z"/><path class="cls-2" d="M172.87,361.38h352.6A116.55,116.55,0,0,0,635.23,205.69C558.61,356.59,299.48,343.23,172.87,361.38Z"/><path class="cls-2" d="M224.09,361.38H417.91l-23.09-23.09c-57.29,9.21-115.43,12.86-164.66,17Z"/><path class="cls-3" d="M279.53,132.41l-45.25,54.5a9.47,9.47,0,0,0,7.28,15.53h90.52a9.47,9.47,0,0,0,7.28-15.53l-45.25-54.5A9.47,9.47,0,0,0,279.53,132.41Z"/><rect class="cls-3" x="266.25" y="194.2" width="41.13" height="88.18" rx="9.2"/></g></g></svg>