<?xml version="1.0" encoding="utf-8"?>
<!-- Generator: Adobe Illustrator 24.1.1, SVG Export Plug-In . SVG Version: 6.00 Build 0)  -->
<svg version="1.1" id="Ñëîé_1" xmlns="http://www.w3.org/2000/svg" xmlns:xlink="http://www.w3.org/1999/xlink" x="0px" y="0px"
	 viewBox="0 0 600 450" style="enable-background:new 0 0 600 450;" xml:space="preserve">
<style type="text/css">
	.st0{fill:#020230;}
	.st1{opacity:0.3;}
	.st2{fill:url(#SVGID_1_);}
	.st3{fill:url(#SVGID_2_);}
	.st4{fill:url(#SVGID_3_);}
	.st5{fill:url(#SVGID_4_);}
	.st6{fill:url(#SVGID_5_);}
	.st7{fill:url(#SVGID_6_);}
	.st8{fill:url(#SVGID_7_);}
	.st9{fill:url(#SVGID_8_);}
	.st10{fill:url(#SVGID_9_);}
	.st11{fill:url(#SVGID_10_);}
	.st12{fill:url(#SVGID_11_);}
	.st13{fill:#112564;}
	.st14{fill:url(#SVGID_12_);}
	.st15{opacity:0.8;clip-path:url(#SVGID_14_);}
	.st16{fill:url(#SVGID_15_);}
	.st17{fill:url(#SVGID_16_);}
	.st18{fill:url(#SVGID_17_);}
	.st19{fill:url(#SVGID_18_);}
	.st20{fill:url(#SVGID_19_);}
	.st21{fill:url(#SVGID_20_);}
	.st22{fill:url(#SVGID_21_);}
	.st23{fill:url(#SVGID_22_);}
	.st24{fill:url(#SVGID_23_);}
	.st25{fill:url(#SVGID_24_);}
	.st26{fill:url(#SVGID_25_);}
	.st27{fill:url(#SVGID_26_);}
	.st28{fill:url(#SVGID_27_);}
	.st29{opacity:0.8;fill:url(#SVGID_28_);}
	.st30{opacity:0.4;fill:#000016;}
	.st31{opacity:0.8;fill:#172F78;}
	.st32{opacity:0.4;fill:#172F78;}
	.st33{opacity:0.6;fill:#172F78;}
	.st34{fill:#172F78;}
	.st35{opacity:0.6;fill:url(#SVGID_29_);}
	.st36{opacity:0.4;fill:#03A7D3;}
	.st37{opacity:0.8;fill:#03A7D3;}
	.st38{fill:#03A7D3;}
	.st39{fill:url(#SVGID_30_);}
	.st40{fill:url(#SVGID_31_);}
	.st41{fill:#FFFFFF;}
	.st42{opacity:0.4;fill:#06033E;}
	.st43{fill:url(#SVGID_32_);}
	.st44{fill:url(#SVGID_33_);}
	.st45{fill:url(#SVGID_34_);}
	.st46{fill:url(#SVGID_35_);}
	.st47{fill:url(#SVGID_36_);}
	.st48{fill:url(#SVGID_37_);}
	.st49{fill:#515151;}
	.st50{fill:url(#SVGID_38_);}
	.st51{fill:#2D2D2D;}
	.st52{fill:url(#SVGID_39_);}
	.st53{fill:#121A46;}
	.st54{fill:url(#SVGID_40_);}
	.st55{fill:url(#SVGID_41_);}
	.st56{fill:#FCD1C5;}
	.st57{fill:#F0F6FF;}
	.st58{fill:#C4CCD6;}
	.st59{fill:url(#SVGID_42_);}
	.st60{fill:#E2B1A6;}
	.st61{fill:url(#SVGID_43_);}
	.st62{fill:#263649;}
	.st63{clip-path:url(#SVGID_45_);fill:#334659;}
	.st64{clip-path:url(#SVGID_45_);fill:#263649;}
	.st65{fill:url(#SVGID_46_);}
	.st66{fill:url(#SVGID_47_);}
	.st67{fill:url(#SVGID_48_);}
	.st68{fill:url(#SVGID_49_);}
	.st69{fill:#07AADB;}
	.st70{fill:url(#SVGID_50_);}
	.st71{fill:url(#SVGID_51_);}
	.st72{fill:url(#SVGID_52_);}
	.st73{fill:url(#SVGID_53_);}
	.st74{fill:url(#SVGID_54_);}
	.st75{fill:url(#SVGID_55_);}
	.st76{fill:url(#SVGID_56_);}
	.st77{opacity:0.63;fill:#2D2D2D;}
	.st78{fill:url(#SVGID_57_);}
	.st79{fill:url(#SVGID_58_);}
	.st80{fill:url(#SVGID_59_);}
	.st81{fill:#24126A;}
	.st82{fill:url(#SVGID_60_);}
	.st83{fill:url(#SVGID_61_);}
	.st84{fill:url(#SVGID_62_);}
	.st85{opacity:0.5;fill:#380031;}
	.st86{opacity:0.2;fill:#06033E;}
	.st87{fill:url(#SVGID_63_);}
	.st88{fill:url(#SVGID_64_);}
	.st89{fill:url(#SVGID_65_);}
	.st90{fill:url(#SVGID_66_);}
	.st91{fill:#8B1E64;}
	.st92{fill:#FB8488;}
	.st93{opacity:0.5;fill:#FFFFFF;}
	.st94{fill:url(#SVGID_67_);}
	.st95{fill:url(#SVGID_68_);}
	.st96{fill:url(#SVGID_69_);}
	.st97{fill:url(#SVGID_70_);}
	.st98{fill:url(#SVGID_71_);}
	.st99{fill:url(#SVGID_72_);}
</style>
<rect y="0" class="st0" width="600" height="450"/>
<g class="st1">
	<linearGradient id="SVGID_1_" gradientUnits="userSpaceOnUse" x1="149.9081" y1="-34.2121" x2="-2.6117" y2="84.7738">
		<stop  offset="0" style="stop-color:#183372"/>
		<stop  offset="1" style="stop-color:#020230"/>
	</linearGradient>
	<polygon class="st2" points="0,0 0,165.5 210,0 	"/>
	<linearGradient id="SVGID_2_" gradientUnits="userSpaceOnUse" x1="672.0933" y1="389.3334" x2="465.1389" y2="325.3127">
		<stop  offset="0" style="stop-color:#183372"/>
		<stop  offset="1" style="stop-color:#020230"/>
	</linearGradient>
	<polygon class="st3" points="475.7,178.6 383.4,450 600,450 600,272.8 	"/>
	<linearGradient id="SVGID_3_" gradientUnits="userSpaceOnUse" x1="64.7268" y1="89.2965" x2="329.0366" y2="89.2965">
		<stop  offset="0" style="stop-color:#183372"/>
		<stop  offset="1" style="stop-color:#020230"/>
	</linearGradient>
	<polygon class="st4" points="240,0 210,0 64.7,114.5 475.7,178.6 	"/>
	<linearGradient id="SVGID_4_" gradientUnits="userSpaceOnUse" x1="-11.2731" y1="209.1564" x2="213.2586" y2="209.1564">
		<stop  offset="0" style="stop-color:#183372"/>
		<stop  offset="1" style="stop-color:#020230"/>
	</linearGradient>
	<polygon class="st5" points="64.7,114.5 119.3,303.8 289.3,149.5 	"/>
	<linearGradient id="SVGID_5_" gradientUnits="userSpaceOnUse" x1="429.2578" y1="207.0164" x2="373.5612" y2="337.0579">
		<stop  offset="0" style="stop-color:#183372"/>
		<stop  offset="1" style="stop-color:#020230"/>
	</linearGradient>
	<polygon class="st6" points="334.2,293.1 383.4,450 475.7,178.6 	"/>
	<linearGradient id="SVGID_6_" gradientUnits="userSpaceOnUse" x1="212.7585" y1="221.2894" x2="399.1875" y2="221.2894">
		<stop  offset="0" style="stop-color:#183372"/>
		<stop  offset="1" style="stop-color:#020230"/>
	</linearGradient>
	<polygon class="st7" points="289.3,149.5 334.2,293.1 475.7,178.6 	"/>
	<linearGradient id="SVGID_7_" gradientUnits="userSpaceOnUse" x1="31.2678" y1="299.7541" x2="295.3686" y2="299.7541">
		<stop  offset="0" style="stop-color:#183372"/>
		<stop  offset="1" style="stop-color:#020230"/>
	</linearGradient>
	<polygon class="st8" points="289.3,149.5 119.3,303.8 383.4,450 	"/>
	<linearGradient id="SVGID_8_" gradientUnits="userSpaceOnUse" x1="119.2678" y1="376.9171" x2="383.3686" y2="376.9171">
		<stop  offset="0" style="stop-color:#183372"/>
		<stop  offset="1" style="stop-color:#020230"/>
	</linearGradient>
	<polygon class="st9" points="119.3,303.8 161.4,450 383.4,450 	"/>
	<linearGradient id="SVGID_9_" gradientUnits="userSpaceOnUse" x1="668.4481" y1="187.467" x2="501.0027" y2="62.5479">
		<stop  offset="0" style="stop-color:#183372"/>
		<stop  offset="1" style="stop-color:#020230"/>
	</linearGradient>
	<polygon class="st10" points="391.1,114.5 600,272.8 600,0 	"/>
	<linearGradient id="SVGID_10_" gradientUnits="userSpaceOnUse" x1="214.0356" y1="57.2402" x2="378.9532" y2="57.2402">
		<stop  offset="0" style="stop-color:#183372"/>
		<stop  offset="1" style="stop-color:#020230"/>
	</linearGradient>
	<polygon class="st11" points="240,0 391.1,114.5 405,0 	"/>
	<linearGradient id="SVGID_11_" gradientUnits="userSpaceOnUse" x1="586.1953" y1="-47.9442" x2="404.91" y2="55.8746">
		<stop  offset="0" style="stop-color:#183372"/>
		<stop  offset="1" style="stop-color:#020230"/>
	</linearGradient>
	<polygon class="st12" points="405,0 391.1,114.5 600,0 	"/>
	<polygon class="st13" points="64.7,114.5 0,165.5 0,314.3 161.4,450 	"/>
	<linearGradient id="SVGID_12_" gradientUnits="userSpaceOnUse" x1="-6.9728" y1="483.7884" x2="98.4159" y2="361.5879">
		<stop  offset="0" style="stop-color:#183372"/>
		<stop  offset="1" style="stop-color:#020230"/>
	</linearGradient>
	<polygon class="st14" points="0,314.3 0,450 161.4,450 	"/>
</g>
<g>
	<defs>
		<path id="SVGID_13_" d="M543.7,414.2H56.3c-14.7,0-26.6-11.9-26.6-26.6V60.9c0-14.7,11.9-26.6,26.6-26.6h487.4
			c14.7,0,26.6,11.9,26.6,26.6v326.7C570.3,402.3,558.4,414.2,543.7,414.2z"/>
	</defs>
	<clipPath id="SVGID_14_">
		<use xlink:href="#SVGID_13_"  style="overflow:visible;"/>
	</clipPath>
	<g class="st15">
		
			<linearGradient id="SVGID_15_" gradientUnits="userSpaceOnUse" x1="1586.7755" y1="4.1407" x2="1452.635" y2="108.7882" gradientTransform="matrix(-1 0 0 -1 2021.929 450)">
			<stop  offset="0" style="stop-color:#183372"/>
			<stop  offset="1" style="stop-color:#020230"/>
		</linearGradient>
		<polygon class="st16" points="570.3,414.2 570.3,274.5 381.1,414.2 		"/>
		
			<linearGradient id="SVGID_16_" gradientUnits="userSpaceOnUse" x1="2055.0505" y1="368.0852" x2="1868.5618" y2="310.3954" gradientTransform="matrix(-1 0 0 -1 2021.929 450)">
			<stop  offset="0" style="stop-color:#183372"/>
			<stop  offset="1" style="stop-color:#020230"/>
		</linearGradient>
		<polygon class="st17" points="141.7,263.4 224.9,34.3 29.7,34.3 29.7,183.9 		"/>
		
			<linearGradient id="SVGID_17_" gradientUnits="userSpaceOnUse" x1="1509.9218" y1="111.1684" x2="1748.0941" y2="111.1684" gradientTransform="matrix(-1 0 0 -1 2021.929 450)">
			<stop  offset="0" style="stop-color:#183372"/>
			<stop  offset="1" style="stop-color:#020230"/>
		</linearGradient>
		<polygon class="st18" points="354,414.2 381.1,414.2 512,317.6 141.7,263.4 		"/>
		
			<linearGradient id="SVGID_18_" gradientUnits="userSpaceOnUse" x1="1441.4375" y1="212.3692" x2="1643.7653" y2="212.3692" gradientTransform="matrix(-1 0 0 -1 2021.929 450)">
			<stop  offset="0" style="stop-color:#183372"/>
			<stop  offset="1" style="stop-color:#020230"/>
		</linearGradient>
		<polygon class="st19" points="512,317.6 462.9,157.7 309.7,288 		"/>
		
			<linearGradient id="SVGID_19_" gradientUnits="userSpaceOnUse" x1="1835.3059" y1="208.4547" x2="1787.8776" y2="319.1912" gradientTransform="matrix(-1 0 0 -1 2021.929 450)">
			<stop  offset="0" style="stop-color:#183372"/>
			<stop  offset="1" style="stop-color:#020230"/>
		</linearGradient>
		<polygon class="st20" points="269.2,166.8 224.9,34.3 141.7,263.4 		"/>
		
			<linearGradient id="SVGID_20_" gradientUnits="userSpaceOnUse" x1="1643.3146" y1="222.6134" x2="1811.3077" y2="222.6134" gradientTransform="matrix(-1 0 0 -1 2021.929 450)">
			<stop  offset="0" style="stop-color:#183372"/>
			<stop  offset="1" style="stop-color:#020230"/>
		</linearGradient>
		<polygon class="st21" points="309.7,288 269.2,166.8 141.7,263.4 		"/>
		
			<linearGradient id="SVGID_21_" gradientUnits="userSpaceOnUse" x1="1479.7715" y1="288.8631" x2="1717.7555" y2="288.8631" gradientTransform="matrix(-1 0 0 -1 2021.929 450)">
			<stop  offset="0" style="stop-color:#183372"/>
			<stop  offset="1" style="stop-color:#020230"/>
		</linearGradient>
		<polygon class="st22" points="309.7,288 462.9,157.7 224.9,34.3 		"/>
		
			<linearGradient id="SVGID_22_" gradientUnits="userSpaceOnUse" x1="1559.0692" y1="354.0139" x2="1797.0532" y2="354.0139" gradientTransform="matrix(-1 0 0 -1 2021.929 450)">
			<stop  offset="0" style="stop-color:#183372"/>
			<stop  offset="1" style="stop-color:#020230"/>
		</linearGradient>
		<polygon class="st23" points="462.9,157.7 424.9,34.3 224.9,34.3 		"/>
		
			<linearGradient id="SVGID_23_" gradientUnits="userSpaceOnUse" x1="2048.5457" y1="196.3113" x2="1901.0931" y2="86.3075" gradientTransform="matrix(-1 0 0 -1 2021.929 450)">
			<stop  offset="0" style="stop-color:#183372"/>
			<stop  offset="1" style="stop-color:#020230"/>
		</linearGradient>
		<polygon class="st24" points="217.9,317.6 29.7,183.9 29.7,414.2 		"/>
		
			<linearGradient id="SVGID_24_" gradientUnits="userSpaceOnUse" x1="1644.4655" y1="84.1024" x2="1793.0745" y2="84.1024" gradientTransform="matrix(-1 0 0 -1 2021.929 450)">
			<stop  offset="0" style="stop-color:#183372"/>
			<stop  offset="1" style="stop-color:#020230"/>
		</linearGradient>
		<polygon class="st25" points="354,414.2 217.9,317.6 205.4,414.2 		"/>
		
			<linearGradient id="SVGID_25_" gradientUnits="userSpaceOnUse" x1="1979.6831" y1="-7.3502" x2="1818.7839" y2="84.7939" gradientTransform="matrix(-1 0 0 -1 2021.929 450)">
			<stop  offset="0" style="stop-color:#183372"/>
			<stop  offset="1" style="stop-color:#020230"/>
		</linearGradient>
		<polygon class="st26" points="205.4,414.2 217.9,317.6 29.7,414.2 		"/>
		
			<linearGradient id="SVGID_26_" gradientUnits="userSpaceOnUse" x1="1384.9135" y1="274.075" x2="1530.3243" y2="274.075" gradientTransform="matrix(-1 0 0 -1 2021.929 450)">
			<stop  offset="0" style="stop-color:#183372"/>
			<stop  offset="1" style="stop-color:#020230"/>
		</linearGradient>
		<polygon class="st27" points="512,317.6 570.3,274.5 570.3,148.9 424.9,34.3 		"/>
		
			<linearGradient id="SVGID_27_" gradientUnits="userSpaceOnUse" x1="1447.218" y1="447.8101" x2="1542.1848" y2="337.694" gradientTransform="matrix(-1 0 0 -1 2021.929 450)">
			<stop  offset="0" style="stop-color:#183372"/>
			<stop  offset="1" style="stop-color:#020230"/>
		</linearGradient>
		<polygon class="st28" points="570.3,148.9 570.3,34.3 424.9,34.3 		"/>
	</g>
</g>
<linearGradient id="SVGID_28_" gradientUnits="userSpaceOnUse" x1="300.0001" y1="413.8652" x2="300.0001" y2="33.9184">
	<stop  offset="0" style="stop-color:#020230"/>
	<stop  offset="0.274" style="stop-color:#030534"/>
	<stop  offset="0.5554" style="stop-color:#070D40"/>
	<stop  offset="0.8393" style="stop-color:#0D1B55"/>
	<stop  offset="1" style="stop-color:#112564"/>
</linearGradient>
<path class="st29" d="M543.7,413.9H56.3c-14.7,0-26.6-11.9-26.6-26.6V60.5c0-14.7,11.9-26.6,26.6-26.6h487.4
	c14.7,0,26.6,11.9,26.6,26.6v326.7C570.3,401.9,558.4,413.9,543.7,413.9z"/>
<path class="st30" d="M543.7,413.9H56.3c-14.7,0-26.6-11.9-26.6-26.6v19.7c0,14.7,11.9,26.6,26.6,26.6h487.4
	c14.7,0,26.6-11.9,26.6-26.6v-19.7C570.3,401.9,558.4,413.9,543.7,413.9z"/>
<circle class="st31" cx="310.7" cy="286.4" r="2.3"/>
<circle class="st32" cx="217" cy="317.3" r="2.1"/>
<path class="st32" d="M221.1,317.3c0,2.3-1.9,4.1-4.1,4.1c-2.3,0-4.1-1.9-4.1-4.1c0-2.3,1.9-4.1,4.1-4.1
	C219.3,313.2,221.1,315,221.1,317.3z"/>
<circle class="st32" cx="511.9" cy="317.4" r="3"/>
<circle class="st32" cx="269" cy="166.9" r="1.7"/>
<path class="st33" d="M85.7,128.1c0,0.9-0.7,1.7-1.7,1.7c-0.9,0-1.7-0.7-1.7-1.7c0-0.9,0.7-1.7,1.7-1.7
	C84.9,126.4,85.7,127.2,85.7,128.1z"/>
<circle class="st33" cx="168.8" cy="104.3" r="2.5"/>
<path class="st31" d="M169.9,104.3c0,0.6-0.5,1-1,1s-1-0.5-1-1c0-0.6,0.5-1,1-1S169.9,103.7,169.9,104.3z"/>
<circle class="st32" cx="288.3" cy="142.3" r="6.6"/>
<path class="st31" d="M291.1,142.3c0,1.5-1.2,2.7-2.7,2.7c-1.5,0-2.7-1.2-2.7-2.7c0-1.5,1.2-2.7,2.7-2.7
	C289.9,139.6,291.1,140.8,291.1,142.3z"/>
<rect x="366.9" y="365" transform="matrix(0.8038 -0.5949 0.5949 0.8038 -129.5487 337.7556)" class="st32" width="160.8" height="0.5"/>
<rect x="339" y="-35.2" transform="matrix(0.4608 -0.8875 0.8875 0.4608 99.8075 351.5805)" class="st33" width="0.5" height="257.7"/>
<polygon class="st34" points="302.9,190.1 288,142 288.4,142 410.4,159.1 410.4,159.7 288.7,142.6 303.4,190 "/>
<polygon class="st33" points="352.3,413.4 217,317.5 40.3,409.1 40.1,408.6 217,316.9 217.2,317 352.7,412.9 "/>
<rect x="85.4" y="155" transform="matrix(0.579 -0.8153 0.8153 0.579 -146.2907 164.0214)" class="st33" width="0.5" height="137.4"/>
<radialGradient id="SVGID_29_" cx="133.6708" cy="390.5228" r="65.4946" gradientTransform="matrix(1 0 0 0.4826 0 143.8307)" gradientUnits="userSpaceOnUse">
	<stop  offset="0" style="stop-color:#F8359E"/>
	<stop  offset="4.282498e-02" style="stop-color:#E63192"/>
	<stop  offset="0.1941" style="stop-color:#AA246C"/>
	<stop  offset="0.3446" style="stop-color:#76194B"/>
	<stop  offset="0.4909" style="stop-color:#4B1030"/>
	<stop  offset="0.6322" style="stop-color:#2B091B"/>
	<stop  offset="0.7669" style="stop-color:#13040C"/>
	<stop  offset="0.8926" style="stop-color:#050103"/>
	<stop  offset="1" style="stop-color:#000000"/>
</radialGradient>
<ellipse class="st35" cx="133.7" cy="332.3" rx="65.5" ry="31.6"/>
<g>
	<path class="st36" d="M265.6,132.5c0,1.9-1.5,3.4-3.4,3.4c-1.9,0-3.4-1.5-3.4-3.4c0-1.9,1.5-3.4,3.4-3.4
		C264.1,129.1,265.6,130.7,265.6,132.5z"/>
	<path class="st37" d="M263.9,132.5c0,0.9-0.7,1.7-1.7,1.7c-0.9,0-1.7-0.7-1.7-1.7c0-0.9,0.7-1.7,1.7-1.7
		C263.2,130.9,263.9,131.6,263.9,132.5z"/>
</g>
<path class="st36" d="M391.1,268.8c0,1-0.8,1.8-1.8,1.8s-1.8-0.8-1.8-1.8c0-1,0.8-1.8,1.8-1.8S391.1,267.8,391.1,268.8z"/>
<circle class="st36" cx="375.3" cy="168" r="1"/>
<path class="st36" d="M237,250.3c0,0.6-0.5,1-1,1c-0.6,0-1-0.5-1-1s0.5-1,1-1C236.5,249.3,237,249.8,237,250.3z"/>
<g>
	<path class="st38" d="M257.1,238.7c-2.1,0-4.1-0.5-5.7-1.4l-38.5-22.2c-1.6-0.9-2.5-2.2-2.5-3.5c0-1.3,0.9-2.6,2.5-3.5l38.3-22.3
		c3.2-1.8,8.3-1.8,11.5,0l38.5,22.2c1.6,0.9,2.5,2.2,2.5,3.5c0,1.3-0.9,2.6-2.5,3.5l-38.3,22.3C261.2,238.2,259.1,238.7,257.1,238.7
		z M256.9,185.1c-1.9,0-3.9,0.4-5.4,1.3l-38.3,22.3c-1.4,0.8-2.1,1.8-2.1,2.9c0,1.1,0.8,2.1,2.1,2.9l38.5,22.2c3,1.7,7.8,1.7,10.7,0
		l38.3-22.3c1.4-0.8,2.1-1.8,2.1-2.9c0-1.1-0.8-2.1-2.1-2.9l-38.5-22.2C260.7,185.6,258.8,185.1,256.9,185.1z"/>
	<g>
		<linearGradient id="SVGID_30_" gradientUnits="userSpaceOnUse" x1="205.3401" y1="199.4174" x2="270.5636" y2="199.4174">
			<stop  offset="0" style="stop-color:#01C8EF"/>
			<stop  offset="0.1297" style="stop-color:#04B1DD"/>
			<stop  offset="0.5466" style="stop-color:#0E6BA7"/>
			<stop  offset="0.8476" style="stop-color:#154085"/>
			<stop  offset="1" style="stop-color:#172F78"/>
		</linearGradient>
		<path class="st39" d="M303.4,199.4L303.4,199.4l0-18.5l-23.3,3.1L262.6,174c-3.1-1.8-8-1.8-11.1,0l-2.7,1.7l-37.9,5.1v18.7
			c0,0,0,0,0,0v0.1l0,0c0,1.1,0.8,2.2,2.3,3.1l38.5,22.2c3.1,1.8,8,1.8,11.1,0l38.3-22.3c1.5-0.9,2.2-2,2.3-3.1l0,0V199.4z"/>
		<radialGradient id="SVGID_31_" cx="193.7746" cy="150.5089" r="145.6572" gradientUnits="userSpaceOnUse">
			<stop  offset="0" style="stop-color:#01C8EF"/>
			<stop  offset="0.1396" style="stop-color:#03BAE4"/>
			<stop  offset="0.4033" style="stop-color:#0895C8"/>
			<stop  offset="0.76" style="stop-color:#115A9A"/>
			<stop  offset="1" style="stop-color:#172F78"/>
		</radialGradient>
		<path class="st40" d="M301.1,177.6l-38.5-22.2c-3.1-1.8-8-1.8-11.1,0l-38.3,22.3c-3.1,1.8-3.1,4.6,0,6.4l38.5,22.2
			c3.1,1.8,8,1.8,11.1,0l38.3-22.3C304.2,182.2,304.2,179.4,301.1,177.6z"/>
		<path class="st41" d="M301.1,182.9l-38.3,22.3c-3.1,1.8-8,1.8-11.1,0l-38.5-22.2c-1.3-0.7-2-1.7-2.2-2.6c-0.3,1.3,0.5,2.7,2.2,3.8
			l38.5,22.2c3.1,1.8,8,1.8,11.1,0l38.3-22.3c1.8-1,2.5-2.4,2.2-3.8C303.1,181.2,302.4,182.1,301.1,182.9z"/>
		<g>
			<polygon class="st41" points="268,211.2 266.2,212.3 266.2,210.1 268,209.1 			"/>
			<polygon class="st41" points="271.8,209 270,210.1 270,207.9 271.8,206.9 			"/>
			<polygon class="st41" points="275.6,206.8 273.8,207.8 273.8,205.7 275.6,204.7 			"/>
			<polygon class="st41" points="272.5,212.9 270.7,213.9 270.7,211.8 272.5,210.8 			"/>
			<polygon class="st41" points="275.8,210.9 274,212 274,209.9 275.8,208.8 			"/>
			<polygon class="st41" points="287.8,199.7 286,200.8 286,198.7 287.8,197.6 			"/>
			<polygon class="st41" points="298.3,193.7 296.5,194.7 296.5,192.6 298.3,191.6 			"/>
			<polygon class="st41" points="279.4,204.6 277.6,205.6 277.6,203.5 279.4,202.5 			"/>
		</g>
	</g>
	<path class="st42" d="M255,196.9l-25.9-15c-1.1-0.6-0.9-1.7,0.3-2.4l25.3-14.6c1.2-0.7,3.1-0.8,4.1-0.2l25.9,15
		c1.1,0.6,0.9,1.7-0.3,2.4l-25.3,14.6C257.9,197.4,256,197.5,255,196.9z"/>
	<path class="st41" d="M244.8,213.1l-21.4-12.3c-0.5-0.3-0.9-1.1-0.9-1.8v-1.6c0-0.7,0.4-1,0.9-0.7l21.4,12.3
		c0.5,0.3,0.9,1.1,0.9,1.8v1.6C245.7,213.1,245.3,213.4,244.8,213.1z"/>
	<g>
		<linearGradient id="SVGID_32_" gradientUnits="userSpaceOnUse" x1="205.3401" y1="164.7845" x2="270.5636" y2="164.7845">
			<stop  offset="0" style="stop-color:#01C8EF"/>
			<stop  offset="0.1297" style="stop-color:#04B1DD"/>
			<stop  offset="0.5466" style="stop-color:#0E6BA7"/>
			<stop  offset="0.8476" style="stop-color:#154085"/>
			<stop  offset="1" style="stop-color:#172F78"/>
		</linearGradient>
		<path class="st43" d="M303.4,164.8L303.4,164.8l0-18.5l-23.3,3.1l-17.5-10.1c-3.1-1.8-8-1.8-11.1,0l-2.7,1.7l-37.9,5.1v18.7
			c0,0,0,0,0,0v0.1l0,0c0,1.1,0.8,2.2,2.3,3.1l38.5,22.2c3.1,1.8,8,1.8,11.1,0l38.3-22.3c1.5-0.9,2.2-2,2.3-3.1l0,0V164.8z"/>
		<radialGradient id="SVGID_33_" cx="193.7746" cy="115.8759" r="145.6572" gradientUnits="userSpaceOnUse">
			<stop  offset="0" style="stop-color:#01C8EF"/>
			<stop  offset="0.1396" style="stop-color:#03BAE4"/>
			<stop  offset="0.4033" style="stop-color:#0895C8"/>
			<stop  offset="0.76" style="stop-color:#115A9A"/>
			<stop  offset="1" style="stop-color:#172F78"/>
		</radialGradient>
		<path class="st44" d="M301.1,143l-38.5-22.2c-3.1-1.8-8-1.8-11.1,0L213.2,143c-3.1,1.8-3.1,4.6,0,6.4l38.5,22.2
			c3.1,1.8,8,1.8,11.1,0l38.3-22.3C304.2,147.6,304.2,144.7,301.1,143z"/>
		<path class="st42" d="M282.8,144.3l-22.4-13c-1.8-1-4.7-1-6.5,0l-22.3,13c-1.8,1-1.8,2.7,0,3.7l22.4,13c1.8,1,4.7,1,6.5,0l22.3-13
			C284.5,147,284.5,145.3,282.8,144.3z"/>
		<path class="st41" d="M301.1,148.2l-38.3,22.3c-3.1,1.8-8,1.8-11.1,0l-38.5-22.2c-1.3-0.7-2-1.7-2.2-2.6c-0.3,1.3,0.5,2.7,2.2,3.8
			l38.5,22.2c3.1,1.8,8,1.8,11.1,0l38.3-22.3c1.8-1,2.5-2.4,2.2-3.8C303.1,146.6,302.4,147.5,301.1,148.2z"/>
		<g>
			<polygon class="st41" points="268,176.6 266.2,177.6 266.2,175.5 268,174.5 			"/>
			<polygon class="st41" points="271.8,174.4 270,175.4 270,173.3 271.8,172.3 			"/>
			<polygon class="st41" points="275.6,172.2 273.8,173.2 273.8,171.1 275.6,170.1 			"/>
			<polygon class="st41" points="272.5,178.2 270.7,179.3 270.7,177.2 272.5,176.1 			"/>
			<polygon class="st41" points="275.8,176.3 274,177.3 274,175.2 275.8,174.2 			"/>
			<polygon class="st41" points="287.8,165.1 286,166.2 286,164 287.8,163 			"/>
			<polygon class="st41" points="298.3,159 296.5,160.1 296.5,158 298.3,156.9 			"/>
			<polygon class="st41" points="279.4,170 277.6,171 277.6,168.9 279.4,167.9 			"/>
		</g>
	</g>
	<g>
		<linearGradient id="SVGID_34_" gradientUnits="userSpaceOnUse" x1="205.3401" y1="130.1515" x2="270.5636" y2="130.1515">
			<stop  offset="0" style="stop-color:#01C8EF"/>
			<stop  offset="0.1297" style="stop-color:#04B1DD"/>
			<stop  offset="0.5466" style="stop-color:#0E6BA7"/>
			<stop  offset="0.8476" style="stop-color:#154085"/>
			<stop  offset="1" style="stop-color:#172F78"/>
		</linearGradient>
		<path class="st45" d="M303.4,130.1L303.4,130.1l0-18.5l-23.3,3.1l-17.5-10.1c-3.1-1.8-8-1.8-11.1,0l-2.7,1.7l-37.9,5.1v18.7
			c0,0,0,0,0,0v0.1l0,0c0,1.1,0.8,2.2,2.3,3.1l38.5,22.2c3.1,1.8,8,1.8,11.1,0l38.3-22.3c1.5-0.9,2.2-2,2.3-3.1l0,0V130.1z"/>
		<radialGradient id="SVGID_35_" cx="193.7746" cy="81.243" r="145.6572" gradientUnits="userSpaceOnUse">
			<stop  offset="0" style="stop-color:#01C8EF"/>
			<stop  offset="0.1396" style="stop-color:#03BAE4"/>
			<stop  offset="0.4033" style="stop-color:#0895C8"/>
			<stop  offset="0.76" style="stop-color:#115A9A"/>
			<stop  offset="1" style="stop-color:#172F78"/>
		</radialGradient>
		<path class="st46" d="M301.1,108.3l-38.5-22.2c-3.1-1.8-8-1.8-11.1,0l-38.3,22.3c-3.1,1.8-3.1,4.6,0,6.4l38.5,22.2
			c3.1,1.8,8,1.8,11.1,0l38.3-22.3C304.2,113,304.2,110.1,301.1,108.3z"/>
		<path class="st41" d="M301.1,113.6l-38.3,22.3c-3.1,1.8-8,1.8-11.1,0l-38.5-22.2c-1.3-0.7-2-1.7-2.2-2.6c-0.3,1.3,0.5,2.7,2.2,3.8
			l38.5,22.2c3.1,1.8,8,1.8,11.1,0l38.3-22.3c1.8-1,2.5-2.4,2.2-3.8C303.1,111.9,302.4,112.9,301.1,113.6z"/>
		<g>
			<polygon class="st41" points="268,141.9 266.2,143 266.2,140.9 268,139.8 			"/>
			<polygon class="st41" points="271.8,139.7 270,140.8 270,138.7 271.8,137.6 			"/>
			<polygon class="st41" points="275.6,137.5 273.8,138.6 273.8,136.5 275.6,135.4 			"/>
			<polygon class="st41" points="272.5,143.6 270.7,144.6 270.7,142.5 272.5,141.5 			"/>
			<polygon class="st41" points="275.8,141.7 274,142.7 274,140.6 275.8,139.6 			"/>
			<polygon class="st41" points="287.8,130.5 286,131.5 286,129.4 287.8,128.4 			"/>
			<polygon class="st41" points="298.3,124.4 296.5,125.5 296.5,123.4 298.3,122.3 			"/>
			<polygon class="st41" points="279.4,135.3 277.6,136.4 277.6,134.3 279.4,133.2 			"/>
		</g>
	</g>
	<path class="st41" d="M244.8,179.2l-21.4-12.3c-0.5-0.3-0.9-1.1-0.9-1.8v-1.6c0-0.7,0.4-1,0.9-0.7l21.4,12.3
		c0.5,0.3,0.9,1.1,0.9,1.8v1.6C245.7,179.2,245.3,179.5,244.8,179.2z"/>
	<path class="st41" d="M244.8,144.4L223.4,132c-0.5-0.3-0.9-1.1-0.9-1.8v-1.6c0-0.7,0.4-1,0.9-0.7l21.4,12.3
		c0.5,0.3,0.9,1.1,0.9,1.8v1.6C245.7,144.3,245.3,144.6,244.8,144.4z"/>
</g>
<g>
	<path class="st34" d="M392,344c-2.3,0-4.5-0.5-6.2-1.4L253.3,266c-1.6-0.9-2.5-2.3-2.5-3.7c0-1.7,1.3-3.5,3.5-4.8l62-35.8
		c4.2-2.4,10.5-2.7,14.1-0.6L463,297.7c1.6,0.9,2.5,2.3,2.5,3.7c0,1.7-1.3,3.5-3.5,4.8L400,342C397.7,343.3,394.8,344,392,344z
		 M386.2,342.1c3.5,2,9.6,1.7,13.6-0.6l62-35.8c2.1-1.2,3.2-2.8,3.2-4.3c0-1.2-0.8-2.4-2.3-3.2l-132.6-76.5c-3.5-2-9.6-1.7-13.6,0.6
		l-62,35.8c-2.1,1.2-3.2,2.8-3.2,4.3c0,1.2,0.8,2.4,2.3,3.2L386.2,342.1z"/>
	<g>
		<g>
			<g>
				<g>
					<g>
						<radialGradient id="SVGID_36_" cx="363.049" cy="151.933" r="25.9672" gradientUnits="userSpaceOnUse">
							<stop  offset="0" style="stop-color:#01C8EF"/>
							<stop  offset="0.1378" style="stop-color:#02C3EB"/>
							<stop  offset="0.2992" style="stop-color:#03B5DE"/>
							<stop  offset="0.4723" style="stop-color:#059DCA"/>
							<stop  offset="0.6526" style="stop-color:#097DAE"/>
							<stop  offset="0.754" style="stop-color:#0B679B"/>
							<stop  offset="0.8967" style="stop-color:#0F447D"/>
							<stop  offset="1" style="stop-color:#122865"/>
						</radialGradient>
						<path class="st47" d="M403.6,162.2L403.6,162.2c-0.1-0.8-0.6-1.6-1.6-2.2l-0.7-0.4c-2.4-1.4-6.6-1.2-9.4,0.4l-19.7,11.3
							c-1.5,0.9-2.3,1.9-2.3,3l0,0l0,3.4l0,0c0,0.9,0.5,1.7,1.6,2.4l0.7,0.4c2.4,1.4,6.6,1.2,9.4-0.4l19.7-11.3
							c1.4-0.8,2.2-1.9,2.3-2.9l0,0V162.2z"/>
						<radialGradient id="SVGID_37_" cx="369.9944" cy="161.8654" r="56.8988" gradientUnits="userSpaceOnUse">
							<stop  offset="0" style="stop-color:#01C8EF"/>
							<stop  offset="0.233" style="stop-color:#079ECE"/>
							<stop  offset="0.5936" style="stop-color:#1062A0"/>
							<stop  offset="0.8596" style="stop-color:#153D83"/>
							<stop  offset="1" style="stop-color:#172F78"/>
						</radialGradient>
						<path class="st48" d="M372.2,177.2l-0.7-0.4c-2.4-1.4-2.1-3.8,0.7-5.4l19.7-11.3c2.8-1.6,7-1.8,9.4-0.4l0.7,0.4
							c2.4,1.4,2.1,3.8-0.7,5.4l-19.7,11.3C378.8,178.4,374.6,178.6,372.2,177.2z"/>
					</g>
					<g>
						<path class="st49" d="M413.8,193.1l-41.2,23.7c-2,1.2-3.7-0.1-3.7-2.8l0,0c0-2.7,1.7-5.9,3.7-7.1l47.2-27.2v1.9
							C419.8,186,417.1,191.1,413.8,193.1z"/>
						<g>
							<radialGradient id="SVGID_38_" cx="389.522" cy="108.4305" r="107.632" gradientUnits="userSpaceOnUse">
								<stop  offset="0" style="stop-color:#01C8EF"/>
								<stop  offset="0.233" style="stop-color:#079ECE"/>
								<stop  offset="0.5936" style="stop-color:#1062A0"/>
								<stop  offset="0.8596" style="stop-color:#153D83"/>
								<stop  offset="1" style="stop-color:#172F78"/>
							</radialGradient>
							<path class="st50" d="M416.9,91.6L416.9,91.6c-1.4-0.8-3.3-0.7-5.3,0.5l-1.2,0.7c-4.6,2.6-8.2,9.7-8.2,15.7V190l10.9-6.3v2.6
								l-13.1,10.7l-29.8,20l41.9,23.7l24.1-18.5l13.7-11.7l8.5-95.3L416.9,91.6z"/>
						</g>
					</g>
					<path class="st51" d="M386.2,226c0,0-1.1-2.9,1.1-5.2c2.2-2.2,13.8-7.1,14.6-7.6c0.8-0.5,5-3.6,5-3.6l1.3-2.8
						c0,0-23.5,2.3-23.8,2.7c-0.3,0.4-11,10-10.7,10.4c0.3,0.4,7.4,2.1,7.4,2.1l1.4,1.9L386.2,226z"/>
					<radialGradient id="SVGID_39_" cx="268.2158" cy="76.7136" r="263.5607" gradientUnits="userSpaceOnUse">
						<stop  offset="0" style="stop-color:#01C8EF"/>
						<stop  offset="0.233" style="stop-color:#079ECE"/>
						<stop  offset="0.5936" style="stop-color:#1062A0"/>
						<stop  offset="0.8596" style="stop-color:#153D83"/>
						<stop  offset="1" style="stop-color:#172F78"/>
					</radialGradient>
					<path class="st52" d="M453.3,115.7l-1.2,0.7c-4.6,2.6-8.2,9.7-8.2,15.7v81.4l-29.4,17c-2,1.2-3.7,4.3-3.7,7.1v0
						c0,2.7,1.7,4,3.7,2.8l41.2-23.7c3.3-1.9,6-7,6-11.4v-1.9v-81.4C461.5,115.8,457.8,113,453.3,115.7z"/>
					<g>
						<g>
							<path class="st53" d="M375,243.6c0,0-6.1,3.9-8.1,6.2c-2.1,2.3-6.1,7-4.4,9.2c1.7,2.2,7.3,3.5,13.4-2.1
								c6.1-5.6,4.3-5.9,9.5-8.7c5.2-2.8,6.6-5.8,6-7.5c-0.6-1.7-3.2-4.8-4.6-4.1S375,243.6,375,243.6z"/>
							<path class="st53" d="M404.5,260c0,0-2.2,4.8-3.3,6.4c-1.1,1.6-6.6,10.8-3.7,12.9c2.8,2.1,7.3,0.3,11.6-4.3
								c4.3-4.6,6.1-9,7.2-10.9c1-1.8,3.7-6.8,2.4-9.6c-1.2-2.8-1.5-3.3-1.5-3.3L404.5,260z"/>
							<radialGradient id="SVGID_40_" cx="325.9286" cy="226.1826" r="80.8179" gradientUnits="userSpaceOnUse">
								<stop  offset="0" style="stop-color:#01C8EF"/>
								<stop  offset="0.1376" style="stop-color:#02C3EB"/>
								<stop  offset="0.2987" style="stop-color:#03B5DF"/>
								<stop  offset="0.4716" style="stop-color:#069DCA"/>
								<stop  offset="0.6529" style="stop-color:#097CAE"/>
								<stop  offset="0.8387" style="stop-color:#0D538A"/>
								<stop  offset="1" style="stop-color:#122865"/>
							</radialGradient>
							<path class="st54" d="M382.5,191.7c0,0-18,17.8-21,26.7c0,0-1.2,4.8,2.2,8.6c3.5,3.8,10.9,16.2,10.9,16.2s5.5,6.7,12.7,1.3
								c0,0,3.2-5.2,1.2-8.6c-2-3.4-7.3-14.4-7.3-14.4s11.6-8,17.3-10c5.7-2,8.7-3.6,8.7-3.6s-1,5.4-5.2,10.6
								c-4.2,5.3-11.2,13.7-8.8,19.6c2.3,5.9,3.7,7.7,5.9,11.1c2.2,3.4,4.3,10.4,6.1,11.2c1.9,0.7,10.5,1.6,11.9-4
								c1.4-5.6-2.9-16.5-4.9-20.2c0,0,23.3-26.9,25.5-29.8C440,203.5,389.7,187.2,382.5,191.7z"/>
							<path class="st42" d="M388.5,236c-2-3.4-7.3-14.4-7.3-14.4s11.6-8,17.3-10c5.7-2,8.7-3.6,8.7-3.6c1.1-1.5,4.6-7.3,6.2-11.9
								c-13.1-3.9-27.4-6.8-31-4.5c1.3,3.1,8,3.1,8,3.1s2.5,6.1,4.2,6.9c1.7,0.8,5.6-0.1,5.6-0.1s-0.6,1-3.5,3
								c-2.8,2-20.6,16.6-20.6,16.6s1,0.6,5.7,9.1c4.7,8.5,5.3,14.2,5.3,14.2S390.5,239.4,388.5,236z"/>
							<path class="st42" d="M428.4,201.2c-10.4-1-22.6-1.1-19.8,4.4c4.6,9.3,14,9.7,14,9.7c-0.1,3.4-14.4,19.9-14.4,19.9
								s0,0,3.3,6.5c3.3,6.5,2.9,18.3,2.9,18.3c1.3-0.7,2.3-1.8,2.7-3.4c1.4-5.6-2.9-16.5-4.9-20.2c0,0,23.3-26.9,25.5-29.8
								C438.4,205.5,434.5,203.5,428.4,201.2z"/>
							<radialGradient id="SVGID_41_" cx="395.5394" cy="119.5043" r="65.1117" gradientUnits="userSpaceOnUse">
								<stop  offset="0" style="stop-color:#01C8EF"/>
								<stop  offset="0.4589" style="stop-color:#0C7BB3"/>
								<stop  offset="0.8239" style="stop-color:#144489"/>
								<stop  offset="1" style="stop-color:#172F78"/>
							</radialGradient>
							<path class="st55" d="M364.3,144.3l2.8-2.2c0,0,14.9-8.3,19.9-11c2.7-1.5,5.5-4.1,7.5-6.1c1.9-2,4.6-3.2,7.5-3.2l26.2-0.1
								c0,0,3,4.9,4.1,5.8c0.8,0.7,7.9,6.7,13,11.6c2.8,2.7,4.9,6.1,5.9,9.9c2.9,10.3,2.9,31,3.3,45.8c0,0-1.8,0.7-6.3,1.7
								c-4.5,1-3.9,0.3-3.9,0.3s-6.7,15-15.7,16.5c-9.1,1.5-21.3-2.8-23.4-17c0,0-17.7-2.6-22.5-4.6c-0.4-0.2-0.6-0.7-0.3-1.1
								c2.1-2.8,10.1-13.8,10.9-21c0.9-8.3,0.6-20.3,0-23.6c0,0-13.3,5-17.6,5.9c0,0-16.2,17.8-23,22.7c0,0,2.3-3.6-2.3-6.1
								L364.3,144.3z"/>
							<path class="st42" d="M448.1,196.5c0.7-0.1,1.3-0.3,1.9-0.4l-0.9-1.8l-24.6-2.6l-14.4,0.7l-4.9,4.7c0.3,1.5,0.7,2.9,1.2,4.2
								c0,0,6.1,0.9,8.9,0.3c2.8-0.6,24.7,2.6,24.7,2.6c2.5-3.6,4-6.9,4.2-7.3C444.2,197,444.4,197.3,448.1,196.5z"/>
							<path class="st56" d="M414.9,187.9c0-0.1-0.1-0.2-0.2-0.2c-1.2,0-8.9-0.3-11.8-1.3c-3.2-1.1-6.5-0.9-6.7-0.7
								c-0.2,0.2-5.4,2.4-5.7,3.3c-0.3,0.8-0.8,3.6-0.1,4.6s1,1.7,1,1.7l0.5,0.1c0,0,0.7,1.4,1.1,1.9c0.2,0.2,0.3,0.5,0.4,0.7
								c0.3,0.7,0.9,1.9,1.2,1.9c0.3,0,2,0.4,2.4,0.3c0.3-0.1,0.6-1.1,0.5-1.6c0-0.1,0-0.2,0.2-0.3c0.7-0.1,2.8-0.4,5.6-0.1
								c3.4,0.3,8.2-1.9,8.7-2.1c0,0,0,0,0.1,0l4.8-0.4c0.1,0,0.2-0.1,0.2-0.3L414.9,187.9z"/>
							<path class="st57" d="M409.1,137.2c0,0-4.1,15.1,0.2,30.6c0,0,15.8-29.4,17.5-34.2c1.7-4.8,2.3-8.2,0.7-9.9
								c-1.6-1.7-15.8,7.1-15.8,7.1L409.1,137.2z"/>
							<path class="st58" d="M413.2,160.9c0,0,3-9.2,2.5-12.2c-0.5-3-1.3-5.1-1.3-5.1l2.7-2.5l1.2,2.5c0,0,6-4.4,6.4-5.2
								c0,0-4.8,3.3-6.3,3.8c0,0-0.7-1.2-1.7-1.6c-0.9-0.4-3.3,2.8-3.3,2.8L413,149l-2.4,13l0.8,1.9L413.2,160.9z"/>
							<radialGradient id="SVGID_42_" cx="341.3639" cy="147.8405" r="85.8455" gradientUnits="userSpaceOnUse">
								<stop  offset="0" style="stop-color:#F9636B"/>
								<stop  offset="1" style="stop-color:#B6246E"/>
							</radialGradient>
							<path class="st59" d="M416.7,140.6c0,0-2.7-4.7-6.1-3.3c0,0-0.6,5.8-0.1,6.3c-0.8,1-2.7,3.8-3.1,6.9c-1,8.6,2,17.2,2,17.2
								l2.3-4.4c0,0,0.6-5.3,2.1-11c1.1-4.2,0.6-7.6,0.2-9C415,142.6,416.7,140.6,416.7,140.6z"/>
							<path class="st56" d="M401.8,113.1c0,0-0.7,3.7-0.5,4.4c0.3,0.7,1.2,1.2,1,2.6c-0.2,1.4,0.6,5.7,1,7.1c0,0-0.3,1.5,0.1,2
								c0.4,0.5,1,0.5,1.4,1.2c0.4,0.7,0.5,4.4,2,5.7c1.5,1.2,3.5,1.5,4.5,1.2c1-0.3,2-1,2-1l2.3,0.9c0,0,11.7-3.3,11.4-11.6l0-0.9
								c0,0,0.8-1.2,1.1-1.9c0.2-0.8,2.2-4.2,1.2-5.7c0,0,4.5-17.9-9.5-19C405.7,97,403.6,106.8,401.8,113.1z"/>
							<path class="st60" d="M427,125.6L427,125.6c-0.6-0.4-1.2-0.7-1.6-0.6c-1.6,0.3-1.2-3-1.2-3s-0.3,0.6-1.1,4.9
								c-0.8,4.3-9.7,9.4-9.7,9.4l2.3,0.9C415.6,137.1,427.3,133.8,427,125.6z"/>
							<radialGradient id="SVGID_43_" cx="398.9065" cy="99.5391" r="25.556" gradientUnits="userSpaceOnUse">
								<stop  offset="0" style="stop-color:#F9636B"/>
								<stop  offset="1" style="stop-color:#B6246E"/>
							</radialGradient>
							<path class="st61" d="M401.8,105.3c-1.4,2.9-2,6.4,0.8,8.8c0,0,2.4,0.7,7-1.5c3.1-1.4,6.2-0.8,7.9-0.2c0.8,0.3,1.3,1,1.3,1.8
								l-0.1,2.6c0,0.7,0.4,1.3,1,1.5l2.1,0.9l0.4,2.5c0.1,0.7,0.9,1.2,1.6,0.9l0.5-0.2c0,0,0.3-5.5,4.9-5.2c0,0,3.7-8-0.1-15.3
								c-3.8-7.3-14.1-6.8-16.4-6c-2.9,1.1-2.5,0.9-4.2,2C405.7,99.6,403.3,102.2,401.8,105.3z"/>
							<path class="st42" d="M439.1,161.6c0,0-2.1,15.6-3,20.1l-6.9,3.6l12.2-0.7L439.1,161.6z"/>
							<path class="st42" d="M432.3,130.9c0,0-3.6,12.5-4.4,14.9l-2.9-0.3l0.5,3.9l-15.7,20.7l17.5-20.1l-0.7-3.5l2.7,0.3
								L432.3,130.9z"/>
							<path class="st62" d="M416.8,198.6c0,0,36.9-1.2,37.8-1.9c0.9-0.7,1.1-10.2,1-15.7c-0.1-3.9,0-19-3.3-29.6
								c2.6,9,1.2,40.7,0.1,42.3c-1.2,1.6-36.3,2.5-36.3,2.5l0,0C416.5,197.7,416.8,198.6,416.8,198.6z"/>
							<path class="st56" d="M344.3,169.1c0,0-0.1,0.9-1.7,1.8c-1.6,0.9-5.7,2.9-6.4,3.5c-0.7,0.6-3.6,3.2-3.7,3.5
								c-0.1,0.3-1,3.3-1,3.5c0,0.2,0.3,1.5,0.3,1.5l-0.9,4.3c0,0-1.2,1.7,0.1,2.1c1.3,0.5,2-0.8,2-1c0,0,1.9-0.9,3.3-2
								c1.4-1.1,7-5.6,7.9-5.3c1,0.3,0.1,1.9-0.4,2.2c-0.5,0.3-3.4,3.2-2.2,5.2c1.2,2,2.1-1.1,2.9-1.8c0.8-0.6,2.6-3.2,3.7-3.5
								c1.1-0.3,3.1-4.4,3.3-6.2c0.3-1.8,1.6-3,2-3.6c0.5-0.6-1-5.1-1-5.1l-5.5-1.7l-1.9,1.3L344.3,169.1z"/>
						</g>
					</g>
					<g>
						<defs>
							<path id="SVGID_44_" d="M428.6,209.6l-0.7-0.4c-2.4-1.4-2.1-3.8,0.7-5.4l19.7-11.3c2.8-1.6,7-1.8,9.4-0.4l0.7,0.4
								c2.4,1.4,2.1,3.8-0.7,5.4L438,209.2C435.2,210.8,431,211,428.6,209.6z"/>
						</defs>
						<clipPath id="SVGID_45_">
							<use xlink:href="#SVGID_44_"  style="overflow:visible;"/>
						</clipPath>
						<path class="st63" d="M449.6,145.3c-1.2-1.8-1.7-0.5-3.2,1c-2.1,2-4.7,5.2-6.1,9.2c-2.5,7.3-1.6,25.5-0.8,28.1
							c0,0-23.1,3.8-24.7,3.7c-1.6-0.1,2,11.3,2,11.3s36.9-1.2,37.8-1.9c0.9-0.7,1.1-10.2,1-15.7
							C455.6,176.4,455.7,154.9,449.6,145.3z"/>
						<path class="st64" d="M416.8,198.6c0,0,36.9-1.2,37.8-1.9c0.9-0.7,1.1-10.2,1-15.7c-0.1-3.9,0-19-3.3-29.6
							c2.6,9,1.2,40.7,0.1,42.3c-1.2,1.6-36.3,2.5-36.3,2.5l0,0C416.5,197.7,416.8,198.6,416.8,198.6z"/>
					</g>
					<g>
						<radialGradient id="SVGID_46_" cx="402.132" cy="171.3305" r="42.3574" gradientUnits="userSpaceOnUse">
							<stop  offset="0" style="stop-color:#01C8EF"/>
							<stop  offset="0.1378" style="stop-color:#02C3EB"/>
							<stop  offset="0.2992" style="stop-color:#03B5DE"/>
							<stop  offset="0.4723" style="stop-color:#059DCA"/>
							<stop  offset="0.6526" style="stop-color:#097DAE"/>
							<stop  offset="0.754" style="stop-color:#0B679B"/>
							<stop  offset="0.8967" style="stop-color:#0F447D"/>
							<stop  offset="1" style="stop-color:#122865"/>
						</radialGradient>
						<path class="st65" d="M460,194.6L460,194.6c-0.1-0.8-0.6-1.6-1.6-2.2l-0.7-0.4c-2.4-1.4-6.6-1.2-9.4,0.4l-19.7,11.3
							c-1.5,0.9-2.3,1.9-2.3,3l0,0l0,3.4l0,0c0,0.9,0.5,1.7,1.6,2.4l0.7,0.4c2.4,1.4,6.6,1.2,9.4-0.4l19.7-11.3
							c1.4-0.8,2.2-1.9,2.3-2.9l0,0V194.6z"/>
						<radialGradient id="SVGID_47_" cx="423.943" cy="193.2952" r="37.534" gradientUnits="userSpaceOnUse">
							<stop  offset="0" style="stop-color:#01C8EF"/>
							<stop  offset="0.233" style="stop-color:#079ECE"/>
							<stop  offset="0.5936" style="stop-color:#1062A0"/>
							<stop  offset="0.8596" style="stop-color:#153D83"/>
							<stop  offset="1" style="stop-color:#172F78"/>
						</radialGradient>
						<path class="st66" d="M428.6,209.6l-0.7-0.4c-2.4-1.4-2.1-3.8,0.7-5.4l19.7-11.3c2.8-1.6,7-1.8,9.4-0.4l0.7,0.4
							c2.4,1.4,2.1,3.8-0.7,5.4L438,209.2C435.2,210.8,431,211,428.6,209.6z"/>
					</g>
					<g>
						<g>
							
								<radialGradient id="SVGID_48_" cx="1663.076" cy="230.1365" r="134.2274" gradientTransform="matrix(-1 0 0 1 1931.5181 0)" gradientUnits="userSpaceOnUse">
								<stop  offset="0" style="stop-color:#01C8EF"/>
								<stop  offset="8.955892e-02" style="stop-color:#03BEE8"/>
								<stop  offset="0.2387" style="stop-color:#08A5D7"/>
								<stop  offset="0.3294" style="stop-color:#0C92CA"/>
								<stop  offset="0.425" style="stop-color:#107CBC"/>
								<stop  offset="0.4457" style="stop-color:#1177B8"/>
								<stop  offset="1" style="stop-color:#112564"/>
							</radialGradient>
							<path class="st67" d="M260.9,186.6v70c0,1.3,0.4,2.3,1.1,2.7c0.7,0.4,1.7,0.2,2.9-0.4l55.4-32c2.9-1.7,5.3-5.9,5.3-9.2v-70
								h2.8v70c0,4.4-3,9.5-6.7,11.7l-55.4,32c-1.2,0.7-2.3,1-3.4,1c-0.3,0-0.5,0-0.7-0.1l0.3,0.3l-1.3-0.5l0,0
								c-0.2-0.1-0.4-0.2-0.6-0.3c-1.6-0.9-2.5-2.7-2.5-5.1v-70H260.9z"/>
							<g>
								<radialGradient id="SVGID_49_" cx="267.5784" cy="291.6692" r="102.6652" gradientUnits="userSpaceOnUse">
									<stop  offset="0" style="stop-color:#01C8EF"/>
									<stop  offset="8.955892e-02" style="stop-color:#03BEE8"/>
									<stop  offset="0.2387" style="stop-color:#08A5D7"/>
									<stop  offset="0.3294" style="stop-color:#0C92CA"/>
									<stop  offset="0.425" style="stop-color:#107CBC"/>
									<stop  offset="0.4457" style="stop-color:#1177B8"/>
									<stop  offset="1" style="stop-color:#112564"/>
								</radialGradient>
								<path class="st68" d="M264.3,262.9c1.1,0,2.2-0.3,3.4-1l55.4-32c3.8-2.2,6.7-7.3,6.7-11.7v-70h-2.8v70
									c0,3.3-2.4,7.6-5.3,9.2l-55.4,32c-1.1,0.7-2.2,0.8-2.9,0.4c-0.7-0.4-1.1-1.4-1.1-2.7v-70h-2.8v70c0,2.4,0.9,4.2,2.5,5.1
									C262.8,262.7,263.5,262.9,264.3,262.9z"/>
							</g>
						</g>
						<path class="st69" d="M261.6,215.7l126.8,73.2c0,1.2,0,2.5,0,3.7l-126.8-73.2V215.7z"/>
						
							<radialGradient id="SVGID_50_" cx="1661.0574" cy="303.1425" r="137.3661" gradientTransform="matrix(-1 0 0 1 1931.5181 0)" gradientUnits="userSpaceOnUse">
							<stop  offset="0" style="stop-color:#01C8EF"/>
							<stop  offset="8.955892e-02" style="stop-color:#03BEE8"/>
							<stop  offset="0.2387" style="stop-color:#08A5D7"/>
							<stop  offset="0.3294" style="stop-color:#0C92CA"/>
							<stop  offset="0.425" style="stop-color:#107CBC"/>
							<stop  offset="0.4457" style="stop-color:#1177B8"/>
							<stop  offset="1" style="stop-color:#112564"/>
						</radialGradient>
						<path class="st70" d="M260.3,216.4l128,73.9c0,1.2,0,2.5,0,3.7l-128-73.9V216.4z"/>
						<g>
							
								<radialGradient id="SVGID_51_" cx="1547.8762" cy="313.1348" r="114.8812" gradientTransform="matrix(-1 0 0 1 1931.5181 0)" gradientUnits="userSpaceOnUse">
								<stop  offset="0" style="stop-color:#01C8EF"/>
								<stop  offset="8.955892e-02" style="stop-color:#03BEE8"/>
								<stop  offset="0.2387" style="stop-color:#08A5D7"/>
								<stop  offset="0.3294" style="stop-color:#0C92CA"/>
								<stop  offset="0.425" style="stop-color:#107CBC"/>
								<stop  offset="0.4457" style="stop-color:#1177B8"/>
								<stop  offset="1" style="stop-color:#112564"/>
							</radialGradient>
							<path class="st71" d="M389.1,260.9v70c0,1.3,0.4,2.3,1.1,2.7c0.7,0.4,1.7,0.2,2.9-0.4l55.4-32c2.9-1.7,5.3-5.9,5.3-9.2v-70
								h2.8v70c0,4.4-3,9.5-6.7,11.7l-55.4,32c-1.2,0.7-2.3,1-3.4,1c-0.3,0-0.5,0-0.7-0.1l0.3,0.3l-1.3-0.5l0,0
								c-0.2-0.1-0.4-0.2-0.6-0.3c-1.6-0.9-2.5-2.7-2.5-5.1v-70H389.1z"/>
							<g>
								<radialGradient id="SVGID_52_" cx="279.2722" cy="303.3632" r="206.7019" gradientUnits="userSpaceOnUse">
									<stop  offset="0" style="stop-color:#01C8EF"/>
									<stop  offset="8.955892e-02" style="stop-color:#03BEE8"/>
									<stop  offset="0.2387" style="stop-color:#08A5D7"/>
									<stop  offset="0.3294" style="stop-color:#0C92CA"/>
									<stop  offset="0.425" style="stop-color:#107CBC"/>
									<stop  offset="0.4457" style="stop-color:#1177B8"/>
									<stop  offset="1" style="stop-color:#112564"/>
								</radialGradient>
								<path class="st72" d="M392.5,337.1c1.1,0,2.2-0.3,3.4-1l55.4-32c3.8-2.2,6.7-7.3,6.7-11.7v-70h-2.8v70
									c0,3.3-2.4,7.6-5.3,9.2l-55.4,32c-1.1,0.7-2.2,0.8-2.9,0.4c-0.7-0.4-1.1-1.4-1.1-2.7v-70h-2.8v70c0,2.4,0.9,4.2,2.5,5.1
									C391,337,391.7,337.1,392.5,337.1z"/>
							</g>
						</g>
						<g>
							<polygon class="st69" points="239.5,183.3 322.2,135.6 483.3,233.9 400.5,281.7 							"/>
							<radialGradient id="SVGID_53_" cx="188.4957" cy="294.76" r="297.9688" gradientUnits="userSpaceOnUse">
								<stop  offset="0" style="stop-color:#01C8EF"/>
								<stop  offset="8.955892e-02" style="stop-color:#03BEE8"/>
								<stop  offset="0.2387" style="stop-color:#08A5D7"/>
								<stop  offset="0.3294" style="stop-color:#0C92CA"/>
								<stop  offset="0.425" style="stop-color:#107CBC"/>
								<stop  offset="0.4457" style="stop-color:#1177B8"/>
								<stop  offset="1" style="stop-color:#112564"/>
							</radialGradient>
							<path class="st73" d="M484.2,231.8c0-2-1.2-4.3-2.7-5.1L324,135.7c-1.5-0.9-2.7,0.1-2.7,2c0,2,1.2,4.3,2.7,5.1L476.7,231
								l-81.9,47.2l5.7,3.5l82.8-47.7l0,0C483.9,233.6,484.2,232.8,484.2,231.8z"/>
							
								<radialGradient id="SVGID_54_" cx="1715.3541" cy="185.5625" r="236.0641" gradientTransform="matrix(-1 0 0 1 1931.5181 0)" gradientUnits="userSpaceOnUse">
								<stop  offset="0" style="stop-color:#01C8EF"/>
								<stop  offset="8.940536e-02" style="stop-color:#03BEE9"/>
								<stop  offset="0.2388" style="stop-color:#08A5D7"/>
								<stop  offset="0.4288" style="stop-color:#107BBB"/>
								<stop  offset="0.4457" style="stop-color:#1177B8"/>
								<stop  offset="1" style="stop-color:#112564"/>
							</radialGradient>
							<path class="st74" d="M241.1,190.7l157.6,90.9c1.5,0.9,2.7-0.1,2.7-2l0,0c0-2-1.2-4.3-2.7-5.1l-157.6-90.9
								c-1.5-0.9-2.7,0.1-2.7,2l0,0C238.4,187.5,239.6,189.8,241.1,190.7z"/>
							<g>
								
									<radialGradient id="SVGID_55_" cx="1784.1743" cy="252.6279" r="398.7483" gradientTransform="matrix(-1 0 0 1 1931.5181 0)" gradientUnits="userSpaceOnUse">
									<stop  offset="0" style="stop-color:#01C8EF"/>
									<stop  offset="0.1383" style="stop-color:#02C5ED"/>
									<stop  offset="0.2455" style="stop-color:#04BBE6"/>
									<stop  offset="0.3423" style="stop-color:#07ABDB"/>
									<stop  offset="0.4324" style="stop-color:#0B94CB"/>
									<stop  offset="0.515" style="stop-color:#1177B8"/>
									<stop  offset="1" style="stop-color:#172F78"/>
								</radialGradient>
								<path class="st75" d="M399.8,275.3c-0.3-0.4-0.7-0.7-1.1-0.9l-157.6-90.9c-0.6-0.4-1.2-0.4-1.6-0.2l0,0l82.7-47.7l0,0
									c0.5-0.3,1.1-0.3,1.7,0.1l157.6,90.9c0.4,0.2,0.8,0.5,1.1,0.9L399.8,275.3z"/>
							</g>
							<path class="st41" d="M241.6,182.1l157.1,90.6c0.4,0.2,1,0.4,1.3,0.8l81.4-47l0.2,0.1c0.4,0.2,0.8,0.5,1.1,0.9l-82.8,47.8
								c-0.3-0.4-0.7-0.7-1.1-0.9l-157.6-90.9c-0.6-0.4-1.2-0.4-1.6-0.2l0,0L241.6,182.1z"/>
						</g>
					</g>
					<path class="st42" d="M433.3,198.8l-18.3,2l-1.6-1.5c0,0-8.4,1.3-10.6,0.5c-2.2-0.8-6-0.3-6-0.3v-3l13.4-1.8l12.8,0.8l9.1,2.6
						L433.3,198.8z"/>
					<path class="st56" d="M414.9,187.9c0-0.1-0.1-0.2-0.2-0.2c-1.2,0-8.9-0.3-11.8-1.3c-3.2-1.1-6.5-0.9-6.7-0.7
						c-0.2,0.2-5.4,2.4-5.7,3.3c-0.3,0.8-0.8,3.6-0.1,4.6s1,1.7,1,1.7l0.5,0.1c0,0,0.7,1.4,1.1,1.9c0.2,0.2,0.3,0.5,0.4,0.7
						c0.3,0.7,0.9,1.9,1.2,1.9c0.3,0,2,0.4,2.4,0.3c0.3-0.1,0.6-1.1,0.5-1.6c0-0.1,0-0.2,0.2-0.3c0.7-0.1,2.8-0.4,5.6-0.1
						c3.4,0.3,8.2-1.9,8.7-2.1c0,0,0,0,0.1,0l4.8-0.4c0.1,0,0.2-0.1,0.2-0.3L414.9,187.9z"/>
					<radialGradient id="SVGID_56_" cx="297.0644" cy="84.3745" r="159.3339" gradientUnits="userSpaceOnUse">
						<stop  offset="0" style="stop-color:#01C8EF"/>
						<stop  offset="0.1378" style="stop-color:#02C3EB"/>
						<stop  offset="0.2992" style="stop-color:#03B5DE"/>
						<stop  offset="0.4723" style="stop-color:#059DCA"/>
						<stop  offset="0.6526" style="stop-color:#097DAE"/>
						<stop  offset="0.754" style="stop-color:#0B679B"/>
						<stop  offset="0.8967" style="stop-color:#0F447D"/>
						<stop  offset="1" style="stop-color:#122865"/>
					</radialGradient>
					<path class="st76" d="M449.6,145.3c-1.2-1.8-1.7-0.5-3.2,1c-2.1,2-4.7,5.2-6.1,9.2c-2.5,7.3-1.6,25.5-0.8,28.1
						c0,0-23.1,3.8-24.7,3.7c-1.6-0.1,2,11.3,2,11.3s36.9-1.2,37.8-1.9c0.9-0.7,1.1-10.2,1-15.7
						C455.6,176.4,455.7,154.9,449.6,145.3z"/>
					<path class="st42" d="M350.7,179.7c0,0,13.2-10.3,15.1-11.3c1.9-1,6.8-4.7,6.8-4.7l-5.2-3l-10.8,6.5l-9.4,9.3l-14.5,10.3v2.4
						c0,0,11.9-5.1,13.3-6C347.3,182.3,350.7,179.7,350.7,179.7z"/>
					<path class="st77" d="M342.8,189.1c0,0,2.8-2.5,4.6-3.3c1.8-0.8,4.7-3.1,5.1-4.8c0.4-1.7,3.4-5.5,3.4-5.5l-4.8,2.8l-7,4
						l-11.6,6.7c0,0,0.7,0.8,2.2,0.3c1.5-0.5,4.2-2.3,5.5-2.4c1.3-0.2,3.4-0.6,3.4-0.6L342.8,189.1z"/>
					<path class="st56" d="M344.3,169.1c0,0-0.1,0.9-1.7,1.8c-1.6,0.9-5.7,2.9-6.4,3.5c-0.7,0.6-3.6,3.2-3.7,3.5
						c-0.1,0.3-1,3.3-1,3.5c0,0.2,0.3,1.5,0.3,1.5l-0.9,4.3c0,0-1.2,1.7,0.1,2.1c1.3,0.5,2-0.8,2-1c0,0,1.9-0.9,3.3-2
						c1.4-1.1,7-5.6,7.9-5.3c1,0.3,0.1,1.9-0.4,2.2c-0.5,0.3-3.4,3.2-2.2,5.2c1.2,2,2.1-1.1,2.9-1.8c0.8-0.6,2.6-3.2,3.7-3.5
						c1.1-0.3,3.1-4.4,3.3-6.2c0.3-1.8,1.6-3,2-3.6c0.5-0.6-1-5.1-1-5.1l-5.5-1.7l-1.9,1.3L344.3,169.1z"/>
					<g>
						<linearGradient id="SVGID_57_" gradientUnits="userSpaceOnUse" x1="398.4858" y1="112.4938" x2="350.3104" y2="184.863">
							<stop  offset="0" style="stop-color:#01C8EF"/>
							<stop  offset="0.4589" style="stop-color:#0C7BB3"/>
							<stop  offset="0.8239" style="stop-color:#144489"/>
							<stop  offset="1" style="stop-color:#172F78"/>
						</linearGradient>
						<path class="st78" d="M394.4,138.7c0,0-0.2-8.3,1.2-14.6c-0.4,0.3-0.8,0.6-1.1,1c-2,2.1-4.8,4.7-7.5,6.1
							c-5,2.7-19.9,11-19.9,11l-2.8,2.2c-8.8,6.9-18.6,21.8-20,24.8c0.7-0.9,2.4-2.4,5.8-0.6c4.7,2.5,2.4,6.2,2.4,6.2
							c6.8-4.9,22.9-22.7,22.9-22.7c4-0.8,15.9-5.3,17.4-5.9C393.8,143.6,394.4,141.1,394.4,138.7z"/>
					</g>
				</g>
				<g>
					<path class="st42" d="M415.4,239.3l-36.2-11.5l26.3-15.2c0.4-0.3,0.4-0.7-0.1-1l-52.1-30.1c-0.5-0.3-1.3-0.3-1.7-0.1
						l-27.6,15.9c-0.4,0.3-0.4,0.7,0.1,1l52.1,30.1c0.4,0.2,1,0.3,1.4,0.2l0,0l37.5,11.9c0.3,0.1,0.7-0.1,0.8-0.4
						C415.9,239.8,415.7,239.4,415.4,239.3z"/>
					<g>
						<g>
							<g>
								<g>
									<g>
										<g>
											
												<linearGradient id="SVGID_58_" gradientUnits="userSpaceOnUse" x1="347.3654" y1="204.5719" x2="429.431" y2="204.5719" gradientTransform="matrix(-1 0 0 1 751.4042 0)">
												<stop  offset="0" style="stop-color:#B6246E"/>
												<stop  offset="1" style="stop-color:#F9636B"/>
											</linearGradient>
											<path class="st79" d="M322,195l2.5,1.3l25.6-14.8c0.4-0.2,1.2-0.2,1.7,0.1l49.9,28.8c0.4-0.2,2.3-1.2,2.3-1.2l-0.9,2.4
												l0,0c0,0.1-0.1,0.2-0.3,0.3l-26.9,15.5c-0.4,0.2-1.2,0.2-1.7-0.1l-51-29.4c-0.2-0.1-0.3-0.3-0.4-0.4l0,0L322,195z"/>
											
												<radialGradient id="SVGID_59_" cx="385.3407" cy="205.638" r="33.5184" gradientTransform="matrix(-1 0 0 1 751.4042 0)" gradientUnits="userSpaceOnUse">
												<stop  offset="0" style="stop-color:#B6246E"/>
												<stop  offset="1" style="stop-color:#F9636B"/>
											</radialGradient>
											<path class="st80" d="M322.4,195.4l52.1,30.1c0.5,0.3,1.3,0.3,1.7,0.1l27.6-15.9c0.4-0.3,0.4-0.7-0.1-1l-52.1-30.1
												c-0.5-0.3-1.3-0.3-1.7-0.1l-27.6,15.9C321.8,194.7,321.9,195.1,322.4,195.4z"/>
											<g>
												<g>
													<polygon class="st81" points="338.4,191.8 375.6,213.2 377.1,212.4 339.9,190.9 													"/>
													<polygon class="st42" points="336.1,193.2 378.8,217.8 380.3,217 337.5,192.3 													"/>
													<polygon class="st42" points="333.7,194.5 376.4,219.2 377.9,218.3 335.2,193.7 													"/>
													<polygon class="st81" points="331.3,195.9 374,220.6 375.5,219.7 332.8,195.1 													"/>
													<polygon class="st42" points="385.1,212.8 343.6,188.8 342.1,189.7 383.3,213.5 384.8,214.4 386.3,213.5 													
														"/>
													<polygon class="st42" points="373.8,212.2 381.2,216.5 382.6,215.6 375.2,211.3 													"/>
												</g>
											</g>
										</g>
									</g>
								</g>
							</g>
						</g>
						<g>
							
								<radialGradient id="SVGID_60_" cx="428.2063" cy="153.9094" r="79.3202" gradientTransform="matrix(-1 0 0 1 751.4042 0)" gradientUnits="userSpaceOnUse">
								<stop  offset="0" style="stop-color:#F9636B"/>
								<stop  offset="1" style="stop-color:#B6246E"/>
							</radialGradient>
							<path class="st82" d="M322,194.3l5.8-34.7l-0.5-0.2l0.7-0.4l0,0c0.1-0.1,0.3-0.1,0.5,0l52.6,30.3c0.4,0.2,0.7,0.8,0.6,1.2
								l-5.9,35c0,0.2-0.1,0.3-0.2,0.4l0,0l-0.7,0.4l-0.1-0.6l0,0l-52.3-30.2C322.3,195.3,322,194.7,322,194.3z"/>
							
								<radialGradient id="SVGID_61_" cx="336.4055" cy="219.4737" r="13.2425" gradientTransform="matrix(-1 0 0 1 751.4042 0)" gradientUnits="userSpaceOnUse">
								<stop  offset="0" style="stop-color:#F9636B"/>
								<stop  offset="1" style="stop-color:#B6246E"/>
							</radialGradient>
							<path class="st83" d="M381,190.4l0.8-0.3c0.1,0.2,0.1,0.4,0.1,0.6l-5.9,35c0,0.2-0.1,0.3-0.2,0.4l0,0l-0.7,0.4l-0.1-0.6l0,0
								l-2.3-1.4L381,190.4z"/>
							<radialGradient id="SVGID_62_" cx="305.3808" cy="176.773" r="68.8346" gradientUnits="userSpaceOnUse">
								<stop  offset="0" style="stop-color:#F9636B"/>
								<stop  offset="1" style="stop-color:#B6246E"/>
							</radialGradient>
							<path class="st84" d="M321.9,195.9l52.6,30.3c0.4,0.2,0.7,0.1,0.7-0.3l5.9-35c0.1-0.4-0.2-1-0.6-1.2l-52.6-30.3
								c-0.4-0.2-0.7-0.1-0.7,0.3l-5.9,35C321.2,195.1,321.5,195.7,321.9,195.9z"/>
						</g>
					</g>
				</g>
			</g>
		</g>
		<path class="st85" d="M429.2,117.1c0,0,2.2-4.9,1.4-10.5c-0.2,2-1.1,2.6-1.1,2.6l-10,9c0,0,0.1,0.1,0.1,0.1l2.1,0.9l0.4,2.5
			c0.1,0.7,0.9,1.2,1.6,0.9l0.5-0.2C424.3,122.4,424.7,116.8,429.2,117.1z"/>
	</g>
</g>
<g>
	<g>
		<path class="st32" d="M293.3,189.1c-3.7,0-7.4-0.8-10.2-2.4c-2.8-1.6-4.3-3.7-4.3-6s1.5-4.4,4.3-6c5.6-3.2,14.8-3.2,20.4,0
			c2.8,1.6,4.3,3.7,4.3,6s-1.5,4.4-4.3,6l0,0C300.6,188.3,297,189.1,293.3,189.1z M293.3,172.6c-3.6,0-7.2,0.8-10,2.4
			c-2.6,1.5-4,3.5-4,5.6c0,2.1,1.4,4.1,4,5.6c5.5,3.2,14.4,3.2,19.9,0c2.6-1.5,4-3.5,4-5.6c0-2.1-1.4-4.1-4-5.6
			C300.5,173.4,296.9,172.6,293.3,172.6z"/>
		<path class="st38" d="M293.3,180.9c-3.7,0-7.4-0.8-10.2-2.4c-2.8-1.6-4.3-3.8-4.3-6.1s1.5-4.4,4.3-6.1c5.6-3.3,14.8-3.3,20.4,0
			c2.8,1.6,4.3,3.8,4.3,6.1c0,2.3-1.5,4.4-4.3,6.1l0,0C300.7,180,297,180.9,293.3,180.9z M293.3,164.4c-3.6,0-7.2,0.8-9.9,2.4
			c-2.6,1.5-4,3.5-4,5.6c0,2.1,1.4,4.1,4,5.6c5.5,3.2,14.4,3.2,19.9,0c2.6-1.5,4-3.5,4-5.6c0-2.1-1.4-4.1-4-5.6
			C300.5,165.2,296.9,164.4,293.3,164.4z"/>
		<path class="st38" d="M309.8,126.7h-33.1l3.1,35.8l0,0c0,2,1.3,4,3.9,5.5c5.3,3,13.8,3,19,0c2.6-1.5,3.9-3.5,3.9-5.5L309.8,126.7z
			"/>
		<path class="st86" d="M309.8,126.7h-33.1l0.5,5.9c0.8,1,1.8,1.9,3.1,2.8c6.3,4.2,16.8,5,23.9,2l-1.1,26.2c0,1.1-0.4,2.3-1.2,3.1
			c-1.1,1.3-3.1,2.7-7.1,3.6c2.9-0.2,5.8-0.9,8-2.2c2.6-1.5,3.9-3.5,3.9-5.5l2.5-28.7l0,0L309.8,126.7z"/>
		<ellipse class="st42" cx="293.3" cy="126.7" rx="16.5" ry="9.6"/>
		<ellipse class="st42" cx="293.3" cy="123.3" rx="14.3" ry="8.2"/>
		<linearGradient id="SVGID_63_" gradientUnits="userSpaceOnUse" x1="304.7777" y1="128.169" x2="270.8927" y2="119.0706">
			<stop  offset="0" style="stop-color:#B6246E"/>
			<stop  offset="1" style="stop-color:#F9636B"/>
		</linearGradient>
		<path class="st87" d="M310.8,126.2L310.8,126.2L310.8,126.2C310.8,126.2,310.8,126.1,310.8,126.2l-0.3-3.3l0,0
			c-0.1-2.4-1.8-4.8-5-6.7c-6.7-3.9-17.6-3.9-24.3,0c-3.3,1.9-5,4.4-5,6.9l0,0l-0.3,2.9c0,0.1,0,0.1,0,0.2l0,0l0,0
			c-0.2,2.7,1.5,5.5,5.1,7.6c6.9,4,18,4,24.8,0C309.3,131.7,311,128.9,310.8,126.2z"/>
		<radialGradient id="SVGID_64_" cx="304.4755" cy="129.8212" r="25.242" gradientUnits="userSpaceOnUse">
			<stop  offset="0" style="stop-color:#F9636B"/>
			<stop  offset="1" style="stop-color:#B6246E"/>
		</radialGradient>
		<path class="st88" d="M303.3,129.3c-5.6,3.2-14.6,3.2-20.2,0c-5.6-3.2-5.6-8.4,0-11.6c5.6-3.2,14.6-3.2,20.2,0
			C308.9,120.8,308.9,126.1,303.3,129.3z"/>
		<path class="st42" d="M284.9,118.7c5.6-3.2,14.6-3.2,20.2,0c0.1,0,0.1,0.1,0.2,0.1c-0.5-0.5-1.2-0.9-1.9-1.4
			c-5.6-3.2-14.6-3.2-20.2,0c-5.5,3.2-5.6,8.3-0.2,11.5C279.4,125.8,280,121.5,284.9,118.7z"/>
		<linearGradient id="SVGID_65_" gradientUnits="userSpaceOnUse" x1="279.7312" y1="119.5264" x2="315.6701" y2="119.5264">
			<stop  offset="0" style="stop-color:#A31C5A"/>
			<stop  offset="1" style="stop-color:#F9636B"/>
		</linearGradient>
		<path class="st89" d="M283.2,118.9c5.6-3.2,14.6-3.2,20.2,0c2.5,1.4,3.8,3.2,4.1,5.1c0.4-2.3-1-4.7-4.1-6.5
			c-5.6-3.2-14.6-3.2-20.2,0c-3.1,1.8-4.5,4.2-4.1,6.5C279.3,122.1,280.7,120.3,283.2,118.9z"/>
		<linearGradient id="SVGID_66_" gradientUnits="userSpaceOnUse" x1="309.1602" y1="125.7374" x2="275.0317" y2="120.4701">
			<stop  offset="0" style="stop-color:#B6246E"/>
			<stop  offset="1" style="stop-color:#F9636B"/>
		</linearGradient>
		<path class="st90" d="M305.5,116.3c-6.7-4-17.6-4-24.4-0.2c-6.8,3.8-6.8,10.1-0.1,14.1c6.7,4,17.6,4,24.4,0.2
			S312.2,120.3,305.5,116.3z M303.3,129.1c-1.9,1.1-4.1,1.8-6.5,2.1l-0.3-0.9c-0.1-0.3-0.4-0.6-0.8-0.6h-5.1c-0.4,0-0.7,0.2-0.8,0.6
			l-0.3,0.8c-2.4-0.4-4.6-1.1-6.5-2.1c-5.6-3.2-5.6-8.4,0-11.6c5.6-3.2,14.6-3.2,20.2,0C308.9,120.7,308.9,125.9,303.3,129.1z"/>
		<path class="st91" d="M294.8,131.7h-3.1c-0.2,0-0.4-0.2-0.4-0.4v-0.1c0-0.2,0.2-0.4,0.4-0.4h3.1c0.2,0,0.4,0.2,0.4,0.4v0.1
			C295.2,131.5,295,131.7,294.8,131.7z"/>
		<path class="st92" d="M294.8,130.9h-3.1c-0.2,0-0.4,0.2-0.4,0.4v0.1c0,0,0,0.1,0,0.1c0-0.2,0.2-0.3,0.4-0.3h3.1
			c0.2,0,0.3,0.1,0.4,0.3c0,0,0-0.1,0-0.1v-0.1C295.2,131,295,130.9,294.8,130.9z"/>
	</g>
	<g>
		<path class="st93" d="M294.4,131.4c0,0,11.4-3.8,6.8-17c-4.6-13.1-13.6-17.1-10-27.7c0,0-5.7,8.5-0.4,20
			c5.3,11.5,6.5,10.2,6.4,15.7c-0.1,6.5-5.4,8.9-5.4,8.9H294.4z"/>
		<path class="st93" d="M295.4,87c0,0-1.2-8.2,6.4-16.4c0,0-6.8,15.1-4.5,22.6C297.3,93.2,295.5,88.5,295.4,87z"/>
	</g>
</g>
<g>
	<path class="st38" d="M479.6,367.2c-2.1,0-4.1-0.5-5.7-1.4l-38.5-22.2c-1.6-0.9-2.5-2.2-2.5-3.5c0-1.3,0.9-2.6,2.5-3.5l38.3-22.3
		c3.2-1.8,8.3-1.8,11.5,0l38.5,22.2c1.6,0.9,2.5,2.2,2.5,3.5c0,1.3-0.9,2.6-2.5,3.5l-38.3,22.3C483.8,366.7,481.7,367.2,479.6,367.2
		z M479.4,313.6c-1.9,0-3.9,0.4-5.4,1.3l-38.3,22.3c-1.4,0.8-2.1,1.8-2.1,2.9c0,1.1,0.8,2.1,2.1,2.9l38.5,22.2c3,1.7,7.8,1.7,10.7,0
		l38.3-22.3c1.4-0.8,2.1-1.8,2.1-2.9c0-1.1-0.8-2.1-2.1-2.9l-38.5-22.2C483.3,314,481.3,313.6,479.4,313.6z"/>
	<g>
		<linearGradient id="SVGID_67_" gradientUnits="userSpaceOnUse" x1="427.8861" y1="327.8895" x2="493.1096" y2="327.8895">
			<stop  offset="0" style="stop-color:#01C8EF"/>
			<stop  offset="0.1297" style="stop-color:#04B1DD"/>
			<stop  offset="0.5466" style="stop-color:#0E6BA7"/>
			<stop  offset="0.8476" style="stop-color:#154085"/>
			<stop  offset="1" style="stop-color:#172F78"/>
		</linearGradient>
		<path class="st94" d="M525.9,327.9L525.9,327.9l0-18.5l-23.3,3.1l-17.5-10.1c-3.1-1.8-8-1.8-11.1,0l-2.7,1.7l-37.9,5.1v18.7
			c0,0,0,0,0,0v0.1l0,0c0,1.1,0.8,2.2,2.3,3.1l38.5,22.2c3.1,1.8,8,1.8,11.1,0l38.3-22.3c1.5-0.9,2.2-2,2.3-3.1l0,0V327.9z"/>
		<radialGradient id="SVGID_68_" cx="416.3206" cy="278.981" r="145.6572" gradientUnits="userSpaceOnUse">
			<stop  offset="0" style="stop-color:#01C8EF"/>
			<stop  offset="0.1396" style="stop-color:#03BAE4"/>
			<stop  offset="0.4033" style="stop-color:#0895C8"/>
			<stop  offset="0.76" style="stop-color:#115A9A"/>
			<stop  offset="1" style="stop-color:#172F78"/>
		</radialGradient>
		<path class="st95" d="M523.6,306.1l-38.5-22.2c-3.1-1.8-8-1.8-11.1,0l-38.3,22.3c-3.1,1.8-3.1,4.6,0,6.4l38.5,22.2
			c3.1,1.8,8,1.8,11.1,0l38.3-22.3C526.7,310.7,526.7,307.8,523.6,306.1z"/>
		<path class="st41" d="M523.6,311.4l-38.3,22.3c-3.1,1.8-8,1.8-11.1,0l-38.5-22.2c-1.3-0.7-2-1.7-2.2-2.6c-0.3,1.3,0.5,2.7,2.2,3.8
			l38.5,22.2c3.1,1.8,8,1.8,11.1,0l38.3-22.3c1.8-1,2.5-2.4,2.2-3.8C525.7,309.7,524.9,310.6,523.6,311.4z"/>
		<g>
			<polygon class="st41" points="490.5,339.7 488.7,340.7 488.7,338.6 490.5,337.6 			"/>
			<polygon class="st41" points="494.3,337.5 492.5,338.5 492.5,336.4 494.3,335.4 			"/>
			<polygon class="st41" points="498.1,335.3 496.3,336.3 496.3,334.2 498.1,333.2 			"/>
			<polygon class="st41" points="495,341.3 493.2,342.4 493.2,340.3 495,339.2 			"/>
			<polygon class="st41" points="498.4,339.4 496.6,340.4 496.6,338.3 498.4,337.3 			"/>
			<polygon class="st41" points="510.4,328.2 508.6,329.3 508.6,327.2 510.4,326.1 			"/>
			<polygon class="st41" points="520.9,322.1 519.1,323.2 519.1,321.1 520.9,320 			"/>
			<polygon class="st41" points="502,333.1 500.1,334.1 500.1,332 502,331 			"/>
		</g>
	</g>
	<path class="st42" d="M477.5,325.4l-25.9-15c-1.1-0.6-0.9-1.7,0.3-2.4l25.3-14.6c1.2-0.7,3.1-0.8,4.1-0.2l25.9,15
		c1.1,0.6,0.9,1.7-0.3,2.4l-25.3,14.6C480.4,325.9,478.6,326,477.5,325.4z"/>
	<path class="st41" d="M467.3,341.5l-21.4-12.3c-0.5-0.3-0.9-1.1-0.9-1.8v-1.6c0-0.7,0.4-1,0.9-0.7l21.4,12.3
		c0.5,0.3,0.9,1.1,0.9,1.8v1.6C468.2,341.5,467.8,341.8,467.3,341.5z"/>
	<g>
		<linearGradient id="SVGID_69_" gradientUnits="userSpaceOnUse" x1="427.8861" y1="293.2566" x2="493.1096" y2="293.2566">
			<stop  offset="0" style="stop-color:#01C8EF"/>
			<stop  offset="0.1297" style="stop-color:#04B1DD"/>
			<stop  offset="0.5466" style="stop-color:#0E6BA7"/>
			<stop  offset="0.8476" style="stop-color:#154085"/>
			<stop  offset="1" style="stop-color:#172F78"/>
		</linearGradient>
		<path class="st96" d="M525.9,293.2L525.9,293.2l0-18.5l-23.3,3.1l-17.5-10.1c-3.1-1.8-8-1.8-11.1,0l-2.7,1.7l-37.9,5.1v18.7
			c0,0,0,0,0,0v0.1l0,0c0,1.1,0.8,2.2,2.3,3.1l38.5,22.2c3.1,1.8,8,1.8,11.1,0l38.3-22.3c1.5-0.9,2.2-2,2.3-3.1l0,0V293.2z"/>
		<radialGradient id="SVGID_70_" cx="416.3206" cy="244.348" r="145.6572" gradientUnits="userSpaceOnUse">
			<stop  offset="0" style="stop-color:#01C8EF"/>
			<stop  offset="0.1396" style="stop-color:#03BAE4"/>
			<stop  offset="0.4033" style="stop-color:#0895C8"/>
			<stop  offset="0.76" style="stop-color:#115A9A"/>
			<stop  offset="1" style="stop-color:#172F78"/>
		</radialGradient>
		<path class="st97" d="M523.6,271.4l-38.5-22.2c-3.1-1.8-8-1.8-11.1,0l-38.3,22.3c-3.1,1.8-3.1,4.6,0,6.4l38.5,22.2
			c3.1,1.8,8,1.8,11.1,0l38.3-22.3C526.7,276.1,526.7,273.2,523.6,271.4z"/>
		<path class="st42" d="M505.3,272.8l-22.4-13c-1.8-1-4.7-1-6.5,0l-22.3,13c-1.8,1-1.8,2.7,0,3.7l22.4,13c1.8,1,4.7,1,6.5,0l22.3-13
			C507.1,275.5,507.1,273.8,505.3,272.8z"/>
		<path class="st41" d="M523.6,276.7L485.3,299c-3.1,1.8-8,1.8-11.1,0l-38.5-22.2c-1.3-0.7-2-1.7-2.2-2.6c-0.3,1.3,0.5,2.7,2.2,3.8
			l38.5,22.2c3.1,1.8,8,1.8,11.1,0l38.3-22.3c1.8-1,2.5-2.4,2.2-3.8C525.7,275,524.9,276,523.6,276.7z"/>
		<g>
			<polygon class="st41" points="490.5,305 488.7,306.1 488.7,304 490.5,302.9 			"/>
			<polygon class="st41" points="494.3,302.8 492.5,303.9 492.5,301.8 494.3,300.7 			"/>
			<polygon class="st41" points="498.1,300.6 496.3,301.7 496.3,299.6 498.1,298.5 			"/>
			<polygon class="st41" points="495,306.7 493.2,307.8 493.2,305.6 495,304.6 			"/>
			<polygon class="st41" points="498.4,304.8 496.6,305.8 496.6,303.7 498.4,302.7 			"/>
			<polygon class="st41" points="510.4,293.6 508.6,294.6 508.6,292.5 510.4,291.5 			"/>
			<polygon class="st41" points="520.9,287.5 519.1,288.6 519.1,286.5 520.9,285.4 			"/>
			<polygon class="st41" points="502,298.4 500.1,299.5 500.1,297.4 502,296.3 			"/>
		</g>
	</g>
	<g>
		<linearGradient id="SVGID_71_" gradientUnits="userSpaceOnUse" x1="427.8861" y1="258.6236" x2="493.1096" y2="258.6236">
			<stop  offset="0" style="stop-color:#01C8EF"/>
			<stop  offset="0.1297" style="stop-color:#04B1DD"/>
			<stop  offset="0.5466" style="stop-color:#0E6BA7"/>
			<stop  offset="0.8476" style="stop-color:#154085"/>
			<stop  offset="1" style="stop-color:#172F78"/>
		</linearGradient>
		<path class="st98" d="M525.9,258.6L525.9,258.6l0-18.5l-23.3,3.1l-17.5-10.1c-3.1-1.8-8-1.8-11.1,0l-2.7,1.7l-37.9,5.1v18.7
			c0,0,0,0,0,0v0.1l0,0c0,1.1,0.8,2.2,2.3,3.1l38.5,22.2c3.1,1.8,8,1.8,11.1,0l38.3-22.3c1.5-0.9,2.2-2,2.3-3.1l0,0V258.6z"/>
		<radialGradient id="SVGID_72_" cx="416.3206" cy="209.7151" r="145.6572" gradientUnits="userSpaceOnUse">
			<stop  offset="0" style="stop-color:#01C8EF"/>
			<stop  offset="0.1396" style="stop-color:#03BAE4"/>
			<stop  offset="0.4033" style="stop-color:#0895C8"/>
			<stop  offset="0.76" style="stop-color:#115A9A"/>
			<stop  offset="1" style="stop-color:#172F78"/>
		</radialGradient>
		<path class="st99" d="M523.6,236.8l-38.5-22.2c-3.1-1.8-8-1.8-11.1,0l-38.3,22.3c-3.1,1.8-3.1,4.6,0,6.4l38.5,22.2
			c3.1,1.8,8,1.8,11.1,0l38.3-22.3C526.7,241.4,526.7,238.6,523.6,236.8z"/>
		<path class="st41" d="M523.6,242.1l-38.3,22.3c-3.1,1.8-8,1.8-11.1,0l-38.5-22.2c-1.3-0.7-2-1.7-2.2-2.6c-0.3,1.3,0.5,2.7,2.2,3.8
			l38.5,22.2c3.1,1.8,8,1.8,11.1,0l38.3-22.3c1.8-1,2.5-2.4,2.2-3.8C525.7,240.4,524.9,241.3,523.6,242.1z"/>
		<g>
			<polygon class="st41" points="490.5,270.4 488.7,271.5 488.7,269.4 490.5,268.3 			"/>
			<polygon class="st41" points="494.3,268.2 492.5,269.3 492.5,267.2 494.3,266.1 			"/>
			<polygon class="st41" points="498.1,266 496.3,267.1 496.3,265 498.1,263.9 			"/>
			<polygon class="st41" points="495,272.1 493.2,273.1 493.2,271 495,270 			"/>
			<polygon class="st41" points="498.4,270.1 496.6,271.2 496.6,269.1 498.4,268 			"/>
			<polygon class="st41" points="510.4,258.9 508.6,260 508.6,257.9 510.4,256.8 			"/>
			<polygon class="st41" points="520.9,252.9 519.1,253.9 519.1,251.8 520.9,250.8 			"/>
			<polygon class="st41" points="502,263.8 500.1,264.9 500.1,262.7 502,261.7 			"/>
		</g>
	</g>
	<path class="st41" d="M467.3,307.7l-21.4-12.3c-0.5-0.3-0.9-1.1-0.9-1.8V292c0-0.7,0.4-1,0.9-0.7l21.4,12.3
		c0.5,0.3,0.9,1.1,0.9,1.8v1.6C468.2,307.7,467.8,308,467.3,307.7z"/>
	<path class="st41" d="M467.3,273.8l-21.4-12.3c-0.5-0.3-0.9-1.1-0.9-1.8v-1.6c0-0.7,0.4-1,0.9-0.7l21.4,12.3
		c0.5,0.3,0.9,1.1,0.9,1.8v1.6C468.2,273.8,467.8,274.1,467.3,273.8z"/>
</g>
</svg>
