<?xml version="1.0" encoding="utf-8"?>
<!-- Generator: Adobe Illustrator 24.1.1, SVG Export Plug-In . SVG Version: 6.00 Build 0)  -->
<svg version="1.1" xmlns="http://www.w3.org/2000/svg" xmlns:xlink="http://www.w3.org/1999/xlink" x="0px" y="0px"
	 viewBox="0 0 750 500" style="enable-background:new 0 0 750 500;" xml:space="preserve">
<style type="text/css">
	.st0{fill:#F2F2F2;}
	.st1{clip-path:url(#XMLID_191_);}
	.st2{fill:none;stroke:#FFFFFF;stroke-width:1.1533;stroke-linecap:round;stroke-linejoin:round;stroke-miterlimit:10;}
	.st3{clip-path:url(#XMLID_191_);fill:none;stroke:#FFFFFF;stroke-width:2;stroke-miterlimit:10;}
	.st4{fill:#FFFFFF;}
	.st5{clip-path:url(#XMLID_192_);}
	.st6{fill:#FFAF00;}
	.st7{fill:none;stroke:#000000;stroke-width:2.5152;stroke-miterlimit:10;}
	.st8{fill:none;stroke:#010101;stroke-width:2;stroke-linecap:round;stroke-linejoin:round;stroke-miterlimit:10;}
	.st9{fill:none;stroke:#010101;stroke-width:1.6547;stroke-linecap:round;stroke-linejoin:round;stroke-miterlimit:10;}
	.st10{fill:none;stroke:#FFAF00;stroke-width:1.6547;stroke-linecap:round;stroke-linejoin:round;stroke-miterlimit:10;}
	.st11{fill:none;stroke:#010101;stroke-width:1.1533;stroke-linecap:round;stroke-linejoin:round;stroke-miterlimit:10;}
	.st12{fill:none;stroke:#FFAF00;stroke-width:1.1533;stroke-linecap:round;stroke-linejoin:round;stroke-miterlimit:10;}
	.st13{fill:none;stroke:#FFAF00;stroke-width:1.7707;stroke-miterlimit:10;}
	.st14{fill:#010101;}
	.st15{fill:none;stroke:#FFAF00;stroke-width:2;stroke-miterlimit:10;}
	.st16{fill:none;stroke:#FFAF00;stroke-width:2;stroke-linecap:round;stroke-linejoin:round;stroke-miterlimit:10;}
	.st17{fill:none;stroke:#010101;stroke-width:3;stroke-linecap:round;stroke-linejoin:round;stroke-miterlimit:10;}
	.st18{fill:none;stroke:#FFAF00;stroke-width:2.3747;stroke-miterlimit:10;}
	.st19{fill:none;stroke:#FFAF00;stroke-width:1.6628;stroke-miterlimit:10;}
	.st20{fill:none;stroke:#010101;stroke-width:2;stroke-miterlimit:10;}
	.st21{fill:none;stroke:#FFAF00;stroke-width:1.7064;stroke-miterlimit:10;}
	
		.st22{clip-path:url(#XMLID_192_);fill:none;stroke:#010101;stroke-width:2;stroke-linecap:round;stroke-linejoin:round;stroke-miterlimit:10;}
	
		.st23{clip-path:url(#XMLID_192_);fill:none;stroke:#FFAF00;stroke-width:2;stroke-linecap:round;stroke-linejoin:round;stroke-miterlimit:10;}
	.st24{fill:none;stroke:#FFAF00;stroke-linecap:round;stroke-linejoin:round;stroke-miterlimit:10;}
	.st25{fill:none;stroke:#FFAF00;stroke-width:6;stroke-linecap:round;stroke-linejoin:round;stroke-miterlimit:10;}
	.st26{fill:none;stroke:#FFAF00;stroke-width:6;stroke-miterlimit:10;}
	
		.st27{clip-path:url(#XMLID_192_);fill:none;stroke:#FFAF00;stroke-width:15;stroke-linecap:round;stroke-linejoin:round;stroke-miterlimit:10;}
	
		.st28{clip-path:url(#XMLID_192_);fill:none;stroke:#010101;stroke-width:15;stroke-linecap:round;stroke-linejoin:round;stroke-miterlimit:10;}
	.st29{fill:none;stroke:#010101;stroke-width:2.5624;stroke-miterlimit:10;}
	
		.st30{clip-path:url(#XMLID_192_);fill:none;stroke:#FFAF00;stroke-width:10;stroke-linecap:round;stroke-linejoin:round;stroke-miterlimit:10;}
	
		.st31{clip-path:url(#XMLID_192_);fill:none;stroke:#010101;stroke-width:8;stroke-linecap:round;stroke-linejoin:round;stroke-miterlimit:10;}
	
		.st32{clip-path:url(#XMLID_192_);fill:none;stroke:#010101;stroke-width:4;stroke-linecap:round;stroke-linejoin:round;stroke-miterlimit:10;}
	.st33{fill:none;stroke:#010101;stroke-width:2.2857;stroke-linecap:round;stroke-linejoin:round;stroke-miterlimit:10;}
</style>
<g id="BACKGROUND">
	<rect id="XMLID_449_" class="st0" width="750" height="500"/>
</g>
<g id="OBJECTS">
	<g>
		<g id="XMLID_650_">
			<defs>
				<rect id="XMLID_459_" width="750" height="500"/>
			</defs>
			<clipPath id="XMLID_191_">
				<use xlink:href="#XMLID_459_"  style="overflow:visible;"/>
			</clipPath>
			<g id="XMLID_504_" class="st1">
				<line id="XMLID_526_" class="st2" x1="608.8" y1="133.4" x2="612.9" y2="137.5"/>
				<line id="XMLID_525_" class="st2" x1="594.6" y1="119.2" x2="602.2" y2="126.8"/>
				<line id="XMLID_524_" class="st2" x1="607.5" y1="120.1" x2="636.1" y2="148.7"/>
				<line id="XMLID_523_" class="st2" x1="592.9" y1="105.5" x2="598.7" y2="111.3"/>
				<line id="XMLID_522_" class="st2" x1="628" y1="128.7" x2="653.2" y2="153.9"/>
				<line id="XMLID_521_" class="st2" x1="590" y1="90.7" x2="616.9" y2="117.5"/>
				<line id="XMLID_520_" class="st2" x1="611.1" y1="99.8" x2="655.5" y2="144.2"/>
				<line id="XMLID_519_" class="st2" x1="592.7" y1="81.4" x2="602.1" y2="90.8"/>
				<line id="XMLID_518_" class="st2" x1="647.8" y1="124.5" x2="658.5" y2="135.2"/>
				<line id="XMLID_517_" class="st2" x1="582.1" y1="58.8" x2="636.6" y2="113.3"/>
				<line id="XMLID_516_" class="st2" x1="625.8" y1="90.5" x2="679" y2="143.8"/>
				<line id="XMLID_515_" class="st2" x1="602.3" y1="67" x2="614.6" y2="79.4"/>
				<line id="XMLID_514_" class="st2" x1="636.1" y1="88.9" x2="670.5" y2="123.3"/>
				<line id="XMLID_513_" class="st2" x1="601" y1="53.8" x2="626.4" y2="79.2"/>
				<line id="XMLID_512_" class="st2" x1="664.5" y1="105.3" x2="682.4" y2="123.3"/>
				<line id="XMLID_511_" class="st2" x1="616.5" y1="57.4" x2="651.4" y2="92.3"/>
				<line id="XMLID_510_" class="st2" x1="647.1" y1="75.9" x2="671.3" y2="100.2"/>
				<line id="XMLID_509_" class="st2" x1="619.4" y1="48.3" x2="637.6" y2="66.4"/>
				<line id="XMLID_508_" class="st2" x1="668.6" y1="85.6" x2="678.1" y2="95"/>
				<line id="XMLID_507_" class="st2" x1="633.9" y1="50.8" x2="657.8" y2="74.8"/>
				<line id="XMLID_506_" class="st2" x1="663.7" y1="68.7" x2="669.5" y2="74.5"/>
				<line id="XMLID_505_" class="st2" x1="653.5" y1="58.5" x2="657.5" y2="62.5"/>
			</g>
			<g id="XMLID_564_" class="st1">
				<line id="XMLID_586_" class="st2" x1="314.8" y1="542" x2="318.9" y2="546.2"/>
				<line id="XMLID_585_" class="st2" x1="300.6" y1="527.8" x2="308.2" y2="535.4"/>
				<line id="XMLID_584_" class="st2" x1="313.5" y1="528.7" x2="342.1" y2="557.4"/>
				<line id="XMLID_583_" class="st2" x1="298.9" y1="514.2" x2="304.7" y2="520"/>
				<line id="XMLID_582_" class="st2" x1="334" y1="537.4" x2="359.2" y2="562.5"/>
				<line id="XMLID_581_" class="st2" x1="296" y1="499.4" x2="322.9" y2="526.2"/>
				<line id="XMLID_580_" class="st2" x1="317.1" y1="508.4" x2="361.5" y2="552.9"/>
				<line id="XMLID_579_" class="st2" x1="298.7" y1="490.1" x2="308.1" y2="499.5"/>
				<line id="XMLID_578_" class="st2" x1="353.8" y1="533.2" x2="364.5" y2="543.9"/>
				<line id="XMLID_577_" class="st2" x1="288.1" y1="467.5" x2="342.6" y2="521.9"/>
				<line id="XMLID_576_" class="st2" x1="331.8" y1="499.2" x2="385" y2="552.4"/>
				<line id="XMLID_575_" class="st2" x1="308.3" y1="475.7" x2="320.6" y2="488.1"/>
				<line id="XMLID_574_" class="st2" x1="342.1" y1="497.6" x2="376.5" y2="532"/>
				<line id="XMLID_573_" class="st2" x1="307" y1="462.5" x2="332.4" y2="487.9"/>
				<line id="XMLID_572_" class="st2" x1="370.5" y1="514" x2="388.4" y2="531.9"/>
				<line id="XMLID_571_" class="st2" x1="322.5" y1="466" x2="357.4" y2="500.9"/>
				<line id="XMLID_570_" class="st2" x1="353.1" y1="484.6" x2="377.3" y2="508.9"/>
				<line id="XMLID_569_" class="st2" x1="325.4" y1="457" x2="343.6" y2="475.1"/>
				<line id="XMLID_568_" class="st2" x1="374.6" y1="494.2" x2="384.1" y2="503.7"/>
				<line id="XMLID_567_" class="st2" x1="339.9" y1="459.5" x2="363.8" y2="483.4"/>
				<line id="XMLID_566_" class="st2" x1="369.7" y1="477.4" x2="375.5" y2="483.2"/>
				<line id="XMLID_565_" class="st2" x1="359.5" y1="467.2" x2="363.5" y2="471.2"/>
			</g>
			<g id="XMLID_627_" class="st1">
				<line id="XMLID_649_" class="st2" x1="330.8" y1="7.4" x2="334.9" y2="11.5"/>
				<line id="XMLID_648_" class="st2" x1="316.6" y1="-6.8" x2="324.2" y2="0.8"/>
				<line id="XMLID_647_" class="st2" x1="329.5" y1="-5.9" x2="358.1" y2="22.7"/>
				<line id="XMLID_646_" class="st2" x1="314.9" y1="-20.5" x2="320.7" y2="-14.7"/>
				<line id="XMLID_645_" class="st2" x1="350" y1="2.7" x2="375.2" y2="27.9"/>
				<line id="XMLID_644_" class="st2" x1="312" y1="-35.3" x2="338.9" y2="-8.5"/>
				<line id="XMLID_643_" class="st2" x1="333.1" y1="-26.2" x2="377.5" y2="18.2"/>
				<line id="XMLID_642_" class="st2" x1="314.7" y1="-44.6" x2="324.1" y2="-35.2"/>
				<line id="XMLID_641_" class="st2" x1="369.8" y1="-1.5" x2="380.5" y2="9.2"/>
				<line id="XMLID_640_" class="st2" x1="304.1" y1="-67.2" x2="358.6" y2="-12.7"/>
				<line id="XMLID_639_" class="st2" x1="347.8" y1="-35.5" x2="401" y2="17.8"/>
				<line id="XMLID_638_" class="st2" x1="324.3" y1="-59" x2="336.6" y2="-46.6"/>
				<line id="XMLID_637_" class="st2" x1="358.1" y1="-37.1" x2="392.5" y2="-2.7"/>
				<line id="XMLID_636_" class="st2" x1="323" y1="-72.2" x2="348.4" y2="-46.8"/>
				<line id="XMLID_635_" class="st2" x1="386.5" y1="-20.7" x2="404.4" y2="-2.7"/>
				<line id="XMLID_634_" class="st2" x1="338.5" y1="-68.6" x2="373.4" y2="-33.7"/>
				<line id="XMLID_633_" class="st2" x1="369.1" y1="-50.1" x2="393.3" y2="-25.8"/>
				<line id="XMLID_632_" class="st2" x1="341.4" y1="-77.7" x2="359.6" y2="-59.6"/>
				<line id="XMLID_631_" class="st2" x1="390.6" y1="-40.4" x2="400.1" y2="-31"/>
				<line id="XMLID_630_" class="st2" x1="355.9" y1="-75.2" x2="379.8" y2="-51.2"/>
				<line id="XMLID_629_" class="st2" x1="385.7" y1="-57.3" x2="391.5" y2="-51.5"/>
				<line id="XMLID_628_" class="st2" x1="375.5" y1="-67.5" x2="379.5" y2="-63.5"/>
			</g>
			<path id="XMLID_503_" class="st3" d="M243.1,113.7L243.1,113.7c5.8,5.8,5.8,15.2,0,20.9h0c-5.8,5.8-15.2,5.8-20.9,0l0,0
				c-5.8-5.8-5.8-15.2,0-20.9v0C228,107.9,237.4,107.9,243.1,113.7z"/>
			<path id="XMLID_625_" class="st3" d="M554.5,133.7L554.5,133.7c5.8,5.8,5.8,15.2,0,20.9l0,0c-5.8,5.8-15.2,5.8-20.9,0l0,0
				c-5.8-5.8-5.8-15.2,0-20.9v0C539.3,127.9,548.7,127.9,554.5,133.7z"/>
			<path id="XMLID_626_" class="st3" d="M195,456.5L195,456.5c3.9,3.9,3.9,10.2,0,14.1l0,0c-3.9,3.9-10.2,3.9-14.1,0l0,0
				c-3.9-3.9-3.9-10.2,0-14.1l0,0C184.8,452.6,191.1,452.6,195,456.5z"/>
			<g id="XMLID_466_" class="st1">
				<g id="XMLID_497_">
					<path id="XMLID_502_" class="st4" d="M324.4,377.6c0.8-0.8,2-0.8,2.8,0c0.8,0.8,0.8,2,0,2.8c-0.8,0.8-2,0.8-2.8,0
						C323.6,379.6,323.6,378.4,324.4,377.6z"/>
					<path id="XMLID_501_" class="st4" d="M302.6,355.9c0.8-0.8,2-0.8,2.8,0c0.8,0.8,0.8,2,0,2.8c-0.8,0.8-2,0.8-2.8,0
						C301.9,357.9,301.9,356.6,302.6,355.9z"/>
					<circle id="XMLID_500_" class="st4" cx="282.3" cy="335.5" r="2"/>
					<circle id="XMLID_499_" class="st4" cx="260.5" cy="313.8" r="2"/>
					<circle id="XMLID_498_" class="st4" cx="238.8" cy="292" r="2"/>
				</g>
				<g id="XMLID_491_">
					<circle id="XMLID_496_" class="st4" cx="345.2" cy="359.6" r="2"/>
					<circle id="XMLID_495_" class="st4" cx="323.4" cy="337.8" r="2"/>
					<path id="XMLID_494_" class="st4" d="M300.3,314.7c0.8-0.8,2-0.8,2.8,0c0.8,0.8,0.8,2,0,2.8c-0.8,0.8-2,0.8-2.8,0
						C299.6,316.7,299.6,315.5,300.3,314.7z"/>
					<path id="XMLID_493_" class="st4" d="M278.6,293c0.8-0.8,2-0.8,2.8,0c0.8,0.8,0.8,2,0,2.8c-0.8,0.8-2,0.8-2.8,0
						C277.8,295,277.8,293.7,278.6,293z"/>
					<path id="XMLID_492_" class="st4" d="M256.8,271.2c0.8-0.8,2-0.8,2.8,0c0.8,0.8,0.8,2,0,2.8c-0.8,0.8-2,0.8-2.8,0
						C256.1,273.2,256.1,272,256.8,271.2z"/>
				</g>
				<g id="XMLID_485_">
					<circle id="XMLID_490_" class="st4" cx="364.6" cy="340.1" r="2"/>
					<path id="XMLID_489_" class="st4" d="M341.5,317c0.8-0.8,2-0.8,2.8,0c0.8,0.8,0.8,2,0,2.8c-0.8,0.8-2,0.8-2.8,0
						C340.7,319,340.7,317.8,341.5,317z"/>
					<path id="XMLID_488_" class="st4" d="M319.7,295.3c0.8-0.8,2-0.8,2.8,0c0.8,0.8,0.8,2,0,2.8c-0.8,0.8-2,0.8-2.8,0
						C319,297.3,319,296,319.7,295.3z"/>
					<path id="XMLID_487_" class="st4" d="M298,273.5c0.8-0.8,2-0.8,2.8,0c0.8,0.8,0.8,2,0,2.8c-0.8,0.8-2,0.8-2.8,0
						C297.2,275.5,297.2,274.3,298,273.5z"/>
					<path id="XMLID_486_" class="st4" d="M276.3,251.8c0.8-0.8,2-0.8,2.8,0c0.8,0.8,0.8,2,0,2.8c-0.8,0.8-2,0.8-2.8,0
						C275.5,253.8,275.5,252.6,276.3,251.8z"/>
				</g>
				<g id="XMLID_479_">
					<path id="XMLID_484_" class="st4" d="M382.7,319.3c0.8-0.8,2-0.8,2.8,0c0.8,0.8,0.8,2,0,2.8c-0.8,0.8-2,0.8-2.8,0
						C381.9,321.3,381.9,320.1,382.7,319.3z"/>
					<path id="XMLID_483_" class="st4" d="M360.9,297.6c0.8-0.8,2-0.8,2.8,0c0.8,0.8,0.8,2,0,2.8c-0.8,0.8-2,0.8-2.8,0
						C360.2,299.6,360.2,298.4,360.9,297.6z"/>
					<circle id="XMLID_482_" class="st4" cx="340.6" cy="277.2" r="2"/>
					<circle id="XMLID_481_" class="st4" cx="318.8" cy="255.5" r="2"/>
					<circle id="XMLID_480_" class="st4" cx="297.1" cy="233.8" r="2"/>
				</g>
				<g id="XMLID_473_">
					<circle id="XMLID_478_" class="st4" cx="403.5" cy="301.3" r="2"/>
					<circle id="XMLID_477_" class="st4" cx="381.7" cy="279.5" r="2"/>
					<path id="XMLID_476_" class="st4" d="M358.6,256.4c0.8-0.8,2-0.8,2.8,0c0.8,0.8,0.8,2,0,2.8c-0.8,0.8-2,0.8-2.8,0
						C357.8,258.4,357.8,257.2,358.6,256.4z"/>
					<path id="XMLID_475_" class="st4" d="M336.9,234.7c0.8-0.8,2-0.8,2.8,0c0.8,0.8,0.8,2,0,2.8c-0.8,0.8-2,0.8-2.8,0
						C336.1,236.7,336.1,235.4,336.9,234.7z"/>
					<path id="XMLID_474_" class="st4" d="M315.1,212.9c0.8-0.8,2-0.8,2.8,0c0.8,0.8,0.8,2,0,2.8c-0.8,0.8-2,0.8-2.8,0
						C314.4,214.9,314.4,213.7,315.1,212.9z"/>
				</g>
				<g id="XMLID_467_">
					<circle id="XMLID_472_" class="st4" cx="422.9" cy="281.9" r="2"/>
					<path id="XMLID_471_" class="st4" d="M399.8,258.7c0.8-0.8,2-0.8,2.8,0c0.8,0.8,0.8,2,0,2.8c-0.8,0.8-2,0.8-2.8,0
						C399,260.7,399,259.5,399.8,258.7z"/>
					<path id="XMLID_470_" class="st4" d="M378,237c0.8-0.8,2-0.8,2.8,0c0.8,0.8,0.8,2,0,2.8c-0.8,0.8-2,0.8-2.8,0
						C377.3,239,377.3,237.8,378,237z"/>
					<circle id="XMLID_469_" class="st4" cx="357.7" cy="216.6" r="2"/>
					<path id="XMLID_468_" class="st4" d="M334.6,193.5c0.8-0.8,2-0.8,2.8,0c0.8,0.8,0.8,2,0,2.8c-0.8,0.8-2,0.8-2.8,0
						C333.8,195.5,333.8,194.3,334.6,193.5z"/>
				</g>
			</g>
			<g id="XMLID_587_" class="st1">
				<g id="XMLID_619_">
					<circle id="XMLID_624_" class="st4" cx="758.9" cy="315" r="2"/>
					<path id="XMLID_623_" class="st4" d="M735.8,291.9c0.8-0.8,2-0.8,2.8,0c0.8,0.8,0.8,2,0,2.8c-0.8,0.8-2,0.8-2.8,0
						C735.1,293.9,735.1,292.6,735.8,291.9z"/>
					<path id="XMLID_622_" class="st4" d="M714.1,270.1c0.8-0.8,2-0.8,2.8,0c0.8,0.8,0.8,2,0,2.8c-0.8,0.8-2,0.8-2.8,0
						C713.3,272.1,713.3,270.9,714.1,270.1z"/>
					<path id="XMLID_621_" class="st4" d="M692.3,248.4c0.8-0.8,2-0.8,2.8,0s0.8,2,0,2.8c-0.8,0.8-2,0.8-2.8,0
						C691.6,250.4,691.6,249.2,692.3,248.4z"/>
					<circle id="XMLID_620_" class="st4" cx="672" cy="228" r="2"/>
				</g>
				<g id="XMLID_613_">
					<path id="XMLID_618_" class="st4" d="M777,294.2c0.8-0.8,2-0.8,2.8,0c0.8,0.8,0.8,2,0,2.8c-0.8,0.8-2,0.8-2.8,0
						C776.2,296.2,776.2,294.9,777,294.2z"/>
					<path id="XMLID_617_" class="st4" d="M755.2,272.4c0.8-0.8,2-0.8,2.8,0c0.8,0.8,0.8,2,0,2.8c-0.8,0.8-2,0.8-2.8,0
						C754.5,274.4,754.5,273.2,755.2,272.4z"/>
					<circle id="XMLID_616_" class="st4" cx="734.9" cy="252.1" r="2"/>
					<circle id="XMLID_615_" class="st4" cx="713.2" cy="230.3" r="2"/>
					<circle id="XMLID_614_" class="st4" cx="691.4" cy="208.6" r="2"/>
				</g>
				<g id="XMLID_607_">
					<circle id="XMLID_612_" class="st4" cx="797.8" cy="276.1" r="2"/>
					<path id="XMLID_611_" class="st4" d="M774.7,253c0.8-0.8,2-0.8,2.8,0s0.8,2,0,2.8c-0.8,0.8-2,0.8-2.8,0
						C773.9,255,773.9,253.8,774.7,253z"/>
					<circle id="XMLID_610_" class="st4" cx="754.3" cy="232.7" r="2"/>
					<path id="XMLID_609_" class="st4" d="M731.2,209.5c0.8-0.8,2-0.8,2.8,0c0.8,0.8,0.8,2,0,2.8c-0.8,0.8-2,0.8-2.8,0
						C730.4,211.5,730.4,210.3,731.2,209.5z"/>
					<path id="XMLID_608_" class="st4" d="M709.5,187.8c0.8-0.8,2-0.8,2.8,0c0.8,0.8,0.8,2,0,2.8c-0.8,0.8-2,0.8-2.8,0
						S708.7,188.6,709.5,187.8z"/>
				</g>
				<g id="XMLID_600_">
					<circle id="XMLID_606_" class="st4" cx="817.2" cy="256.7" r="2"/>
					<path id="XMLID_605_" class="st4" d="M794.1,233.6c0.8-0.8,2-0.8,2.8,0c0.8,0.8,0.8,2,0,2.8c-0.8,0.8-2,0.8-2.8,0
						C793.3,235.6,793.3,234.3,794.1,233.6z"/>
					<circle id="XMLID_604_" class="st4" cx="773.8" cy="213.2" r="2"/>
					<path id="XMLID_603_" class="st4" d="M750.6,190.1c0.8-0.8,2-0.8,2.8,0s0.8,2,0,2.8c-0.8,0.8-2,0.8-2.8,0
						C749.9,192.1,749.9,190.9,750.6,190.1z"/>
					<path id="XMLID_601_" class="st4" d="M728.9,168.4c0.8-0.8,2-0.8,2.8,0c0.8,0.8,0.8,2,0,2.8c-0.8,0.8-2,0.8-2.8,0
						C728.1,170.4,728.1,169.1,728.9,168.4z"/>
				</g>
				<g id="XMLID_594_">
					<path id="XMLID_599_" class="st4" d="M835.3,235.9c0.8-0.8,2-0.8,2.8,0c0.8,0.8,0.8,2,0,2.8c-0.8,0.8-2,0.8-2.8,0
						C834.5,237.9,834.5,236.7,835.3,235.9z"/>
					<path id="XMLID_598_" class="st4" d="M813.5,214.2c0.8-0.8,2-0.8,2.8,0c0.8,0.8,0.8,2,0,2.8s-2,0.8-2.8,0
						C812.8,216.2,812.8,214.9,813.5,214.2z"/>
					<circle id="XMLID_597_" class="st4" cx="793.2" cy="193.8" r="2"/>
					<circle id="XMLID_596_" class="st4" cx="771.4" cy="172.1" r="2"/>
					<circle id="XMLID_595_" class="st4" cx="749.7" cy="150.3" r="2"/>
				</g>
				<g id="XMLID_588_">
					<circle id="XMLID_593_" class="st4" cx="856.1" cy="217.9" r="2"/>
					<path id="XMLID_592_" class="st4" d="M833,194.7c0.8-0.8,2-0.8,2.8,0s0.8,2,0,2.8c-0.8,0.8-2,0.8-2.8,0
						C832.2,196.7,832.2,195.5,833,194.7z"/>
					<path id="XMLID_591_" class="st4" d="M811.2,173c0.8-0.8,2-0.8,2.8,0s0.8,2,0,2.8c-0.8,0.8-2,0.8-2.8,0
						C810.5,175,810.5,173.8,811.2,173z"/>
					<path id="XMLID_590_" class="st4" d="M789.5,151.2c0.8-0.8,2-0.8,2.8,0c0.8,0.8,0.8,2,0,2.8c-0.8,0.8-2,0.8-2.8,0
						C788.7,153.3,788.7,152,789.5,151.2z"/>
					<circle id="XMLID_589_" class="st4" cx="769.1" cy="130.9" r="2"/>
				</g>
			</g>
			<g id="XMLID_527_" class="st1">
				<g id="XMLID_558_">
					<path id="XMLID_563_" class="st4" d="M-18.1,182c0.8-0.8,2-0.8,2.8,0c0.8,0.8,0.8,2,0,2.8s-2,0.8-2.8,0
						C-18.9,184-18.9,182.8-18.1,182z"/>
					<path id="XMLID_562_" class="st4" d="M-39.9,160.2c0.8-0.8,2-0.8,2.8,0c0.8,0.8,0.8,2,0,2.8c-0.8,0.8-2,0.8-2.8,0
						S-40.6,161-39.9,160.2z"/>
					<path id="XMLID_561_" class="st4" d="M-61.6,138.5c0.8-0.8,2-0.8,2.8,0c0.8,0.8,0.8,2,0,2.8c-0.8,0.8-2,0.8-2.8,0
						C-62.4,140.5-62.4,139.3-61.6,138.5z"/>
					<circle id="XMLID_560_" class="st4" cx="-82" cy="118.2" r="2"/>
					<path id="XMLID_559_" class="st4" d="M-105.1,95c0.8-0.8,2-0.8,2.8,0c0.8,0.8,0.8,2,0,2.8c-0.8,0.8-2,0.8-2.8,0
						C-105.9,97-105.9,95.8-105.1,95z"/>
				</g>
				<g id="XMLID_552_">
					<path id="XMLID_557_" class="st4" d="M1.3,162.6c0.8-0.8,2-0.8,2.8,0s0.8,2,0,2.8c-0.8,0.8-2,0.8-2.8,0
						C0.5,164.6,0.5,163.3,1.3,162.6z"/>
					<path id="XMLID_556_" class="st4" d="M-20.4,140.8c0.8-0.8,2-0.8,2.8,0s0.8,2,0,2.8c-0.8,0.8-2,0.8-2.8,0
						C-21.2,142.8-21.2,141.6-20.4,140.8z"/>
					<path id="XMLID_555_" class="st4" d="M-42.2,119.1c0.8-0.8,2-0.8,2.8,0c0.8,0.8,0.8,2,0,2.8c-0.8,0.8-2,0.8-2.8,0
						C-43,121.1-43,119.8-42.2,119.1z"/>
					<circle id="XMLID_554_" class="st4" cx="-62.5" cy="98.7" r="2"/>
					<circle id="XMLID_553_" class="st4" cx="-84.3" cy="77" r="2"/>
				</g>
				<g id="XMLID_546_">
					<circle id="XMLID_551_" class="st4" cx="22.1" cy="144.5" r="2"/>
					<circle id="XMLID_550_" class="st4" cx="0.4" cy="122.8" r="2"/>
					<path id="XMLID_549_" class="st4" d="M-22.8,99.7c0.8-0.8,2-0.8,2.8,0c0.8,0.8,0.8,2,0,2.8c-0.8,0.8-2,0.8-2.8,0
						C-23.5,101.7-23.5,100.4-22.8,99.7z"/>
					<path id="XMLID_548_" class="st4" d="M-44.5,77.9c0.8-0.8,2-0.8,2.8,0c0.8,0.8,0.8,2,0,2.8c-0.8,0.8-2,0.8-2.8,0
						C-45.3,79.9-45.3,78.7-44.5,77.9z"/>
					<path id="XMLID_547_" class="st4" d="M-66.2,56.2c0.8-0.8,2-0.8,2.8,0c0.8,0.8,0.8,2,0,2.8c-0.8,0.8-2,0.8-2.8,0
						C-67,58.2-67,56.9-66.2,56.2z"/>
				</g>
				<g id="XMLID_540_">
					<path id="XMLID_545_" class="st4" d="M40.1,123.7c0.8-0.8,2-0.8,2.8,0c0.8,0.8,0.8,2,0,2.8c-0.8,0.8-2,0.8-2.8,0
						C39.4,125.7,39.4,124.5,40.1,123.7z"/>
					<path id="XMLID_544_" class="st4" d="M18.4,102c0.8-0.8,2-0.8,2.8,0c0.8,0.8,0.8,2,0,2.8c-0.8,0.8-2,0.8-2.8,0
						C17.6,104,17.6,102.7,18.4,102z"/>
					<path id="XMLID_543_" class="st4" d="M-3.3,80.2c0.8-0.8,2-0.8,2.8,0c0.8,0.8,0.8,2,0,2.8s-2,0.8-2.8,0
						C-4.1,82.2-4.1,81-3.3,80.2z"/>
					<circle id="XMLID_542_" class="st4" cx="-23.7" cy="59.9" r="2"/>
					<path id="XMLID_541_" class="st4" d="M-46.8,36.7c0.8-0.8,2-0.8,2.8,0s0.8,2,0,2.8c-0.8,0.8-2,0.8-2.8,0
						C-47.6,38.8-47.6,37.5-46.8,36.7z"/>
				</g>
				<g id="XMLID_534_">
					<path id="XMLID_539_" class="st4" d="M59.6,104.3c0.8-0.8,2-0.8,2.8,0c0.8,0.8,0.8,2,0,2.8c-0.8,0.8-2,0.8-2.8,0
						C58.8,106.3,58.8,105,59.6,104.3z"/>
					<path id="XMLID_538_" class="st4" d="M37.8,82.5c0.8-0.8,2-0.8,2.8,0c0.8,0.8,0.8,2,0,2.8c-0.8,0.8-2,0.8-2.8,0
						C37.1,84.5,37.1,83.3,37.8,82.5z"/>
					<path id="XMLID_537_" class="st4" d="M16.1,60.8c0.8-0.8,2-0.8,2.8,0c0.8,0.8,0.8,2,0,2.8c-0.8,0.8-2,0.8-2.8,0
						C15.3,62.8,15.3,61.6,16.1,60.8z"/>
					<circle id="XMLID_536_" class="st4" cx="-4.3" cy="40.4" r="2"/>
					<circle id="XMLID_535_" class="st4" cx="-26" cy="18.7" r="2"/>
				</g>
				<g id="XMLID_528_">
					<circle id="XMLID_533_" class="st4" cx="80.4" cy="86.2" r="2"/>
					<circle id="XMLID_532_" class="st4" cx="58.7" cy="64.5" r="2"/>
					<path id="XMLID_531_" class="st4" d="M35.5,41.4c0.8-0.8,2-0.8,2.8,0c0.8,0.8,0.8,2,0,2.8c-0.8,0.8-2,0.8-2.8,0
						C34.8,43.4,34.8,42.1,35.5,41.4z"/>
					<path id="XMLID_530_" class="st4" d="M13.8,19.6c0.8-0.8,2-0.8,2.8,0c0.8,0.8,0.8,2,0,2.8c-0.8,0.8-2,0.8-2.8,0
						C13,21.6,13,20.4,13.8,19.6z"/>
					<path id="XMLID_529_" class="st4" d="M-8-2.1c0.8-0.8,2-0.8,2.8,0c0.8,0.8,0.8,2,0,2.8s-2,0.8-2.8,0C-8.7-0.1-8.7-1.3-8-2.1z"
						/>
				</g>
			</g>
		</g>
		<g id="XMLID_360_">
			<defs>
				<rect id="XMLID_428_" width="750" height="500"/>
			</defs>
			<clipPath id="XMLID_192_">
				<use xlink:href="#XMLID_428_"  style="overflow:visible;"/>
			</clipPath>
			<g id="XMLID_24_" class="st5">
				<path id="XMLID_52_" class="st6" d="M575,46.9c10.4,10.3,10.4,27.1,0,37.4l-37.7-37.4C547.6,36.5,564.5,36.5,575,46.9z"/>
				<path id="XMLID_25_" class="st7" d="M554.5,101.6c-10.4-10.3-10.4-27.1,0-37.4l37.7,37.4C581.9,112,565,112,554.5,101.6z"/>
			</g>
			<g id="XMLID_416_" class="st5">
				<path id="XMLID_418_" class="st6" d="M204.3,220.9c10.4,10.3,10.4,27.1,0,37.4l-37.7-37.4C177,210.5,193.9,210.5,204.3,220.9z"
					/>
				<path id="XMLID_417_" class="st7" d="M183.9,275.6c-10.4-10.3-10.4-27.1,0-37.4l37.7,37.4C211.2,286,194.3,286,183.9,275.6z"/>
			</g>
			<g id="XMLID_59_" class="st5">
				<path id="XMLID_58_" class="st6" d="M623.5,332c16.5,16.5,16.5,43.2,0,59.7L563.7,332C580.2,315.5,607,315.5,623.5,332z"/>
				<g id="XMLID_54_">
					<path id="XMLID_23_" class="st8" d="M621.7,343.8c16.5,16.5,16.5,43.2,0,59.7L562,343.8C578.5,327.3,605.2,327.3,621.7,343.8z"
						/>
				</g>
			</g>
			<g id="XMLID_61_" class="st5">
				<line id="XMLID_83_" class="st9" x1="11.9" y1="441.9" x2="17.8" y2="447.8"/>
				<line id="XMLID_82_" class="st9" x1="-8.5" y1="421.6" x2="2.4" y2="432.5"/>
				<line id="XMLID_81_" class="st9" x1="10" y1="422.9" x2="51.1" y2="463.9"/>
				<line id="XMLID_80_" class="st9" x1="-10.9" y1="401.9" x2="-2.6" y2="410.3"/>
				<line id="XMLID_79_" class="st10" x1="39.5" y1="435.2" x2="75.6" y2="471.4"/>
				<line id="XMLID_78_" class="st10" x1="-15" y1="380.7" x2="23.5" y2="419.2"/>
				<line id="XMLID_77_" class="st9" x1="15.2" y1="393.7" x2="79" y2="457.5"/>
				<line id="XMLID_76_" class="st9" x1="-11.2" y1="367.4" x2="2.3" y2="380.9"/>
				<line id="XMLID_75_" class="st9" x1="67.9" y1="429.2" x2="83.2" y2="444.6"/>
				<line id="XMLID_74_" class="st9" x1="-26.4" y1="334.9" x2="51.7" y2="413.1"/>
				<line id="XMLID_73_" class="st10" x1="36.3" y1="380.5" x2="112.6" y2="456.9"/>
				<line id="XMLID_72_" class="st10" x1="2.5" y1="346.8" x2="20.3" y2="364.5"/>
				<line id="XMLID_71_" class="st9" x1="51.1" y1="378.1" x2="100.4" y2="427.5"/>
				<line id="XMLID_70_" class="st9" x1="0.7" y1="327.8" x2="37.2" y2="364.2"/>
				<line id="XMLID_69_" class="st10" x1="91.8" y1="401.7" x2="117.6" y2="427.4"/>
				<line id="XMLID_68_" class="st10" x1="23" y1="332.9" x2="73.1" y2="383"/>
				<line id="XMLID_67_" class="st9" x1="66.8" y1="359.6" x2="101.6" y2="394.4"/>
				<line id="XMLID_66_" class="st9" x1="27.1" y1="319.9" x2="53.2" y2="345.9"/>
				<line id="XMLID_65_" class="st10" x1="97.8" y1="373.3" x2="111.3" y2="386.9"/>
				<line id="XMLID_64_" class="st10" x1="48" y1="323.5" x2="82.3" y2="357.9"/>
				<line id="XMLID_63_" class="st9" x1="90.7" y1="349.1" x2="99" y2="357.5"/>
				<line id="XMLID_62_" class="st9" x1="76.1" y1="334.5" x2="81.9" y2="340.3"/>
			</g>
			<g id="XMLID_84_" class="st5">
				<line id="XMLID_106_" class="st11" x1="708.8" y1="104.7" x2="712.9" y2="108.8"/>
				<line id="XMLID_105_" class="st11" x1="694.6" y1="90.5" x2="702.2" y2="98.1"/>
				<line id="XMLID_104_" class="st11" x1="707.5" y1="91.4" x2="736.1" y2="120"/>
				<line id="XMLID_103_" class="st11" x1="692.9" y1="76.8" x2="698.7" y2="82.6"/>
				<line id="XMLID_102_" class="st12" x1="728" y1="100" x2="753.2" y2="125.2"/>
				<line id="XMLID_101_" class="st12" x1="690" y1="62" x2="716.9" y2="88.9"/>
				<line id="XMLID_100_" class="st11" x1="711.1" y1="71.1" x2="755.5" y2="115.6"/>
				<line id="XMLID_99_" class="st11" x1="692.7" y1="52.7" x2="702.1" y2="62.1"/>
				<line id="XMLID_98_" class="st11" x1="747.8" y1="95.9" x2="758.5" y2="106.5"/>
				<line id="XMLID_97_" class="st11" x1="682.1" y1="30.1" x2="736.6" y2="84.6"/>
				<line id="XMLID_96_" class="st12" x1="725.8" y1="61.9" x2="779" y2="115.1"/>
				<line id="XMLID_95_" class="st12" x1="702.3" y1="38.4" x2="714.6" y2="50.7"/>
				<line id="XMLID_94_" class="st11" x1="736.1" y1="60.2" x2="770.5" y2="94.6"/>
				<line id="XMLID_93_" class="st11" x1="701" y1="25.1" x2="726.4" y2="50.5"/>
				<line id="XMLID_92_" class="st12" x1="764.5" y1="76.6" x2="782.4" y2="94.6"/>
				<line id="XMLID_91_" class="st12" x1="716.5" y1="28.7" x2="751.4" y2="63.6"/>
				<line id="XMLID_90_" class="st11" x1="747.1" y1="47.3" x2="771.3" y2="71.5"/>
				<line id="XMLID_89_" class="st11" x1="719.4" y1="19.6" x2="737.6" y2="37.8"/>
				<line id="XMLID_88_" class="st12" x1="768.6" y1="56.9" x2="778.1" y2="66.3"/>
				<line id="XMLID_87_" class="st12" x1="733.9" y1="22.2" x2="757.8" y2="46.1"/>
				<line id="XMLID_86_" class="st11" x1="763.7" y1="40" x2="769.5" y2="45.8"/>
				<line id="XMLID_85_" class="st11" x1="753.5" y1="29.8" x2="757.5" y2="33.8"/>
			</g>
			<g id="XMLID_49_" class="st5">
				<path id="XMLID_22_" class="st13" d="M397.4,150.3L355,107.8c-0.7-0.7-0.7-1.8,0-2.4L397.4,63c0.7-0.7,1.8-0.7,2.4,0l42.4,42.4
					c0.7,0.7,0.7,1.8,0,2.4l-42.4,42.4C399.2,150.9,398.1,150.9,397.4,150.3z"/>
				<g id="XMLID_602_">
					<g id="XMLID_735_">
						<circle id="XMLID_746_" class="st14" cx="399.5" cy="49" r="1"/>
						<path id="XMLID_745_" class="st14" d="M411.2,60.7c-0.4,0.4-1,0.4-1.4,0c-0.4-0.4-0.4-1,0-1.4c0.4-0.4,1-0.4,1.4,0
							C411.6,59.7,411.6,60.3,411.2,60.7z"/>
						<path id="XMLID_744_" class="st14" d="M422.2,71.7c-0.4,0.4-1,0.4-1.4,0c-0.4-0.4-0.4-1,0-1.4c0.4-0.4,1-0.4,1.4,0
							C422.6,70.7,422.6,71.3,422.2,71.7z"/>
						<path id="XMLID_743_" class="st14" d="M433.2,82.7c-0.4,0.4-1,0.4-1.4,0c-0.4-0.4-0.4-1,0-1.4c0.4-0.4,1-0.4,1.4,0
							C433.6,81.7,433.6,82.3,433.2,82.7z"/>
						<circle id="XMLID_742_" class="st14" cx="443.5" cy="93" r="1"/>
					</g>
					<g id="XMLID_723_">
						<path id="XMLID_734_" class="st14" d="M390.4,59.5c-0.4,0.4-1,0.4-1.4,0c-0.4-0.4-0.4-1,0-1.4c0.4-0.4,1-0.4,1.4,0
							C390.7,58.5,390.7,59.1,390.4,59.5z"/>
						<circle id="XMLID_733_" class="st14" cx="400.7" cy="69.8" r="1"/>
						<circle id="XMLID_732_" class="st14" cx="411.7" cy="80.8" r="1"/>
						<circle id="XMLID_731_" class="st14" cx="422.7" cy="91.8" r="1"/>
						<circle id="XMLID_730_" class="st14" cx="433.7" cy="102.8" r="1"/>
					</g>
					<g id="XMLID_711_">
						<path id="XMLID_722_" class="st14" d="M380.5,69.4c-0.4,0.4-1,0.4-1.4,0c-0.4-0.4-0.4-1,0-1.4c0.4-0.4,1-0.4,1.4,0
							C380.9,68.3,380.9,69,380.5,69.4z"/>
						<circle id="XMLID_721_" class="st14" cx="390.8" cy="79.7" r="1"/>
						<circle id="XMLID_720_" class="st14" cx="401.8" cy="90.7" r="1"/>
						<circle id="XMLID_719_" class="st14" cx="412.8" cy="101.7" r="1"/>
						<path id="XMLID_718_" class="st14" d="M424.5,113.4c-0.4,0.4-1,0.4-1.4,0c-0.4-0.4-0.4-1,0-1.4c0.4-0.4,1-0.4,1.4,0
							C424.9,112.4,424.9,113,424.5,113.4z"/>
					</g>
					<g id="XMLID_699_">
						<path id="XMLID_710_" class="st14" d="M370.7,79.2c-0.4,0.4-1,0.4-1.4,0c-0.4-0.4-0.4-1,0-1.4c0.4-0.4,1-0.4,1.4,0
							C371.1,78.2,371.1,78.8,370.7,79.2z"/>
						<path id="XMLID_709_" class="st14" d="M381.7,90.2c-0.4,0.4-1,0.4-1.4,0c-0.4-0.4-0.4-1,0-1.4c0.4-0.4,1-0.4,1.4,0
							C382.1,89.2,382.1,89.8,381.7,90.2z"/>
						<circle id="XMLID_708_" class="st14" cx="392" cy="100.5" r="1"/>
						<path id="XMLID_707_" class="st14" d="M403.7,112.2c-0.4,0.4-1,0.4-1.4,0c-0.4-0.4-0.4-1,0-1.4c0.4-0.4,1-0.4,1.4,0
							C404.1,111.2,404.1,111.8,403.7,112.2z"/>
						<path id="XMLID_706_" class="st14" d="M414.7,123.2c-0.4,0.4-1,0.4-1.4,0c-0.4-0.4-0.4-1,0-1.4s1-0.4,1.4,0
							C415.1,122.2,415.1,122.8,414.7,123.2z"/>
					</g>
					<g id="XMLID_687_">
						<path id="XMLID_698_" class="st14" d="M360.9,89c-0.4,0.4-1,0.4-1.4,0c-0.4-0.4-0.4-1,0-1.4c0.4-0.4,1-0.4,1.4,0
							C361.2,88,361.2,88.6,360.9,89z"/>
						<circle id="XMLID_697_" class="st14" cx="371.2" cy="99.3" r="1"/>
						<circle id="XMLID_696_" class="st14" cx="382.2" cy="110.3" r="1"/>
						<circle id="XMLID_695_" class="st14" cx="393.2" cy="121.3" r="1"/>
						<path id="XMLID_694_" class="st14" d="M404.9,133c-0.4,0.4-1,0.4-1.4,0c-0.4-0.4-0.4-1,0-1.4c0.4-0.4,1-0.4,1.4,0
							C405.3,132,405.3,132.7,404.9,133z"/>
					</g>
					<g id="XMLID_675_">
						<path id="XMLID_686_" class="st14" d="M351,98.9c-0.4,0.4-1,0.4-1.4,0c-0.4-0.4-0.4-1,0-1.4c0.4-0.4,1-0.4,1.4,0
							C351.4,97.8,351.4,98.5,351,98.9z"/>
						<circle id="XMLID_685_" class="st14" cx="361.3" cy="109.2" r="1"/>
						<circle id="XMLID_684_" class="st14" cx="372.3" cy="120.2" r="1"/>
						<circle id="XMLID_683_" class="st14" cx="383.3" cy="131.2" r="1"/>
						<path id="XMLID_682_" class="st14" d="M395,142.9c-0.4,0.4-1,0.4-1.4,0c-0.4-0.4-0.4-1,0-1.4c0.4-0.4,1-0.4,1.4,0
							C395.4,141.9,395.4,142.5,395,142.9z"/>
					</g>
				</g>
			</g>
			<g id="XMLID_134_" class="st5">
				<path id="XMLID_21_" class="st15" d="M456.5,346.3h51.3c0.8,0,1.5,0.7,1.5,1.5v51.3c0,0.8-0.7,1.5-1.5,1.5h-51.3
					c-0.8,0-1.5-0.7-1.5-1.5v-51.3C455,347,455.7,346.3,456.5,346.3z"/>
				<g id="XMLID_135_">
					<g id="XMLID_166_">
						<path id="XMLID_20_" class="st14" d="M513.9,409.7c0-0.5,0.4-0.8,0.8-0.8c0.5,0,0.8,0.4,0.8,0.8c0,0.5-0.4,0.8-0.8,0.8
							C514.3,410.5,513.9,410.1,513.9,409.7z"/>
						<path id="XMLID_19_" class="st14" d="M500.6,409.7c0-0.5,0.4-0.8,0.8-0.8s0.8,0.4,0.8,0.8c0,0.5-0.4,0.8-0.8,0.8
							S500.6,410.1,500.6,409.7z"/>
						<path id="XMLID_18_" class="st14" d="M487.3,409.7c0-0.5,0.4-0.8,0.8-0.8c0.5,0,0.8,0.4,0.8,0.8c0,0.5-0.4,0.8-0.8,0.8
							C487.7,410.5,487.3,410.1,487.3,409.7z"/>
						<path id="XMLID_17_" class="st14" d="M474,409.7c0-0.5,0.4-0.8,0.8-0.8s0.8,0.4,0.8,0.8c0,0.5-0.4,0.8-0.8,0.8
							S474,410.1,474,409.7z"/>
						<path id="XMLID_167_" class="st14" d="M460.7,409.7c0-0.5,0.4-0.8,0.8-0.8c0.5,0,0.8,0.4,0.8,0.8c0,0.5-0.4,0.8-0.8,0.8
							C461.1,410.5,460.7,410.1,460.7,409.7z"/>
					</g>
					<g id="XMLID_160_">
						<path id="XMLID_165_" class="st14" d="M513.9,397.8c0-0.5,0.4-0.8,0.8-0.8c0.5,0,0.8,0.4,0.8,0.8c0,0.5-0.4,0.8-0.8,0.8
							C514.3,398.6,513.9,398.3,513.9,397.8z"/>
						<path id="XMLID_164_" class="st14" d="M500.6,397.8c0-0.5,0.4-0.8,0.8-0.8s0.8,0.4,0.8,0.8c0,0.5-0.4,0.8-0.8,0.8
							S500.6,398.3,500.6,397.8z"/>
						<path id="XMLID_163_" class="st14" d="M487.3,397.8c0-0.5,0.4-0.8,0.8-0.8c0.5,0,0.8,0.4,0.8,0.8c0,0.5-0.4,0.8-0.8,0.8
							C487.7,398.6,487.3,398.3,487.3,397.8z"/>
						<path id="XMLID_162_" class="st14" d="M474,397.8c0-0.5,0.4-0.8,0.8-0.8s0.8,0.4,0.8,0.8c0,0.5-0.4,0.8-0.8,0.8
							S474,398.3,474,397.8z"/>
						<path id="XMLID_161_" class="st14" d="M460.7,397.8c0-0.5,0.4-0.8,0.8-0.8c0.5,0,0.8,0.4,0.8,0.8c0,0.5-0.4,0.8-0.8,0.8
							C461.1,398.6,460.7,398.3,460.7,397.8z"/>
					</g>
					<g id="XMLID_154_">
						<path id="XMLID_159_" class="st14" d="M513.9,385.9c0-0.5,0.4-0.8,0.8-0.8c0.5,0,0.8,0.4,0.8,0.8c0,0.5-0.4,0.8-0.8,0.8
							C514.3,386.7,513.9,386.4,513.9,385.9z"/>
						<circle id="XMLID_158_" class="st14" cx="501.5" cy="385.9" r="0.8"/>
						<circle id="XMLID_157_" class="st14" cx="488.2" cy="385.9" r="0.8"/>
						<path id="XMLID_156_" class="st14" d="M474,385.9c0-0.5,0.4-0.8,0.8-0.8s0.8,0.4,0.8,0.8c0,0.5-0.4,0.8-0.8,0.8
							S474,386.4,474,385.9z"/>
						<path id="XMLID_155_" class="st14" d="M460.7,385.9c0-0.5,0.4-0.8,0.8-0.8c0.5,0,0.8,0.4,0.8,0.8c0,0.5-0.4,0.8-0.8,0.8
							C461.1,386.7,460.7,386.4,460.7,385.9z"/>
					</g>
					<g id="XMLID_16_">
						<path id="XMLID_153_" class="st14" d="M513.9,374c0-0.5,0.4-0.8,0.8-0.8c0.5,0,0.8,0.4,0.8,0.8s-0.4,0.8-0.8,0.8
							C514.3,374.8,513.9,374.5,513.9,374z"/>
						<circle id="XMLID_152_" class="st14" cx="501.5" cy="374" r="0.8"/>
						<circle id="XMLID_151_" class="st14" cx="488.2" cy="374" r="0.8"/>
						<path id="XMLID_150_" class="st14" d="M474,374c0-0.5,0.4-0.8,0.8-0.8s0.8,0.4,0.8,0.8s-0.4,0.8-0.8,0.8S474,374.5,474,374z"
							/>
						<path id="XMLID_149_" class="st14" d="M460.7,374c0-0.5,0.4-0.8,0.8-0.8c0.5,0,0.8,0.4,0.8,0.8s-0.4,0.8-0.8,0.8
							C461.1,374.8,460.7,374.5,460.7,374z"/>
					</g>
					<g id="XMLID_142_">
						<path id="XMLID_147_" class="st14" d="M513.9,362.1c0-0.5,0.4-0.8,0.8-0.8c0.5,0,0.8,0.4,0.8,0.8c0,0.5-0.4,0.8-0.8,0.8
							C514.3,363,513.9,362.6,513.9,362.1z"/>
						<circle id="XMLID_146_" class="st14" cx="501.5" cy="362.1" r="0.8"/>
						<circle id="XMLID_145_" class="st14" cx="488.2" cy="362.1" r="0.8"/>
						<path id="XMLID_144_" class="st14" d="M474,362.1c0-0.5,0.4-0.8,0.8-0.8s0.8,0.4,0.8,0.8c0,0.5-0.4,0.8-0.8,0.8
							S474,362.6,474,362.1z"/>
						<path id="XMLID_143_" class="st14" d="M460.7,362.1c0-0.5,0.4-0.8,0.8-0.8c0.5,0,0.8,0.4,0.8,0.8c0,0.5-0.4,0.8-0.8,0.8
							C461.1,363,460.7,362.6,460.7,362.1z"/>
					</g>
					<g id="XMLID_136_">
						<path id="XMLID_141_" class="st14" d="M513.9,350.2c0-0.5,0.4-0.8,0.8-0.8c0.5,0,0.8,0.4,0.8,0.8c0,0.5-0.4,0.8-0.8,0.8
							C514.3,351.1,513.9,350.7,513.9,350.2z"/>
						<path id="XMLID_140_" class="st14" d="M500.6,350.2c0-0.5,0.4-0.8,0.8-0.8s0.8,0.4,0.8,0.8c0,0.5-0.4,0.8-0.8,0.8
							S500.6,350.7,500.6,350.2z"/>
						<path id="XMLID_139_" class="st14" d="M487.3,350.2c0-0.5,0.4-0.8,0.8-0.8c0.5,0,0.8,0.4,0.8,0.8c0,0.5-0.4,0.8-0.8,0.8
							C487.7,351.1,487.3,350.7,487.3,350.2z"/>
						<path id="XMLID_138_" class="st14" d="M474,350.2c0-0.5,0.4-0.8,0.8-0.8s0.8,0.4,0.8,0.8c0,0.5-0.4,0.8-0.8,0.8
							S474,350.7,474,350.2z"/>
						<path id="XMLID_137_" class="st14" d="M460.7,350.2c0-0.5,0.4-0.8,0.8-0.8c0.5,0,0.8,0.4,0.8,0.8c0,0.5-0.4,0.8-0.8,0.8
							C461.1,351.1,460.7,350.7,460.7,350.2z"/>
					</g>
				</g>
			</g>
			<g id="XMLID_51_" class="st5">
				<polyline id="XMLID_367_" class="st8" points="150.8,160 179.1,180 207.5,160 				"/>
				<polyline id="XMLID_399_" class="st8" points="37.3,160 65.6,180 94,160 122.4,180 				"/>
				<line id="XMLID_50_" class="st8" x1="-19.5" y1="160" x2="8.9" y2="180"/>
				<polyline id="XMLID_400_" class="st16" points="122.4,162 150.8,142 179.1,162 207.5,142 				"/>
				<polyline id="XMLID_53_" class="st16" points="-19.5,142 8.9,162 37.3,142 65.6,162 94,142 				"/>
			</g>
			<g id="XMLID_55_" class="st5">
				<polyline id="XMLID_57_" class="st8" points="649.5,251 677.9,271 706.3,251 734.6,271 763,251 791.4,271 819.8,251 848.1,271 
					876.5,251 				"/>
				<polyline id="XMLID_56_" class="st16" points="649.5,233 677.9,253 706.3,233 734.6,253 763,233 791.4,253 819.8,233 848.1,253 
					876.5,233 				"/>
			</g>
			<g id="XMLID_107_" class="st5">
				<circle id="XMLID_108_" class="st6" cx="276.1" cy="451.4" r="28.5"/>
				<circle id="XMLID_60_" class="st17" cx="265.8" cy="441.2" r="28.5"/>
				<circle id="XMLID_38_" class="st17" cx="265.8" cy="441.2" r="13.8"/>
			</g>
			<g id="XMLID_110_" class="st5">
				<circle id="XMLID_112_" class="st6" cx="55.3" cy="98.3" r="17.2"/>
				<circle id="XMLID_111_" class="st8" cx="49.1" cy="92.1" r="17.2"/>
			</g>
			<g id="XMLID_115_" class="st5">
				<path id="XMLID_113_" class="st18" d="M536.6,243.9l-34.4,34.4c-0.5,0.5-1.4,0.5-2,0L466,243.9c-0.5-0.5-0.5-1.4,0-2l34.4-34.4
					c0.5-0.5,1.4-0.5,2,0l34.4,34.4C537.2,242.5,537.2,243.4,536.6,243.9z"/>
				<path id="XMLID_114_" class="st18" d="M521.5,243.5l-19.6,19.6c-0.3,0.3-0.8,0.3-1.1,0l-19.6-19.6c-0.3-0.3-0.3-0.8,0-1.1
					l19.6-19.6c0.3-0.3,0.8-0.3,1.1,0l19.6,19.6C521.8,242.7,521.8,243.2,521.5,243.5z"/>
			</g>
			<g id="XMLID_117_" class="st5">
				<path id="XMLID_119_" class="st19" d="M178.7,333.7l-24.1,24.1c-0.4,0.4-1,0.4-1.4,0l-24.1-24.1c-0.4-0.4-0.4-1,0-1.4l24.1-24.1
					c0.4-0.4,1-0.4,1.4,0l24.1,24.1C179.1,332.7,179.1,333.3,178.7,333.7z"/>
				<path id="XMLID_118_" class="st14" d="M166.4,335.1l-10.3,10.3c-1.2,1.2-3.1,1.2-4.2,0l-10.3-10.3c-1.2-1.2-1.2-3.1,0-4.2
					l10.3-10.3c1.2-1.2,3.1-1.2,4.2,0l10.3,10.3C167.6,332.1,167.6,333.9,166.4,335.1z"/>
			</g>
			<g id="XMLID_406_" class="st5">
				<path id="XMLID_408_" class="st15" d="M362,157.2l-18.6,18.6c-0.3,0.3-0.8,0.3-1.1,0l-18.6-18.6c-0.3-0.3-0.3-0.8,0-1.1
					l18.6-18.6c0.3-0.3,0.8-0.3,1.1,0l18.6,18.6C362.3,156.5,362.3,156.9,362,157.2z"/>
				<path id="XMLID_407_" class="st20" d="M352.5,158.3l-8,8c-0.9,0.9-2.4,0.9-3.3,0l-8-8c-0.9-0.9-0.9-2.4,0-3.3l8-8
					c0.9-0.9,2.4-0.9,3.3,0l8,8C353.4,156,353.4,157.4,352.5,158.3z"/>
			</g>
			<g id="XMLID_109_" class="st5">
				<path id="XMLID_120_" class="st21" d="M511.2,4.3L486.5,29c-0.4,0.4-1,0.4-1.4,0L460.4,4.3c-0.4-0.4-0.4-1,0-1.4l24.7-24.7
					c0.4-0.4,1-0.4,1.4,0l24.7,24.7C511.6,3.2,511.6,3.9,511.2,4.3z"/>
				<path id="XMLID_116_" class="st14" d="M500.3,4l-14.1,14.1c-0.2,0.2-0.6,0.2-0.8,0L471.3,4c-0.2-0.2-0.2-0.6,0-0.8L485.4-11
					c0.2-0.2,0.6-0.2,0.8,0l14.1,14.1C500.5,3.4,500.5,3.7,500.3,4z"/>
			</g>
			<line id="XMLID_15_" class="st22" x1="290.7" y1="341.7" x2="477.3" y2="528.3"/>
			<line id="XMLID_412_" class="st22" x1="479.3" y1="131" x2="519.7" y2="171.3"/>
			<line id="XMLID_413_" class="st22" x1="617.3" y1="88" x2="639.2" y2="109.8"/>
			<line id="XMLID_419_" class="st23" x1="369.5" y1="-20.5" x2="409.3" y2="19.3"/>
			<line id="XMLID_414_" class="st23" x1="166" y1="406.2" x2="187.9" y2="428"/>
			<line id="XMLID_415_" class="st23" x1="276.1" y1="149.6" x2="330.9" y2="204.3"/>
			<line id="XMLID_409_" class="st23" x1="343.3" y1="425" x2="530" y2="611.7"/>
			<line id="XMLID_411_" class="st23" x1="670.3" y1="451" x2="857" y2="637.7"/>
			<line id="XMLID_357_" class="st22" x1="687.7" y1="320.7" x2="874.3" y2="507.3"/>
			<line id="XMLID_358_" class="st23" x1="718.2" y1="330.2" x2="904.8" y2="516.8"/>
			<g id="XMLID_448_" class="st5">
				<line id="XMLID_27_" class="st16" x1="56" y1="-129.7" x2="242.7" y2="57"/>
				<line id="XMLID_447_" class="st8" x1="0" y1="-153.7" x2="186.7" y2="33"/>
			</g>
			<g id="XMLID_26_" class="st5">
				<polygon id="XMLID_28_" class="st14" points="408,226.8 390,244.9 372,226.8 357.8,241 375.9,259 357.8,277 372,291.2 
					390,273.1 408,291.2 422.2,277 404.1,259 422.2,241 				"/>
				<polygon id="XMLID_30_" class="st16" points="405.7,213.2 387.7,231.2 369.6,213.2 355.5,227.3 373.5,245.3 355.5,263.4 
					369.6,277.5 387.7,259.5 405.7,277.5 419.8,263.4 401.8,245.3 419.8,227.3 				"/>
			</g>
			<g id="XMLID_31_" class="st5">
				<polygon id="XMLID_33_" class="st14" points="142,44 134,52 126,44 119.7,50.3 127.7,58.3 119.7,66.3 126,72.5 134,64.5 
					142,72.5 148.3,66.3 140.3,58.3 148.3,50.3 				"/>
				<polygon id="XMLID_32_" class="st24" points="141,37.9 133,45.9 125,37.9 118.7,44.2 126.7,52.2 117.2,59.2 123.5,65.5 
					133,58.5 141,66.5 147.2,60.2 139.2,52.2 147.2,44.2 				"/>
			</g>
			<g id="XMLID_131_" class="st5">
				<polygon id="XMLID_133_" class="st14" points="596.4,253.9 588.4,261.9 580.4,253.9 574.1,260.1 582.1,268.1 574.1,276.1 
					580.4,282.4 588.4,274.4 596.4,282.4 602.6,276.1 594.6,268.1 602.6,260.1 				"/>
				<polygon id="XMLID_132_" class="st24" points="595.3,247.8 587.3,255.8 579.3,247.8 573.1,254.1 581.1,262.1 571.6,269.1 
					577.8,275.3 587.3,268.3 595.3,276.3 601.6,270.1 593.6,262.1 601.6,254.1 				"/>
			</g>
			<g id="XMLID_389_" class="st5">
				<polygon id="XMLID_37_" class="st6" points="208.5,365.8 249.3,329.6 245.3,387.7 				"/>
				<g id="XMLID_29_">
					<polygon id="XMLID_34_" class="st8" points="200.8,352.5 244.2,319.5 235.8,377.2 					"/>
					<path id="XMLID_35_" class="st8" d="M244.2,319.5c-0.7,0.8-21.5,34.2-21.5,34.2l13.2,23.5L244.2,319.5z"/>
					<polygon id="XMLID_36_" class="st8" points="200.8,352.5 222.7,353.7 244.2,319.5 					"/>
				</g>
			</g>
			<g id="XMLID_39_" class="st5">
				<polygon id="XMLID_405_" class="st6" points="635.3,183.3 688.1,170 657.8,219.7 				"/>
				<g id="XMLID_40_">
					<polygon id="XMLID_404_" class="st8" points="634.6,168 688.2,158.6 654.3,206 					"/>
					<path id="XMLID_403_" class="st8" d="M688.2,158.6c-1,0.4-34.8,20.4-34.8,20.4l0.9,26.9L688.2,158.6z"/>
					<polygon id="XMLID_41_" class="st8" points="634.6,168 653.4,179.1 688.2,158.6 					"/>
				</g>
			</g>
			<g id="XMLID_43_" class="st5">
				<path id="XMLID_42_" class="st25" d="M272.6,283.6c6.9-6.9,18.2-6.9,25.1,0c6.9,6.9,6.9,18.2,0,25.1"/>
				<path id="XMLID_44_" class="st8" d="M272.9,283.3c6.9-6.9,18.2-6.9,25.1,0c6.9,6.9,6.9,18.2,0,25.1"/>
			</g>
			<g id="XMLID_46_" class="st5">
				<path id="XMLID_48_" class="st26" d="M509.8,79.1c6.9,6.9,6.9,18.2,0,25.1c-6.9,6.9-18.2,6.9-25.1,0"/>
				<path id="XMLID_47_" class="st8" d="M510,79.4c6.9,6.9,6.9,18.2,0,25.1c-6.9,6.9-18.2,6.9-25.1,0"/>
			</g>
			<g id="XMLID_128_" class="st5">
				<path id="XMLID_130_" class="st26" d="M130.8,520.3c-6.9-6.9-6.9-18.2,0-25.1c6.9-6.9,18.2-6.9,25.1,0"/>
				<path id="XMLID_129_" class="st8" d="M130.5,520.1c-6.9-6.9-6.9-18.2,0-25.1c6.9-6.9,18.2-6.9,25.1,0"/>
			</g>
			<path id="XMLID_45_" class="st27" d="M436,187.3c-4.6-8.7-1.3-19.4,7.4-24c8.7-4.6,19.4-1.3,24,7.4"/>
			<path id="XMLID_122_" class="st28" d="M272.8-9.7c6.9-6.9,18.2-6.9,25.1,0s6.9,18.2,0,25.1"/>
			<g id="XMLID_121_" class="st5">
				<g id="XMLID_125_">
					<path id="XMLID_126_" class="st6" d="M593.9,477.8c-2.5,0-4.9-0.9-6.8-2.8c-3.8-3.8-3.8-9.8,0-13.6c5.1-5.1,5.1-13.5,0-18.6
						c-5.1-5.1-13.5-5.1-18.6,0c-3.8,3.8-9.8,3.8-13.6,0c-3.8-3.8-3.8-9.8,0-13.6c12.6-12.6,33.1-12.6,45.8,0
						c12.6,12.6,12.6,33.1,0,45.8C598.8,476.8,596.4,477.8,593.9,477.8z"/>
				</g>
				<g id="XMLID_123_">
					<path id="XMLID_124_" class="st29" d="M599.7,472c-2.5,0-4.9-0.9-6.8-2.8c-3.8-3.8-3.8-9.8,0-13.6c5.1-5.1,5.1-13.5,0-18.6
						c-5.1-5.1-13.5-5.1-18.6,0c-3.8,3.8-9.8,3.8-13.6,0c-3.8-3.8-3.8-9.8,0-13.6c12.6-12.6,33.1-12.6,45.8,0
						c12.6,12.6,12.6,33.1,0,45.8C604.6,471,602.2,472,599.7,472z"/>
				</g>
			</g>
			<g id="XMLID_1_" class="st5">
				<g id="XMLID_127_">
					<path id="XMLID_210_" class="st6" d="M288.9,125.4c-0.1-1.1,0.6-2,1.7-2.1l0,0c1.1-0.1,2,0.6,2.1,1.7l0,0
						c0.1,1.1-0.6,2-1.7,2.1l0,0c-0.1,0-0.2,0-0.2,0l0,0C289.8,127.1,289,126.4,288.9,125.4z M276.7,125.4c-1-0.4-1.5-1.5-1.1-2.5
						l0,0c0.4-1,1.5-1.5,2.5-1.1l0,0c1,0.4,1.5,1.5,1.1,2.5l0,0c-0.3,0.8-1,1.2-1.8,1.2l0,0C277.1,125.5,276.9,125.4,276.7,125.4z
						 M301.8,121.5c-0.6-0.9-0.4-2.1,0.5-2.7l0,0c0.9-0.6,2.1-0.4,2.7,0.5l0,0c0.6,0.9,0.4,2.1-0.5,2.7l0,0
						c-0.3,0.2-0.7,0.3-1.1,0.3l0,0C302.8,122.3,302.2,122,301.8,121.5z M264.8,117.2c-0.7-0.8-0.6-2,0.2-2.7l0,0
						c0.8-0.7,2-0.6,2.7,0.2l0,0c0.7,0.8,0.6,2-0.2,2.7l0,0c-0.4,0.3-0.8,0.5-1.3,0.5l0,0C265.7,117.8,265.2,117.6,264.8,117.2z
						 M311.5,112c-0.9-0.5-1.3-1.7-0.8-2.6l0,0c0.5-0.9,1.7-1.3,2.6-0.8l0,0c0.9,0.5,1.3,1.7,0.8,2.6l0,0c-0.3,0.7-1,1-1.7,1l0,0
						C312.1,112.2,311.7,112.1,311.5,112z M258,104.4c-0.3-1,0.4-2.1,1.4-2.3l0,0c1-0.3,2.1,0.4,2.3,1.4l0,0c0.3,1-0.4,2.1-1.4,2.3
						l0,0c-0.2,0-0.3,0.1-0.5,0.1l0,0C259.1,105.9,258.3,105.3,258,104.4z M313.7,97.1C313.7,97.1,313.7,97.1,313.7,97.1L313.7,97.1
						c0-0.1,0-0.1,0-0.1l0,0c0-1.1,0.9-1.9,1.9-1.9l0,0c1.1,0,1.9,0.9,1.9,1.9l0,0c0,0,0,0,0,0.1l0,0c0,0,0,0,0,0.1l0,0
						c0,1.1-0.9,1.9-1.9,1.9l0,0C314.5,99.1,313.7,98.2,313.7,97.1z M259.4,92.3c-1-0.3-1.7-1.3-1.4-2.3l0,0c0.3-1,1.3-1.7,2.3-1.4
						l0,0c1,0.3,1.7,1.3,1.4,2.3l0,0c-0.2,0.9-1,1.5-1.9,1.5l0,0C259.7,92.4,259.6,92.3,259.4,92.3z M310.6,84.8
						c-0.5-0.9-0.1-2.1,0.8-2.6l0,0c0.9-0.5,2.1-0.1,2.6,0.8l0,0c0.5,0.9,0.1,2.1-0.8,2.6l0,0c-0.3,0.2-0.6,0.2-0.9,0.2l0,0
						C311.6,85.8,311,85.5,310.6,84.8z M264.9,79.9c-0.8-0.7-0.9-1.9-0.2-2.7l0,0c0.7-0.8,1.9-0.9,2.7-0.2l0,0
						c0.8,0.7,0.9,1.9,0.2,2.7l0,0c-0.4,0.4-0.9,0.6-1.5,0.6l0,0C265.7,80.4,265.2,80.2,264.9,79.9z M302.2,75.4
						c-0.9-0.6-1.1-1.8-0.5-2.7l0,0c0.6-0.9,1.8-1.1,2.7-0.5l0,0c0.9,0.6,1.1,1.8,0.5,2.7l0,0c-0.4,0.5-1,0.8-1.6,0.8l0,0
						C302.9,75.8,302.6,75.6,302.2,75.4z M275.5,71.4c-0.4-1,0.1-2.1,1.1-2.5l0,0l0,0l0,0c1-0.4,2.1,0.1,2.5,1.1l0,0
						c0.4,1-0.1,2.1-1.1,2.5l0,0c-0.2,0.1-0.5,0.1-0.7,0.1l0,0C276.5,72.7,275.7,72.2,275.5,71.4z M290.4,71
						c-1.1-0.1-1.8-1.1-1.7-2.1l0,0c0.1-1.1,1.1-1.8,2.1-1.7l0,0l0,0l0,0c1.1,0.1,1.8,1.1,1.7,2.1l0,0c-0.1,1-0.9,1.7-1.9,1.7l0,0
						C290.6,71,290.5,71,290.4,71z"/>
				</g>
				<g id="XMLID_14_">
					<path id="XMLID_196_" class="st6" d="M288.6,120.3c-0.1-0.9,0.5-1.6,1.4-1.8l0,0c0.9-0.1,1.7,0.5,1.8,1.4l0,0
						c0.1,0.9-0.5,1.6-1.4,1.8l0,0c-0.1,0-0.1,0-0.2,0l0,0C289.4,121.6,288.7,121.1,288.6,120.3z M278.6,120.2
						c-0.8-0.3-1.2-1.2-0.9-2l0,0c0.3-0.8,1.2-1.2,2-0.9l0,0c0.8,0.3,1.2,1.2,0.9,2l0,0c-0.2,0.6-0.8,1-1.5,1l0,0
						C279,120.3,278.8,120.3,278.6,120.2z M299.2,117c-0.5-0.7-0.3-1.7,0.4-2.2l0,0c0.7-0.5,1.7-0.3,2.2,0.4l0,0
						c0.5,0.7,0.3,1.7-0.4,2.2l0,0c-0.3,0.2-0.6,0.3-0.9,0.3l0,0C300,117.7,299.5,117.5,299.2,117z M268.9,113.5
						c-0.6-0.6-0.5-1.6,0.1-2.2l0,0c0.6-0.6,1.6-0.5,2.2,0.1l0,0c0.6,0.6,0.5,1.6-0.1,2.2l0,0c-0.3,0.3-0.7,0.4-1,0.4l0,0
						C269.6,114.1,269.2,113.9,268.9,113.5z M307.1,109.3c-0.8-0.4-1.1-1.4-0.7-2.1l0,0c0.4-0.8,1.4-1.1,2.1-0.7l0,0
						c0.8,0.4,1.1,1.4,0.7,2.1l0,0c-0.3,0.5-0.8,0.8-1.4,0.8l0,0C307.6,109.4,307.3,109.4,307.1,109.3z M263.4,103.1
						c-0.2-0.8,0.3-1.7,1.1-1.9l0,0c0.8-0.2,1.7,0.3,1.9,1.1l0,0c0.2,0.8-0.3,1.7-1.2,1.9l0,0c-0.1,0-0.3,0-0.4,0l0,0
						C264.2,104.3,263.6,103.8,263.4,103.1z M308.9,97.1L308.9,97.1C308.9,97.1,308.9,97.1,308.9,97.1L308.9,97.1
						C308.9,97.1,308.9,97.1,308.9,97.1L308.9,97.1c0-1,0.7-1.7,1.6-1.7l0,0c0.9,0,1.6,0.7,1.6,1.6l0,0c0,0,0,0,0,0.1l0,0
						c0,0,0,0,0,0l0,0c0,0.9-0.7,1.6-1.6,1.6l0,0C309.6,98.7,308.9,98,308.9,97.1z M264.5,93.2c-0.8-0.2-1.4-1.1-1.2-1.9l0,0
						c0,0,0,0,0,0l0,0c0.2-0.8,1.1-1.4,1.9-1.2l0,0c0.8,0.2,1.4,1.1,1.2,1.9l0,0c-0.2,0.7-0.8,1.2-1.5,1.2l0,0
						C264.8,93.2,264.6,93.2,264.5,93.2z M306.4,87c-0.4-0.8-0.1-1.7,0.7-2.1l0,0c0.8-0.4,1.7-0.1,2.1,0.7l0,0
						c0.4,0.8,0.1,1.7-0.7,2.1l0,0c-0.2,0.1-0.5,0.2-0.7,0.2l0,0C307.2,87.9,306.7,87.6,306.4,87z M269,83c-0.7-0.6-0.7-1.6-0.1-2.2
						l0,0c0.6-0.7,1.6-0.7,2.2-0.1l0,0c0.7,0.6,0.7,1.6,0.1,2.2l0,0c-0.3,0.4-0.8,0.5-1.2,0.5l0,0C269.6,83.4,269.3,83.3,269,83z
						 M299.5,79.4c-0.7-0.5-0.9-1.5-0.4-2.2l0,0c0.5-0.7,1.5-0.9,2.2-0.4l0,0l0,0l0,0c0.7,0.5,0.9,1.5,0.4,2.2l0,0
						c-0.3,0.4-0.8,0.7-1.3,0.7l0,0C300.1,79.6,299.8,79.6,299.5,79.4z M277.6,76.1c-0.3-0.8,0.1-1.7,0.9-2l0,0
						c0.8-0.3,1.7,0.1,2,0.9l0,0c0.3,0.8-0.1,1.7-0.9,2l0,0c-0.2,0.1-0.4,0.1-0.6,0.1l0,0C278.5,77.1,277.9,76.7,277.6,76.1z
						 M289.9,75.7c-0.9-0.1-1.5-0.9-1.4-1.7l0,0c0.1-0.9,0.9-1.5,1.8-1.4l0,0c0.9,0.1,1.5,0.9,1.4,1.7l0,0c-0.1,0.8-0.8,1.4-1.6,1.4
						l0,0C290,75.8,289.9,75.8,289.9,75.7z"/>
				</g>
				<g id="XMLID_2_">
					<path id="XMLID_3_" class="st6" d="M288.3,115.9c-0.1-0.7,0.4-1.3,1.1-1.4l0,0c0.7-0.1,1.3,0.4,1.4,1.1l0,0
						c0.1,0.7-0.4,1.3-1.1,1.4l0,0c-0.1,0-0.1,0-0.2,0l0,0C289,117,288.4,116.5,288.3,115.9z M280.3,115.8L280.3,115.8L280.3,115.8
						c-0.7-0.3-1-1-0.7-1.6l0,0c0.3-0.7,1-1,1.6-0.7l0,0c0.7,0.3,1,1,0.7,1.6l0,0c-0.2,0.5-0.7,0.8-1.2,0.8l0,0
						C280.6,115.9,280.4,115.9,280.3,115.8z M296.9,113.3c-0.4-0.6-0.3-1.4,0.3-1.8l0,0c0.6-0.4,1.4-0.3,1.8,0.3l0,0
						c0.4,0.6,0.3,1.4-0.3,1.8l0,0c-0.2,0.2-0.5,0.2-0.7,0.2l0,0C297.6,113.8,297.2,113.6,296.9,113.3z M272.4,110.4
						c-0.5-0.5-0.4-1.3,0.1-1.8l0,0c0.5-0.5,1.3-0.4,1.8,0.1l0,0c0.5,0.5,0.4,1.3-0.1,1.8l0,0c-0.2,0.2-0.5,0.3-0.8,0.3l0,0
						C273,110.8,272.6,110.7,272.4,110.4z M303.3,107c-0.6-0.3-0.9-1.1-0.5-1.7l0,0c0.3-0.6,1.1-0.9,1.7-0.5l0,0
						c0.6,0.3,0.9,1.1,0.5,1.7l0,0c-0.2,0.4-0.7,0.7-1.1,0.7l0,0C303.7,107.1,303.5,107.1,303.3,107z M267.9,101.9
						c-0.2-0.7,0.2-1.4,0.9-1.5l0,0c0.7-0.2,1.4,0.3,1.5,0.9l0,0c0.2,0.7-0.3,1.4-0.9,1.5l0,0c-0.1,0-0.2,0-0.3,0l0,0
						C268.6,102.9,268.1,102.5,267.9,101.9z M304.8,97.1C304.8,97.1,304.8,97.1,304.8,97.1L304.8,97.1
						C304.8,97.1,304.8,97.1,304.8,97.1L304.8,97.1c0-0.8,0.6-1.3,1.3-1.3l0,0c0.7,0,1.3,0.6,1.3,1.3l0,0l0,0l0,0c0,0,0,0,0,0l0,0
						c0,0,0,0,0,0l0,0c0,0.7-0.6,1.3-1.3,1.3l0,0C305.4,98.4,304.8,97.8,304.8,97.1z M268.8,93.9c-0.7-0.2-1.1-0.9-0.9-1.5l0,0
						c0.2-0.7,0.9-1.1,1.5-0.9l0,0c0.7,0.2,1.1,0.9,0.9,1.5l0,0c-0.1,0.6-0.7,1-1.2,1l0,0C269.1,94,268.9,93.9,268.8,93.9z
						 M302.8,89c-0.3-0.6-0.1-1.4,0.5-1.7l0,0c0.6-0.3,1.4-0.1,1.7,0.5l0,0c0.3,0.6,0.1,1.4-0.5,1.7l0,0c-0.2,0.1-0.4,0.1-0.6,0.1
						l0,0C303.4,89.6,303,89.4,302.8,89z M272.5,85.7c-0.5-0.5-0.6-1.3-0.1-1.8l0,0l0,0l0,0c0.5-0.5,1.3-0.6,1.8-0.1l0,0
						c0.5,0.5,0.6,1.3,0.1,1.8l0,0c-0.3,0.3-0.6,0.4-1,0.4l0,0C273,86,272.7,85.9,272.5,85.7z M297.2,82.7L297.2,82.7
						c-0.6-0.4-0.7-1.2-0.3-1.8l0,0c0.4-0.6,1.2-0.7,1.8-0.3l0,0c0.6,0.4,0.7,1.2,0.3,1.8l0,0c-0.3,0.4-0.6,0.6-1.1,0.6l0,0
						C297.7,83,297.4,82.9,297.2,82.7z M279.5,80.1c-0.3-0.7,0.1-1.4,0.7-1.7l0,0c0.7-0.3,1.4,0.1,1.6,0.7l0,0
						c0.3,0.7-0.1,1.4-0.7,1.6l0,0c-0.1,0.1-0.3,0.1-0.5,0.1l0,0C280.1,80.9,279.7,80.6,279.5,80.1z M289.4,79.8
						c-0.7-0.1-1.2-0.7-1.1-1.4l0,0c0.1-0.7,0.7-1.2,1.4-1.1l0,0c0.7,0.1,1.2,0.7,1.1,1.4l0,0c-0.1,0.6-0.6,1.1-1.3,1.1l0,0
						C289.5,79.8,289.4,79.8,289.4,79.8z"/>
				</g>
			</g>
			<g id="XMLID_311_" class="st5">
				<g id="XMLID_342_">
					<path id="XMLID_343_" class="st6" d="M66.4,276.3c-0.1-1,0.6-1.9,1.6-2l0,0c1-0.1,1.9,0.6,2,1.6l0,0c0.1,1-0.6,1.9-1.6,2l0,0
						c-0.1,0-0.2,0-0.2,0l0,0C67.3,277.9,66.5,277.2,66.4,276.3z M55,276.3c-0.9-0.4-1.4-1.4-1-2.3l0,0c0.3-0.9,1.4-1.4,2.3-1.1l0,0
						c0.9,0.4,1.4,1.4,1.1,2.3l0,0c-0.3,0.7-1,1.2-1.7,1.2l0,0C55.4,276.4,55.2,276.3,55,276.3z M78.6,272.6
						c-0.6-0.8-0.4-1.9,0.5-2.5l0,0c0.8-0.6,1.9-0.4,2.5,0.5l0,0c0.6,0.8,0.4,1.9-0.5,2.5l0,0c-0.3,0.2-0.7,0.3-1,0.3l0,0
						C79.5,273.4,78.9,273.1,78.6,272.6z M43.9,268.6c-0.7-0.7-0.6-1.9,0.1-2.6l0,0c0.7-0.7,1.9-0.6,2.6,0.2l0,0
						c0.7,0.7,0.6,1.9-0.2,2.6l0,0c-0.3,0.3-0.8,0.5-1.2,0.5l0,0C44.7,269.2,44.2,269,43.9,268.6z M87.6,263.7
						c-0.9-0.5-1.2-1.6-0.8-2.4l0,0c0.5-0.9,1.6-1.2,2.4-0.8l0,0c0.9,0.5,1.2,1.6,0.8,2.4l0,0c-0.3,0.6-1,1-1.6,1l0,0
						C88.2,263.9,87.9,263.8,87.6,263.7z M37.6,256.6c-0.2-1,0.4-1.9,1.3-2.2l0,0c1-0.2,1.9,0.3,2.2,1.3l0,0c0.2,1-0.4,1.9-1.3,2.2
						l0,0c-0.1,0-0.3,0.1-0.4,0.1l0,0C38.5,258,37.8,257.4,37.6,256.6z M89.7,249.8C89.7,249.8,89.7,249.8,89.7,249.8L89.7,249.8
						C89.7,249.7,89.7,249.7,89.7,249.8L89.7,249.8c0-1.1,0.8-1.9,1.8-1.9l0,0c1,0,1.8,0.8,1.8,1.8l0,0c0,0,0,0,0,0.1l0,0
						c0,0,0,0,0,0.1l0,0c0,1-0.8,1.8-1.8,1.8l0,0C90.5,251.6,89.7,250.8,89.7,249.8z M38.9,245.3c-1-0.2-1.6-1.2-1.3-2.2l0,0
						c0.2-1,1.2-1.6,2.2-1.3l0,0c1,0.2,1.6,1.2,1.3,2.2l0,0c-0.2,0.8-0.9,1.4-1.8,1.4l0,0C39.1,245.3,39,245.3,38.9,245.3z
						 M86.8,238.2c-0.5-0.9-0.1-2,0.8-2.4l0,0c0.9-0.5,2-0.1,2.4,0.7l0,0c0.5,0.9,0.1,2-0.7,2.4l0,0c-0.3,0.1-0.6,0.2-0.8,0.2l0,0
						C87.8,239.2,87.1,238.9,86.8,238.2z M44,233.6c-0.7-0.7-0.8-1.8-0.2-2.5l0,0c0.7-0.8,1.8-0.8,2.5-0.2l0,0
						c0.7,0.7,0.8,1.8,0.2,2.6l0,0c-0.4,0.4-0.9,0.6-1.4,0.6l0,0C44.7,234.1,44.3,233.9,44,233.6z M79,229.4c-0.8-0.6-1-1.7-0.5-2.5
						l0,0c0.6-0.8,1.7-1,2.5-0.5l0,0c0.8,0.6,1,1.7,0.5,2.5l0,0c-0.3,0.5-0.9,0.8-1.5,0.8l0,0C79.6,229.7,79.3,229.6,79,229.4z
						 M53.9,225.7c-0.4-0.9,0.1-2,1-2.3l0,0l0,0l0,0c0.9-0.4,2,0.1,2.3,1l0,0c0.4,0.9-0.1,2-1,2.3l0,0c-0.2,0.1-0.4,0.1-0.7,0.1l0,0
						C54.8,226.9,54.1,226.4,53.9,225.7z M67.9,225.3c-1-0.1-1.7-1-1.6-2l0,0c0.1-1,1-1.7,2-1.6l0,0l0,0l0,0c1,0.1,1.7,1,1.6,2l0,0
						c-0.1,0.9-0.9,1.6-1.8,1.6l0,0C68.1,225.3,68,225.3,67.9,225.3z"/>
				</g>
				<g id="XMLID_327_">
					<path id="XMLID_328_" class="st6" d="M66.2,271.5c-0.1-0.8,0.5-1.5,1.3-1.6l0,0c0.8-0.1,1.5,0.5,1.6,1.3l0,0
						c0.1,0.8-0.5,1.5-1.3,1.6l0,0c-0.1,0-0.1,0-0.2,0l0,0C66.9,272.8,66.3,272.2,66.2,271.5z M56.8,271.4c-0.8-0.3-1.1-1.1-0.9-1.9
						l0,0c0.3-0.8,1.1-1.1,1.9-0.9l0,0c0.8,0.3,1.1,1.1,0.9,1.9l0,0c-0.2,0.6-0.8,1-1.4,1l0,0C57.2,271.5,57,271.5,56.8,271.4z
						 M76.1,268.5c-0.5-0.7-0.3-1.6,0.4-2.1l0,0c0.7-0.5,1.6-0.3,2.1,0.4l0,0c0.5,0.7,0.3,1.6-0.4,2.1l0,0c-0.3,0.2-0.6,0.3-0.8,0.3
						l0,0C76.9,269.1,76.4,268.9,76.1,268.5z M47.7,265.2c-0.5-0.6-0.5-1.5,0.1-2.1l0,0c0.6-0.5,1.5-0.5,2.1,0.1l0,0
						c0.5,0.6,0.5,1.5-0.1,2.1l0,0c-0.3,0.2-0.6,0.4-1,0.4l0,0C48.4,265.7,48,265.5,47.7,265.2z M83.5,261.2c-0.7-0.4-1-1.3-0.6-2
						l0,0c0.4-0.7,1.3-1,2-0.6l0,0c0.7,0.4,1,1.3,0.6,2l0,0c-0.3,0.5-0.8,0.8-1.3,0.8l0,0C84,261.3,83.7,261.3,83.5,261.2z
						 M42.5,255.4c-0.2-0.8,0.3-1.6,1.1-1.8l0,0c0.8-0.2,1.6,0.3,1.8,1.1l0,0c0.2,0.8-0.3,1.6-1.1,1.8l0,0c-0.1,0-0.2,0-0.4,0l0,0
						C43.3,256.5,42.7,256,42.5,255.4z M85.2,249.8L85.2,249.8C85.2,249.8,85.2,249.8,85.2,249.8L85.2,249.8
						C85.2,249.7,85.2,249.7,85.2,249.8L85.2,249.8c0-0.9,0.7-1.6,1.5-1.6l0,0c0.8,0,1.5,0.7,1.5,1.5l0,0c0,0,0,0,0,0l0,0
						c0,0,0,0,0,0l0,0c0,0.8-0.7,1.5-1.5,1.5l0,0C85.9,251.3,85.2,250.6,85.2,249.8z M43.6,246.1c-0.8-0.2-1.3-1-1.1-1.8l0,0
						c0,0,0,0,0,0l0,0c0.2-0.8,1-1.3,1.8-1.1l0,0c0.8,0.2,1.3,1,1.1,1.8l0,0c-0.2,0.7-0.8,1.1-1.4,1.1l0,0
						C43.8,246.1,43.7,246.1,43.6,246.1z M82.9,240.3c-0.4-0.7-0.1-1.6,0.6-2l0,0c0.7-0.4,1.6-0.1,2,0.6l0,0c0.4,0.7,0.1,1.6-0.6,2
						l0,0c-0.2,0.1-0.5,0.2-0.7,0.2l0,0C83.6,241.1,83.1,240.8,82.9,240.3z M47.8,236.6c-0.6-0.5-0.7-1.5-0.1-2.1l0,0
						c0.5-0.6,1.5-0.7,2.1-0.1l0,0c0.6,0.5,0.7,1.5,0.1,2.1l0,0c-0.3,0.3-0.7,0.5-1.1,0.5l0,0C48.4,236.9,48.1,236.8,47.8,236.6z
						 M76.4,233.1c-0.7-0.5-0.8-1.4-0.4-2.1l0,0c0.5-0.7,1.4-0.8,2.1-0.4l0,0l0,0l0,0c0.7,0.5,0.8,1.4,0.4,2.1l0,0
						c-0.3,0.4-0.8,0.6-1.2,0.6l0,0C77,233.4,76.7,233.3,76.4,233.1z M55.9,230.1c-0.3-0.8,0.1-1.6,0.8-1.9l0,0
						c0.8-0.3,1.6,0.1,1.9,0.9l0,0c0.3,0.8-0.1,1.6-0.8,1.9l0,0c-0.2,0.1-0.4,0.1-0.5,0.1l0,0C56.7,231,56.1,230.7,55.9,230.1z
						 M67.4,229.7c-0.8-0.1-1.4-0.8-1.3-1.6l0,0c0.1-0.8,0.8-1.4,1.6-1.3l0,0c0.8,0.1,1.4,0.8,1.3,1.6l0,0c-0.1,0.8-0.7,1.3-1.5,1.3
						l0,0C67.5,229.7,67.4,229.7,67.4,229.7z"/>
				</g>
				<g id="XMLID_312_">
					<path id="XMLID_313_" class="st6" d="M66,267.4c-0.1-0.7,0.4-1.3,1-1.3l0,0c0.7-0.1,1.3,0.4,1.3,1l0,0c0.1,0.6-0.4,1.3-1,1.3
						l0,0c0,0-0.1,0-0.1,0l0,0C66.5,268.4,66,268,66,267.4z M58.4,267.3L58.4,267.3L58.4,267.3c-0.6-0.2-0.9-0.9-0.7-1.5l0,0
						c0.2-0.6,0.9-0.9,1.5-0.7l0,0c0.6,0.2,0.9,0.9,0.7,1.5l0,0c-0.2,0.5-0.6,0.8-1.1,0.8l0,0C58.7,267.4,58.5,267.4,58.4,267.3z
						 M74,264.9c-0.4-0.5-0.2-1.3,0.3-1.7l0,0c0.5-0.4,1.3-0.2,1.7,0.3l0,0c0.4,0.5,0.2,1.3-0.3,1.7l0,0c-0.2,0.1-0.4,0.2-0.7,0.2
						l0,0C74.6,265.4,74.2,265.2,74,264.9z M51,262.2c-0.4-0.5-0.4-1.2,0.1-1.7l0,0c0.5-0.4,1.3-0.4,1.7,0.1l0,0
						c0.4,0.5,0.4,1.3-0.1,1.7l0,0c-0.2,0.2-0.5,0.3-0.8,0.3l0,0C51.6,262.6,51.2,262.5,51,262.2z M80,259c-0.6-0.3-0.8-1-0.5-1.6
						l0,0c0.3-0.6,1-0.8,1.6-0.5l0,0c0.6,0.3,0.8,1,0.5,1.6l0,0c-0.2,0.4-0.6,0.6-1.1,0.6l0,0C80.4,259.1,80.2,259.1,80,259z
						 M46.8,254.3c-0.2-0.6,0.2-1.3,0.9-1.5l0,0c0.6-0.2,1.3,0.2,1.5,0.9l0,0c0.2,0.6-0.2,1.3-0.9,1.5l0,0c-0.1,0-0.2,0-0.3,0l0,0
						C47.4,255.2,46.9,254.9,46.8,254.3z M81.4,249.8C81.4,249.8,81.4,249.8,81.4,249.8L81.4,249.8
						C81.4,249.7,81.4,249.7,81.4,249.8L81.4,249.8c0-0.7,0.5-1.3,1.2-1.3l0,0c0.7,0,1.2,0.5,1.2,1.2l0,0l0,0l0,0c0,0,0,0,0,0l0,0
						c0,0,0,0,0,0l0,0c0,0.7-0.5,1.2-1.2,1.2l0,0C81.9,251,81.4,250.4,81.4,249.8z M47.7,246.8c-0.6-0.2-1-0.8-0.9-1.4l0,0
						c0.2-0.6,0.8-1,1.4-0.9l0,0c0.6,0.2,1,0.8,0.9,1.5l0,0c-0.1,0.5-0.6,0.9-1.2,0.9l0,0C47.9,246.8,47.8,246.8,47.7,246.8z
						 M79.5,242.1c-0.3-0.6-0.1-1.3,0.5-1.6l0,0c0.6-0.3,1.3-0.1,1.6,0.5l0,0c0.3,0.6,0.1,1.3-0.5,1.6l0,0c-0.2,0.1-0.4,0.1-0.6,0.1
						l0,0C80.1,242.8,79.7,242.5,79.5,242.1z M51.1,239.1c-0.5-0.4-0.5-1.2-0.1-1.7l0,0l0,0l0,0c0.4-0.5,1.2-0.5,1.7-0.1l0,0
						c0.5,0.4,0.5,1.2,0.1,1.7l0,0c-0.2,0.3-0.6,0.4-0.9,0.4l0,0C51.6,239.4,51.3,239.3,51.1,239.1z M74.3,236.3L74.3,236.3
						c-0.5-0.4-0.7-1.1-0.3-1.7l0,0c0.4-0.5,1.1-0.7,1.7-0.3l0,0c0.5,0.4,0.7,1.1,0.3,1.7l0,0c-0.2,0.3-0.6,0.5-1,0.5l0,0
						C74.7,236.5,74.5,236.4,74.3,236.3z M57.6,233.8c-0.2-0.6,0.1-1.3,0.7-1.5l0,0c0.6-0.2,1.3,0.1,1.5,0.7l0,0
						c0.2,0.6-0.1,1.3-0.7,1.5l0,0c-0.1,0.1-0.3,0.1-0.4,0.1l0,0C58.3,234.6,57.8,234.3,57.6,233.8z M66.9,233.5
						c-0.7-0.1-1.1-0.7-1.1-1.3l0,0c0.1-0.7,0.7-1.1,1.3-1l0,0c0.7,0.1,1.1,0.7,1,1.3l0,0c-0.1,0.6-0.6,1.1-1.2,1.1l0,0
						C67,233.6,67,233.6,66.9,233.5z"/>
				</g>
			</g>
			<g id="XMLID_224_" class="st5">
				<path id="XMLID_276_" class="st6" d="M414.3,369c-1-0.4-1.4-1.6-1-2.5l0,0c0.4-1,1.6-1.4,2.5-1l0,0c1,0.4,1.4,1.6,1,2.5l0,0
					c0,0.1-0.1,0.1-0.1,0.2l0,0C416.3,369,415.2,369.4,414.3,369z"/>
				<path id="XMLID_275_" class="st14" d="M408.2,379.5c-0.8,0.7-2,0.5-2.7-0.3l0,0c-0.7-0.8-0.5-2,0.3-2.7l0,0
					c0.8-0.7,2-0.5,2.7,0.3l0,0c0.5,0.6,0.6,1.5,0.2,2.2l0,0C408.5,379.2,408.4,379.4,408.2,379.5z"/>
				<path id="XMLID_274_" class="st14" d="M417.4,355.8c-1.1,0.1-2-0.7-2.1-1.8l0,0c-0.1-1.1,0.7-2,1.8-2.1l0,0
					c1.1-0.1,2,0.7,2.1,1.8l0,0c0,0.4-0.1,0.8-0.3,1.1l0,0C418.6,355.4,418.1,355.8,417.4,355.8z"/>
				<path id="XMLID_273_" class="st14" d="M395.1,385.7c-1,0.2-2.1-0.5-2.3-1.5l0,0c-0.2-1,0.5-2.1,1.5-2.3l0,0
					c1-0.2,2.1,0.5,2.3,1.5l0,0c0.1,0.5,0,1-0.2,1.3l0,0C396.2,385.2,395.7,385.6,395.1,385.7z"/>
				<path id="XMLID_272_" class="st14" d="M414.1,342.7c-0.9,0.6-2.1,0.3-2.7-0.6l0,0c-0.6-0.9-0.3-2.1,0.6-2.7l0,0
					c0.9-0.6,2.1-0.3,2.7,0.6l0,0c0.4,0.6,0.4,1.4,0,2l0,0C414.5,342.3,414.3,342.5,414.1,342.7z"/>
				<path id="XMLID_271_" class="st6" d="M380.7,385.1c-1-0.3-1.6-1.4-1.3-2.4l0,0c0.3-1,1.4-1.6,2.4-1.3l0,0c1,0.3,1.6,1.4,1.3,2.4
					l0,0c0,0.2-0.1,0.3-0.2,0.4l0,0C382.5,385,381.6,385.4,380.7,385.1z"/>
				<path id="XMLID_270_" class="st6" d="M402.3,333.4C402.3,333.4,402.3,333.3,402.3,333.4L402.3,333.4
					C402.3,333.3,402.3,333.3,402.3,333.4L402.3,333.4c-1-0.6-1.3-1.8-0.8-2.7l0,0c0.5-0.9,1.7-1.2,2.6-0.7l0,0c0,0,0,0,0.1,0l0,0
					c0,0,0,0,0.1,0l0,0c0.9,0.5,1.2,1.7,0.7,2.6l0,0C404.4,333.6,403.3,333.9,402.3,333.4z"/>
				<path id="XMLID_269_" class="st14" d="M370.9,377.8c-0.7,0.8-2,0.8-2.7,0.1l0,0c-0.8-0.7-0.8-2-0.1-2.7l0,0
					c0.7-0.8,2-0.8,2.7-0.1l0,0c0.7,0.6,0.8,1.6,0.3,2.4l0,0C371.1,377.6,371.1,377.7,370.9,377.8z"/>
				<path id="XMLID_268_" class="st6" d="M390.1,329.8c-1.1,0-1.9-0.9-1.8-2l0,0c0-1.1,0.9-1.9,2-1.8l0,0c1.1,0,1.9,0.9,1.9,2l0,0
					c0,0.3-0.1,0.6-0.3,0.9l0,0C391.5,329.5,390.9,329.9,390.1,329.8z"/>
				<path id="XMLID_267_" class="st14" d="M362.9,366.9c-1,0.3-2.1-0.2-2.4-1.2l0,0c-0.3-1,0.2-2.1,1.2-2.4l0,0
					c1-0.3,2.1,0.2,2.4,1.2l0,0c0.2,0.5,0.1,1.1-0.2,1.6l0,0C363.8,366.4,363.4,366.8,362.9,366.9z"/>
				<path id="XMLID_266_" class="st14" d="M377.8,332.4c-1,0.5-2.1,0.1-2.6-0.9l0,0c-0.5-1,0-2.1,0.9-2.6l0,0c1-0.5,2.1-0.1,2.6,0.9
					l0,0c0.3,0.6,0.2,1.3-0.1,1.8l0,0C378.5,331.9,378.2,332.2,377.8,332.4z"/>
				<path id="XMLID_265_" class="st14" d="M360.9,353.5c-1.1-0.2-1.8-1.2-1.6-2.2l0,0l0,0l0,0c0.2-1.1,1.2-1.8,2.2-1.6l0,0
					c1.1,0.2,1.8,1.2,1.6,2.2l0,0c0,0.2-0.1,0.5-0.2,0.7l0,0C362.5,353.2,361.7,353.6,360.9,353.5z"/>
				<path id="XMLID_264_" class="st6" d="M368.1,340.3c-0.6,0.8-1.8,1-2.7,0.4l0,0c-0.8-0.6-1-1.8-0.4-2.7l0,0l0,0l0,0
					c0.6-0.9,1.8-1,2.7-0.4l0,0c0.8,0.6,1,1.7,0.5,2.5l0,0C368.2,340.2,368.1,340.3,368.1,340.3z"/>
				<path id="XMLID_261_" class="st14" d="M409.8,366.7c-0.8-0.3-1.2-1.3-0.8-2.1l0,0c0.3-0.8,1.3-1.2,2.1-0.8l0,0
					c0.8,0.3,1.2,1.3,0.8,2.1l0,0c0,0.1-0.1,0.1-0.1,0.2l0,0C411.3,366.7,410.5,367,409.8,366.7z"/>
				<path id="XMLID_260_" class="st14" d="M404.7,375.3c-0.7,0.6-1.7,0.4-2.2-0.2l0,0c-0.6-0.7-0.5-1.7,0.2-2.2l0,0
					c0.7-0.6,1.7-0.4,2.2,0.2l0,0c0.4,0.5,0.5,1.2,0.1,1.8l0,0C405,375,404.9,375.1,404.7,375.3z"/>
				<path id="XMLID_259_" class="st14" d="M412.3,355.9c-0.9,0.1-1.6-0.6-1.7-1.4l0,0c-0.1-0.9,0.6-1.6,1.4-1.7l0,0
					c0.9-0.1,1.6,0.6,1.7,1.4l0,0c0,0.3-0.1,0.6-0.2,0.9l0,0C413.3,355.5,412.8,355.8,412.3,355.9z"/>
				<path id="XMLID_258_" class="st14" d="M394,380.3c-0.9,0.2-1.7-0.4-1.9-1.2l0,0c-0.2-0.9,0.4-1.7,1.2-1.9l0,0
					c0.9-0.2,1.7,0.4,1.9,1.2l0,0c0.1,0.4,0,0.8-0.2,1.1l0,0C394.9,379.9,394.5,380.2,394,380.3z"/>
				<path id="XMLID_257_" class="st6" d="M409.5,345.1c-0.7,0.5-1.7,0.2-2.2-0.5l0,0c-0.5-0.7-0.2-1.7,0.5-2.2l0,0
					c0.7-0.5,1.7-0.2,2.2,0.5l0,0c0.3,0.5,0.3,1.1,0,1.6l0,0C409.9,344.8,409.8,345,409.5,345.1z"/>
				<path id="XMLID_256_" class="st14" d="M382.2,379.8c-0.8-0.2-1.3-1.1-1.1-2l0,0c0.2-0.8,1.1-1.3,2-1.1l0,0
					c0.8,0.2,1.3,1.1,1.1,2l0,0c0,0.1-0.1,0.2-0.2,0.4l0,0C383.7,379.7,383,380,382.2,379.8z"/>
				<path id="XMLID_255_" class="st14" d="M399.9,337.5L399.9,337.5C399.9,337.5,399.9,337.5,399.9,337.5L399.9,337.5
					C399.9,337.5,399.9,337.5,399.9,337.5L399.9,337.5c-0.8-0.5-1.1-1.4-0.7-2.2l0,0c0.4-0.8,1.4-1,2.2-0.6l0,0c0,0,0,0,0,0l0,0
					c0,0,0,0,0,0l0,0c0.8,0.4,1,1.4,0.6,2.2l0,0C401.7,337.7,400.7,337.9,399.9,337.5z"/>
				<path id="XMLID_254_" class="st14" d="M374.3,373.9c-0.6,0.6-1.6,0.7-2.2,0l0,0c0,0,0,0,0,0l0,0c-0.6-0.6-0.6-1.6,0-2.2l0,0
					c0.6-0.6,1.6-0.6,2.2,0l0,0c0.5,0.5,0.6,1.3,0.3,1.9l0,0C374.4,373.7,374.3,373.8,374.3,373.9z"/>
				<path id="XMLID_253_" class="st14" d="M390,334.6c-0.9,0-1.5-0.8-1.5-1.6l0,0c0-0.9,0.8-1.5,1.6-1.5l0,0c0.9,0,1.6,0.8,1.5,1.6
					l0,0c0,0.3-0.1,0.5-0.2,0.7l0,0C391.1,334.3,390.6,334.6,390,334.6z"/>
				<path id="XMLID_252_" class="st6" d="M367.7,364.9c-0.8,0.3-1.7-0.2-2-1l0,0c-0.3-0.8,0.2-1.7,1-2l0,0c0.8-0.3,1.7,0.2,2,1l0,0
					c0.1,0.4,0.1,0.9-0.1,1.3l0,0C368.4,364.6,368.1,364.8,367.7,364.9z"/>
				<path id="XMLID_251_" class="st14" d="M379.9,336.7c-0.8,0.4-1.7,0-2.1-0.8l0,0c-0.4-0.8,0-1.7,0.7-2.1l0,0l0,0l0,0
					c0.8-0.4,1.7,0,2.1,0.7l0,0c0.2,0.5,0.2,1-0.1,1.5l0,0C380.4,336.3,380.2,336.5,379.9,336.7z"/>
				<path id="XMLID_250_" class="st14" d="M366.1,354c-0.9-0.1-1.4-0.9-1.3-1.8l0,0c0.1-0.9,0.9-1.4,1.8-1.3l0,0
					c0.9,0.1,1.4,0.9,1.3,1.8l0,0c0,0.2-0.1,0.4-0.2,0.5l0,0C367.4,353.8,366.7,354.1,366.1,354z"/>
				<path id="XMLID_249_" class="st14" d="M371.9,343.2c-0.5,0.7-1.5,0.8-2.2,0.3l0,0c-0.7-0.5-0.8-1.5-0.3-2.2l0,0
					c0.5-0.7,1.5-0.8,2.2-0.3l0,0c0.6,0.5,0.8,1.4,0.4,2.1l0,0C372,343.1,371.9,343.2,371.9,343.2z"/>
				<path id="XMLID_246_" class="st14" d="M405.8,364.7c-0.6-0.3-0.9-1-0.7-1.7l0,0c0.3-0.6,1-1,1.7-0.7l0,0c0.6,0.3,0.9,1,0.7,1.7
					l0,0c0,0,0,0.1-0.1,0.1l0,0C407.1,364.7,406.4,364.9,405.8,364.7z"/>
				<path id="XMLID_245_" class="st14" d="M401.8,371.6L401.8,371.6L401.8,371.6c-0.5,0.4-1.4,0.4-1.8-0.2l0,0
					c-0.4-0.5-0.4-1.3,0.2-1.8l0,0c0.5-0.4,1.4-0.4,1.8,0.2l0,0c0.3,0.4,0.4,1,0.1,1.4l0,0C402,371.4,401.9,371.5,401.8,371.6z"/>
				<path id="XMLID_244_" class="st14" d="M407.9,355.9c-0.7,0.1-1.3-0.5-1.4-1.2l0,0c-0.1-0.7,0.5-1.3,1.2-1.4l0,0
					c0.7-0.1,1.3,0.5,1.4,1.2l0,0c0,0.3,0,0.5-0.2,0.7l0,0C408.7,355.6,408.3,355.9,407.9,355.9z"/>
				<path id="XMLID_243_" class="st6" d="M393.1,375.7c-0.7,0.1-1.4-0.3-1.5-1l0,0c-0.1-0.7,0.3-1.4,1-1.5l0,0
					c0.7-0.1,1.4,0.3,1.5,1l0,0c0.1,0.3,0,0.6-0.1,0.9l0,0C393.8,375.4,393.5,375.7,393.1,375.7z"/>
				<path id="XMLID_242_" class="st14" d="M405.7,347.2c-0.6,0.4-1.4,0.2-1.8-0.4l0,0c-0.4-0.6-0.2-1.4,0.4-1.8l0,0
					c0.6-0.4,1.4-0.2,1.8,0.4l0,0c0.3,0.4,0.3,0.9,0,1.3l0,0C406,347,405.8,347.1,405.7,347.2z"/>
				<path id="XMLID_241_" class="st14" d="M383.6,375.3c-0.7-0.2-1.1-0.9-0.9-1.6l0,0c0.2-0.7,0.9-1.1,1.6-0.9l0,0
					c0.7,0.2,1.1,0.9,0.9,1.6l0,0c0,0.1-0.1,0.2-0.1,0.3l0,0C384.7,375.3,384.1,375.5,383.6,375.3z"/>
				<path id="XMLID_240_" class="st6" d="M397.9,341C397.9,341,397.9,341,397.9,341L397.9,341C397.8,341,397.8,341,397.9,341
					L397.9,341c-0.7-0.4-0.9-1.2-0.5-1.8l0,0c0.3-0.6,1.1-0.8,1.7-0.5l0,0l0,0l0,0c0,0,0,0,0,0l0,0c0,0,0,0,0,0l0,0
					c0.6,0.4,0.8,1.1,0.5,1.7l0,0C399.3,341.2,398.5,341.4,397.9,341z"/>
				<path id="XMLID_239_" class="st6" d="M377.1,370.5c-0.5,0.5-1.3,0.5-1.8,0l0,0c-0.5-0.5-0.5-1.3,0-1.8l0,0
					c0.5-0.5,1.3-0.5,1.8,0l0,0c0.4,0.4,0.5,1.1,0.2,1.6l0,0C377.2,370.4,377.1,370.4,377.1,370.5z"/>
				<path id="XMLID_233_" class="st14" d="M389.8,338.7c-0.7,0-1.3-0.6-1.2-1.3l0,0c0-0.7,0.6-1.3,1.3-1.2l0,0
					c0.7,0,1.3,0.6,1.2,1.3l0,0c0,0.2-0.1,0.4-0.2,0.6l0,0C390.7,338.5,390.3,338.7,389.8,338.7z"/>
				<path id="XMLID_231_" class="st14" d="M371.8,363.3c-0.7,0.2-1.4-0.1-1.6-0.8l0,0l0,0l0,0c-0.2-0.7,0.1-1.4,0.8-1.6l0,0
					c0.7-0.2,1.4,0.1,1.6,0.8l0,0c0.1,0.4,0.1,0.7-0.1,1l0,0C372.3,363,372.1,363.2,371.8,363.3z"/>
				<path id="XMLID_230_" class="st14" d="M381.6,340.4L381.6,340.4c-0.6,0.3-1.4,0-1.7-0.6l0,0c-0.3-0.6,0-1.4,0.6-1.7l0,0
					c0.6-0.3,1.4,0,1.7,0.6l0,0c0.2,0.4,0.2,0.8,0,1.2l0,0C382.1,340.1,381.9,340.3,381.6,340.4z"/>
				<path id="XMLID_229_" class="st14" d="M370.4,354.4c-0.7-0.1-1.2-0.8-1.1-1.5l0,0c0.1-0.7,0.8-1.2,1.5-1.1l0,0
					c0.7,0.1,1.2,0.8,1.1,1.5l0,0c0,0.2-0.1,0.3-0.2,0.4l0,0C371.5,354.2,371,354.5,370.4,354.4z"/>
				<path id="XMLID_228_" class="st14" d="M375.2,345.7c-0.4,0.6-1.2,0.7-1.8,0.3l0,0c-0.6-0.4-0.7-1.2-0.3-1.8l0,0
					c0.4-0.6,1.2-0.7,1.8-0.3l0,0c0.5,0.4,0.7,1.1,0.3,1.7l0,0C375.2,345.6,375.2,345.6,375.2,345.7z"/>
			</g>
			<g id="XMLID_226_" class="st5">
				<path id="XMLID_310_" class="st6" d="M663.3,23.2c-1-0.4-1.4-1.6-1-2.5l0,0c0.4-1,1.6-1.4,2.5-1l0,0c1,0.4,1.4,1.6,1,2.5l0,0
					c0,0.1-0.1,0.1-0.1,0.2l0,0C665.3,23.2,664.2,23.6,663.3,23.2z"/>
				<path id="XMLID_309_" class="st14" d="M657.2,33.7c-0.8,0.7-2,0.5-2.7-0.3l0,0c-0.7-0.8-0.5-2,0.3-2.7l0,0
					c0.8-0.7,2-0.5,2.7,0.3l0,0c0.5,0.6,0.6,1.5,0.2,2.2l0,0C657.5,33.4,657.4,33.6,657.2,33.7z"/>
				<path id="XMLID_308_" class="st14" d="M666.4,10c-1.1,0.1-2-0.7-2.1-1.8l0,0c-0.1-1.1,0.7-2,1.8-2.1l0,0c1.1-0.1,2,0.7,2.1,1.8
					l0,0c0,0.4-0.1,0.8-0.3,1.1l0,0C667.6,9.6,667.1,10,666.4,10z"/>
				<path id="XMLID_307_" class="st14" d="M644.1,39.9c-1,0.2-2.1-0.5-2.3-1.5l0,0c-0.2-1,0.5-2.1,1.5-2.3l0,0
					c1-0.2,2.1,0.5,2.3,1.5l0,0c0.1,0.5,0,1-0.2,1.3l0,0C645.2,39.4,644.7,39.8,644.1,39.9z"/>
				<path id="XMLID_306_" class="st14" d="M663.1-3.1c-0.9,0.6-2.1,0.3-2.7-0.6l0,0c-0.6-0.9-0.3-2.1,0.6-2.7l0,0
					c0.9-0.6,2.1-0.3,2.7,0.6l0,0c0.4,0.6,0.4,1.4,0,2l0,0C663.5-3.5,663.3-3.3,663.1-3.1z"/>
				<path id="XMLID_305_" class="st6" d="M629.7,39.3c-1-0.3-1.6-1.4-1.3-2.4l0,0c0.3-1,1.4-1.6,2.4-1.3l0,0c1,0.3,1.6,1.4,1.3,2.4
					l0,0c0,0.2-0.1,0.3-0.2,0.4l0,0C631.5,39.2,630.6,39.6,629.7,39.3z"/>
				<path id="XMLID_304_" class="st6" d="M651.3-12.4C651.3-12.4,651.3-12.4,651.3-12.4L651.3-12.4
					C651.3-12.5,651.3-12.5,651.3-12.4L651.3-12.4c-1-0.6-1.3-1.8-0.8-2.7l0,0c0.5-0.9,1.7-1.2,2.6-0.7l0,0c0,0,0,0,0.1,0l0,0
					c0,0,0,0,0.1,0l0,0c0.9,0.5,1.2,1.7,0.7,2.6l0,0C653.4-12.2,652.3-11.9,651.3-12.4z"/>
				<path id="XMLID_303_" class="st14" d="M619.9,32c-0.7,0.8-2,0.8-2.7,0.1l0,0c-0.8-0.7-0.8-2-0.1-2.7l0,0c0.7-0.8,2-0.8,2.7-0.1
					l0,0c0.7,0.6,0.8,1.6,0.3,2.4l0,0C620.1,31.8,620.1,31.9,619.9,32z"/>
				<path id="XMLID_302_" class="st6" d="M639.1-16c-1.1,0-1.9-0.9-1.8-2l0,0c0-1.1,0.9-1.9,2-1.8l0,0c1.1,0,1.9,0.9,1.9,2l0,0
					c0,0.3-0.1,0.6-0.3,0.9l0,0C640.5-16.3,639.9-15.9,639.1-16z"/>
				<path id="XMLID_301_" class="st14" d="M611.9,21.1c-1,0.3-2.1-0.2-2.4-1.2l0,0c-0.3-1,0.2-2.1,1.2-2.4l0,0
					c1-0.3,2.1,0.2,2.4,1.2l0,0c0.2,0.5,0.1,1.1-0.2,1.6l0,0C612.8,20.6,612.4,21,611.9,21.1z"/>
				<path id="XMLID_300_" class="st14" d="M626.8-13.4c-1,0.5-2.1,0.1-2.6-0.9l0,0c-0.5-1,0-2.1,0.9-2.6l0,0c1-0.5,2.1-0.1,2.6,0.9
					l0,0c0.3,0.6,0.2,1.3-0.1,1.8l0,0C627.5-13.9,627.2-13.6,626.8-13.4z"/>
				<path id="XMLID_299_" class="st14" d="M609.9,7.7c-1.1-0.2-1.8-1.2-1.6-2.2l0,0l0,0l0,0c0.2-1.1,1.2-1.8,2.2-1.6l0,0
					c1.1,0.2,1.8,1.2,1.6,2.2l0,0c0,0.2-0.1,0.5-0.2,0.7l0,0C611.5,7.5,610.7,7.9,609.9,7.7z"/>
				<path id="XMLID_298_" class="st6" d="M617.1-5.5c-0.6,0.8-1.8,1-2.7,0.4l0,0c-0.8-0.6-1-1.8-0.4-2.7l0,0l0,0l0,0
					c0.6-0.9,1.8-1,2.7-0.4l0,0c0.8,0.6,1,1.7,0.5,2.5l0,0C617.2-5.6,617.1-5.5,617.1-5.5z"/>
				<path id="XMLID_297_" class="st14" d="M658.8,20.9c-0.8-0.3-1.2-1.3-0.8-2.1l0,0c0.3-0.8,1.3-1.2,2.1-0.8l0,0
					c0.8,0.3,1.2,1.3,0.8,2.1l0,0c0,0.1-0.1,0.1-0.1,0.2l0,0C660.3,20.9,659.5,21.2,658.8,20.9z"/>
				<path id="XMLID_296_" class="st14" d="M653.7,29.5c-0.7,0.6-1.7,0.4-2.2-0.2l0,0c-0.6-0.7-0.5-1.7,0.2-2.2l0,0
					c0.7-0.6,1.7-0.4,2.2,0.2l0,0c0.4,0.5,0.5,1.2,0.1,1.8l0,0C654,29.2,653.9,29.4,653.7,29.5z"/>
				<path id="XMLID_295_" class="st14" d="M661.3,10.1c-0.9,0.1-1.6-0.6-1.7-1.4l0,0c-0.1-0.9,0.6-1.6,1.4-1.7l0,0
					c0.9-0.1,1.6,0.6,1.7,1.4l0,0c0,0.3-0.1,0.6-0.2,0.9l0,0C662.3,9.7,661.8,10,661.3,10.1z"/>
				<path id="XMLID_294_" class="st14" d="M643,34.5c-0.9,0.2-1.7-0.4-1.9-1.2l0,0c-0.2-0.9,0.4-1.7,1.2-1.9l0,0
					c0.9-0.2,1.7,0.4,1.9,1.2l0,0c0.1,0.4,0,0.8-0.2,1.1l0,0C643.9,34.2,643.5,34.4,643,34.5z"/>
				<path id="XMLID_293_" class="st6" d="M658.5-0.6c-0.7,0.5-1.7,0.2-2.2-0.5l0,0c-0.5-0.7-0.2-1.7,0.5-2.2l0,0
					c0.7-0.5,1.7-0.2,2.2,0.5l0,0c0.3,0.5,0.3,1.1,0,1.6l0,0C658.9-1,658.8-0.8,658.5-0.6z"/>
				<path id="XMLID_292_" class="st14" d="M631.2,34.1c-0.8-0.2-1.3-1.1-1.1-2l0,0c0.2-0.8,1.1-1.3,2-1.1l0,0c0.8,0.2,1.3,1.1,1.1,2
					l0,0c0,0.1-0.1,0.2-0.2,0.4l0,0C632.7,33.9,632,34.3,631.2,34.1z"/>
				<path id="XMLID_291_" class="st14" d="M648.9-8.3L648.9-8.3C648.9-8.3,648.9-8.3,648.9-8.3L648.9-8.3
					C648.9-8.3,648.9-8.3,648.9-8.3L648.9-8.3c-0.8-0.5-1.1-1.4-0.7-2.2l0,0c0.4-0.8,1.4-1,2.2-0.6l0,0c0,0,0,0,0,0l0,0c0,0,0,0,0,0
					l0,0c0.8,0.4,1,1.4,0.6,2.2l0,0C650.7-8.1,649.7-7.8,648.9-8.3z"/>
				<path id="XMLID_290_" class="st14" d="M623.3,28.1c-0.6,0.6-1.6,0.7-2.2,0l0,0c0,0,0,0,0,0l0,0c-0.6-0.6-0.6-1.6,0-2.2l0,0
					c0.6-0.6,1.6-0.6,2.2,0l0,0c0.5,0.5,0.6,1.3,0.3,1.9l0,0C623.4,27.9,623.3,28,623.3,28.1z"/>
				<path id="XMLID_289_" class="st14" d="M639-11.2c-0.9,0-1.5-0.8-1.5-1.6l0,0c0-0.9,0.8-1.5,1.6-1.5l0,0c0.9,0,1.6,0.8,1.5,1.6
					l0,0c0,0.3-0.1,0.5-0.2,0.7l0,0C640.1-11.5,639.6-11.2,639-11.2z"/>
				<path id="XMLID_288_" class="st6" d="M616.7,19.2c-0.8,0.3-1.7-0.2-2-1l0,0c-0.3-0.8,0.2-1.7,1-2l0,0c0.8-0.3,1.7,0.2,2,1l0,0
					c0.1,0.4,0.1,0.9-0.1,1.3l0,0C617.4,18.8,617.1,19,616.7,19.2z"/>
				<path id="XMLID_287_" class="st14" d="M628.9-9.1c-0.8,0.4-1.7,0-2.1-0.8l0,0c-0.4-0.8,0-1.7,0.7-2.1l0,0l0,0l0,0
					c0.8-0.4,1.7,0,2.1,0.7l0,0c0.2,0.5,0.2,1-0.1,1.5l0,0C629.4-9.5,629.2-9.3,628.9-9.1z"/>
				<path id="XMLID_286_" class="st14" d="M615.1,8.2c-0.9-0.1-1.4-0.9-1.3-1.8l0,0c0.1-0.9,0.9-1.4,1.8-1.3l0,0
					c0.9,0.1,1.4,0.9,1.3,1.8l0,0c0,0.2-0.1,0.4-0.2,0.5l0,0C616.4,8,615.7,8.3,615.1,8.2z"/>
				<path id="XMLID_285_" class="st14" d="M620.9-2.6c-0.5,0.7-1.5,0.8-2.2,0.3l0,0c-0.7-0.5-0.8-1.5-0.3-2.2l0,0
					c0.5-0.7,1.5-0.8,2.2-0.3l0,0c0.6,0.5,0.8,1.4,0.4,2.1l0,0C621-2.7,620.9-2.6,620.9-2.6z"/>
				<path id="XMLID_284_" class="st14" d="M654.8,18.9c-0.6-0.3-0.9-1-0.7-1.7l0,0c0.3-0.6,1-1,1.7-0.7l0,0c0.6,0.3,0.9,1,0.7,1.7
					l0,0c0,0,0,0.1-0.1,0.1l0,0C656.1,18.9,655.4,19.1,654.8,18.9z"/>
				<path id="XMLID_283_" class="st14" d="M650.8,25.8L650.8,25.8L650.8,25.8c-0.5,0.4-1.4,0.4-1.8-0.2l0,0
					c-0.4-0.5-0.4-1.3,0.2-1.8l0,0c0.5-0.4,1.4-0.4,1.8,0.2l0,0c0.3,0.4,0.4,1,0.1,1.4l0,0C651,25.6,650.9,25.7,650.8,25.8z"/>
				<path id="XMLID_282_" class="st14" d="M656.9,10.1c-0.7,0.1-1.3-0.5-1.4-1.2l0,0c-0.1-0.7,0.5-1.3,1.2-1.4l0,0
					c0.7-0.1,1.3,0.5,1.4,1.2l0,0c0,0.3,0,0.5-0.2,0.7l0,0C657.7,9.8,657.3,10.1,656.9,10.1z"/>
				<path id="XMLID_281_" class="st6" d="M642.1,29.9c-0.7,0.1-1.4-0.3-1.5-1l0,0c-0.1-0.7,0.3-1.4,1-1.5l0,0c0.7-0.1,1.4,0.3,1.5,1
					l0,0c0.1,0.3,0,0.6-0.1,0.9l0,0C642.8,29.6,642.5,29.9,642.1,29.9z"/>
				<path id="XMLID_280_" class="st14" d="M654.7,1.4c-0.6,0.4-1.4,0.2-1.8-0.4l0,0c-0.4-0.6-0.2-1.4,0.4-1.8l0,0
					c0.6-0.4,1.4-0.2,1.8,0.4l0,0c0.3,0.4,0.3,0.9,0,1.3l0,0C655,1.2,654.8,1.3,654.7,1.4z"/>
				<path id="XMLID_279_" class="st14" d="M632.6,29.5c-0.7-0.2-1.1-0.9-0.9-1.6l0,0c0.2-0.7,0.9-1.1,1.6-0.9l0,0
					c0.7,0.2,1.1,0.9,0.9,1.6l0,0c0,0.1-0.1,0.2-0.1,0.3l0,0C633.7,29.5,633.1,29.7,632.6,29.5z"/>
				<path id="XMLID_278_" class="st6" d="M646.9-4.8C646.9-4.8,646.9-4.8,646.9-4.8L646.9-4.8C646.8-4.8,646.8-4.8,646.9-4.8
					L646.9-4.8c-0.7-0.4-0.9-1.2-0.5-1.8l0,0c0.3-0.6,1.1-0.8,1.7-0.5l0,0l0,0l0,0c0,0,0,0,0,0l0,0c0,0,0,0,0,0l0,0
					c0.6,0.4,0.8,1.1,0.5,1.7l0,0C648.3-4.6,647.5-4.4,646.9-4.8z"/>
				<path id="XMLID_277_" class="st6" d="M626.1,24.7c-0.5,0.5-1.3,0.5-1.8,0l0,0c-0.5-0.5-0.5-1.3,0-1.8l0,0c0.5-0.5,1.3-0.5,1.8,0
					l0,0c0.4,0.4,0.5,1.1,0.2,1.6l0,0C626.2,24.6,626.1,24.6,626.1,24.7z"/>
				<path id="XMLID_263_" class="st14" d="M638.8-7.1c-0.7,0-1.3-0.6-1.2-1.3l0,0c0-0.7,0.6-1.3,1.3-1.2l0,0c0.7,0,1.3,0.6,1.2,1.3
					l0,0c0,0.2-0.1,0.4-0.2,0.6l0,0C639.7-7.3,639.3-7.1,638.8-7.1z"/>
				<path id="XMLID_262_" class="st14" d="M620.8,17.5c-0.7,0.2-1.4-0.1-1.6-0.8l0,0l0,0l0,0c-0.2-0.7,0.1-1.4,0.8-1.6l0,0
					c0.7-0.2,1.4,0.1,1.6,0.8l0,0c0.1,0.4,0.1,0.7-0.1,1l0,0C621.3,17.2,621.1,17.4,620.8,17.5z"/>
				<path id="XMLID_248_" class="st14" d="M630.6-5.4L630.6-5.4c-0.6,0.3-1.4,0-1.7-0.6l0,0c-0.3-0.6,0-1.4,0.6-1.7l0,0
					c0.6-0.3,1.4,0,1.7,0.6l0,0c0.2,0.4,0.2,0.8,0,1.2l0,0C631.1-5.7,630.9-5.5,630.6-5.4z"/>
				<path id="XMLID_247_" class="st14" d="M619.4,8.6c-0.7-0.1-1.2-0.8-1.1-1.5l0,0c0.1-0.7,0.8-1.2,1.5-1.1l0,0
					c0.7,0.1,1.2,0.8,1.1,1.5l0,0c0,0.2-0.1,0.3-0.2,0.4l0,0C620.5,8.4,620,8.7,619.4,8.6z"/>
				<path id="XMLID_227_" class="st14" d="M624.2-0.1c-0.4,0.6-1.2,0.7-1.8,0.3l0,0c-0.6-0.4-0.7-1.2-0.3-1.8l0,0
					c0.4-0.6,1.2-0.7,1.8-0.3l0,0c0.5,0.4,0.7,1.1,0.3,1.7l0,0C624.2-0.2,624.2-0.2,624.2-0.1z"/>
			</g>
			<g id="XMLID_361_" class="st5">
				<g id="XMLID_359_">
					<path id="XMLID_225_" class="st6" d="M4.2-10.4C2.9-9,0.9-9-0.4-10.2c-1.3-1.2-1.4-3.3-0.2-4.6C0.6-16.1,2.7-16.2,4-15
						C5.3-13.8,5.4-11.7,4.2-10.4z"/>
					<path id="XMLID_362_" class="st6" d="M46.2,28.5c-1.2,1.3-3.3,1.4-4.6,0.2c-1.3-1.2-1.4-3.3-0.2-4.6c1.2-1.3,3.3-1.4,4.6-0.2
						C47.4,25.1,47.4,27.1,46.2,28.5z"/>
					<path id="XMLID_363_" class="st14" d="M60.2,41.4c-1.2,1.3-3.3,1.4-4.6,0.2c-1.3-1.2-1.4-3.3-0.2-4.6c1.2-1.3,3.3-1.4,4.6-0.2
						C61.4,38,61.5,40.1,60.2,41.4z"/>
				</g>
				<g id="XMLID_365_">
					<path id="XMLID_369_" class="st6" d="M29.9-10.2c-1.2,1.3-3.3,1.4-4.6,0.2c-1.3-1.2-1.4-3.3-0.2-4.6c1.2-1.3,3.3-1.4,4.6-0.2
						C31.1-13.5,31.2-11.5,29.9-10.2z"/>
					<path id="XMLID_368_" class="st6" d="M44,2.8c-1.2,1.3-3.3,1.4-4.6,0.2c-1.3-1.2-1.4-3.3-0.2-4.6C40.4-3,42.5-3,43.8-1.8
						C45.1-0.6,45.2,1.5,44,2.8z"/>
				</g>
				<g id="XMLID_371_">
					<path id="XMLID_376_" class="st6" d="M27.7-35.8c-1.2,1.3-3.3,1.4-4.6,0.2c-1.3-1.2-1.4-3.3-0.2-4.6c1.2-1.3,3.3-1.4,4.6-0.2
						C28.8-39.2,28.9-37.1,27.7-35.8z"/>
					<path id="XMLID_375_" class="st14" d="M41.7-22.9c-1.2,1.3-3.3,1.4-4.6,0.2c-1.3-1.2-1.4-3.3-0.2-4.6c1.2-1.3,3.3-1.4,4.6-0.2
						C42.8-26.3,42.9-24.2,41.7-22.9z"/>
					<path id="XMLID_374_" class="st6" d="M55.7-9.9c-1.2,1.3-3.3,1.4-4.6,0.2c-1.3-1.2-1.4-3.3-0.2-4.6c1.2-1.3,3.3-1.4,4.6-0.2
						C56.9-13.3,56.9-11.3,55.7-9.9z"/>
					<path id="XMLID_373_" class="st6" d="M69.7,3c-1.2,1.3-3.3,1.4-4.6,0.2c-1.3-1.2-1.4-3.3-0.2-4.6c1.2-1.3,3.3-1.4,4.6-0.2
						C70.9-0.4,71,1.7,69.7,3z"/>
					<path id="XMLID_372_" class="st6" d="M83.8,16c-1.2,1.3-3.3,1.4-4.6,0.2c-1.3-1.2-1.4-3.3-0.2-4.6c1.2-1.3,3.3-1.4,4.6-0.2
						C84.9,12.6,85,14.6,83.8,16z"/>
				</g>
				<g id="XMLID_377_">
					<path id="XMLID_382_" class="st14" d="M39.4-48.6c-1.2,1.3-3.3,1.4-4.6,0.2c-1.3-1.2-1.4-3.3-0.2-4.6c1.2-1.3,3.3-1.4,4.6-0.2
						C40.6-51.9,40.6-49.9,39.4-48.6z"/>
					<path id="XMLID_380_" class="st6" d="M67.5-22.7c-1.2,1.3-3.3,1.4-4.6,0.2c-1.3-1.2-1.4-3.3-0.2-4.6c1.2-1.3,3.3-1.4,4.6-0.2
						C68.6-26.1,68.7-24,67.5-22.7z"/>
					<path id="XMLID_379_" class="st14" d="M81.5-9.7c-1.2,1.3-3.3,1.4-4.6,0.2c-1.3-1.2-1.4-3.3-0.2-4.6c1.2-1.3,3.3-1.4,4.6-0.2
						C82.6-13.1,82.7-11,81.5-9.7z"/>
				</g>
			</g>
			<g id="XMLID_366_" class="st5">
				<g id="XMLID_394_">
					<path id="XMLID_398_" class="st6" d="M469.8,483.9c-1.2,1.3-3.3,1.5-4.6,0.3c-1.3-1.2-1.5-3.3-0.3-4.6c1.2-1.3,3.3-1.5,4.6-0.3
						C470.9,480.5,471,482.6,469.8,483.9z"/>
					<path id="XMLID_397_" class="st14" d="M484.1,496.6c-1.2,1.3-3.3,1.5-4.6,0.3c-1.3-1.2-1.5-3.3-0.3-4.6
						c1.2-1.3,3.3-1.5,4.6-0.3C485.2,493.2,485.3,495.3,484.1,496.6z"/>
					<path id="XMLID_396_" class="st6" d="M512.6,522c-1.2,1.3-3.3,1.5-4.6,0.3c-1.3-1.2-1.5-3.3-0.3-4.6s3.3-1.5,4.6-0.3
						C513.7,518.6,513.8,520.6,512.6,522z"/>
					<path id="XMLID_395_" class="st14" d="M526.9,534.7c-1.2,1.3-3.3,1.5-4.6,0.3c-1.3-1.2-1.5-3.3-0.3-4.6
						c1.2-1.3,3.3-1.5,4.6-0.3S528.1,533.3,526.9,534.7z"/>
				</g>
				<g id="XMLID_390_">
					<path id="XMLID_393_" class="st6" d="M495.6,483.7c-1.2,1.3-3.3,1.5-4.6,0.3c-1.3-1.2-1.5-3.3-0.3-4.6c1.2-1.3,3.3-1.5,4.6-0.3
						C496.7,480.3,496.8,482.3,495.6,483.7z"/>
					<path id="XMLID_392_" class="st6" d="M509.9,496.4c-1.2,1.3-3.3,1.5-4.6,0.3c-1.3-1.2-1.5-3.3-0.3-4.6c1.2-1.3,3.3-1.5,4.6-0.3
						C510.9,492.9,511.1,495,509.9,496.4z"/>
					<path id="XMLID_391_" class="st14" d="M524.1,509c-1.2,1.3-3.3,1.5-4.6,0.3c-1.3-1.2-1.5-3.3-0.3-4.6c1.2-1.3,3.3-1.5,4.6-0.3
						S525.3,507.7,524.1,509z"/>
				</g>
				<g id="XMLID_384_">
					<path id="XMLID_388_" class="st14" d="M507.1,470.7c-1.2,1.3-3.3,1.5-4.6,0.3c-1.3-1.2-1.5-3.3-0.3-4.6
						c1.2-1.3,3.3-1.5,4.6-0.3C508.2,467.3,508.3,469.4,507.1,470.7z"/>
					<path id="XMLID_387_" class="st6" d="M521.4,483.4c-1.2,1.3-3.3,1.5-4.6,0.3c-1.3-1.2-1.5-3.3-0.3-4.6c1.2-1.3,3.3-1.5,4.6-0.3
						C522.5,480,522.6,482.1,521.4,483.4z"/>
					<path id="XMLID_386_" class="st6" d="M535.6,496.1c-1.2,1.3-3.3,1.5-4.6,0.3c-1.3-1.2-1.5-3.3-0.3-4.6c1.2-1.3,3.3-1.5,4.6-0.3
						C536.7,492.7,536.8,494.7,535.6,496.1z"/>
					<path id="XMLID_385_" class="st6" d="M549.9,508.8c-1.2,1.3-3.3,1.5-4.6,0.3c-1.3-1.2-1.5-3.3-0.3-4.6c1.2-1.3,3.3-1.5,4.6-0.3
						C551,505.4,551.1,507.4,549.9,508.8z"/>
				</g>
				<g id="XMLID_370_">
					<path id="XMLID_383_" class="st14" d="M504.4,445.1c-1.2,1.3-3.3,1.5-4.6,0.3c-1.3-1.2-1.5-3.3-0.3-4.6
						c1.2-1.3,3.3-1.5,4.6-0.3C505.4,441.7,505.6,443.8,504.4,445.1z"/>
					<path id="XMLID_381_" class="st6" d="M532.9,470.5c-1.2,1.3-3.3,1.5-4.6,0.3c-1.3-1.2-1.5-3.3-0.3-4.6c1.2-1.3,3.3-1.5,4.6-0.3
						S534.1,469.1,532.9,470.5z"/>
					<path id="XMLID_378_" class="st14" d="M547.1,483.1c-1.2,1.3-3.3,1.5-4.6,0.3c-1.3-1.2-1.5-3.3-0.3-4.6
						c1.2-1.3,3.3-1.5,4.6-0.3C548.2,479.7,548.3,481.8,547.1,483.1z"/>
				</g>
			</g>
			<circle id="XMLID_364_" class="st30" cx="563" cy="196" r="13"/>
			<circle id="XMLID_401_" class="st31" cx="184.2" cy="100" r="13"/>
			<g id="XMLID_410_" class="st5">
				<g id="XMLID_424_">
					<path id="XMLID_425_" class="st14" d="M272.5,230.8c-9.4,0-17-7.6-17-17c0-9.4,7.6-17,17-17s17,7.6,17,17
						C289.5,223.2,281.9,230.8,272.5,230.8z M272.5,204.8c-5,0-9,4-9,9s4,9,9,9s9-4,9-9S277.5,204.8,272.5,204.8z"/>
				</g>
				<g id="XMLID_420_">
					<path id="XMLID_421_" class="st15" d="M254,212.3c-9.4,0-17-7.6-17-17c0-9.4,7.6-17,17-17s17,7.6,17,17
						C271,204.7,263.4,212.3,254,212.3z M254,186.3c-5,0-9,4-9,9s4,9,9,9s9-4,9-9S259,186.3,254,186.3z"/>
				</g>
			</g>
			<g id="XMLID_429_" class="st5">
				<g id="XMLID_434_">
					<path id="XMLID_435_" class="st14" d="M709.8,434.8c-9.4,0-17-7.6-17-17c0-9.4,7.6-17,17-17c9.4,0,17,7.6,17,17
						C726.8,427.2,719.2,434.8,709.8,434.8z M709.8,408.8c-5,0-9,4-9,9c0,5,4,9,9,9c5,0,9-4,9-9
						C718.8,412.9,714.8,408.8,709.8,408.8z"/>
				</g>
				<g id="XMLID_430_">
					<path id="XMLID_431_" class="st15" d="M691.3,416.3c-9.4,0-17-7.6-17-17c0-9.4,7.6-17,17-17c9.4,0,17,7.6,17,17
						C708.3,408.7,700.7,416.3,691.3,416.3z M691.3,390.3c-5,0-9,4-9,9c0,5,4,9,9,9s9-4,9-9C700.3,394.4,696.3,390.3,691.3,390.3z"
						/>
				</g>
			</g>
			<g id="XMLID_438_" class="st5">
				<g id="XMLID_443_">
					<path id="XMLID_444_" class="st14" d="M483.4,94.4c-9.4,0-17-7.6-17-17c0-9.4,7.6-17,17-17c9.4,0,17,7.6,17,17
						C500.4,86.8,492.8,94.4,483.4,94.4z M483.4,68.4c-5,0-9,4-9,9c0,5,4,9,9,9s9-4,9-9C492.4,72.5,488.4,68.4,483.4,68.4z"/>
				</g>
				<g id="XMLID_439_">
					<path id="XMLID_440_" class="st15" d="M464.9,75.9c-9.4,0-17-7.6-17-17c0-9.4,7.6-17,17-17c9.4,0,17,7.6,17,17
						C481.9,68.3,474.3,75.9,464.9,75.9z M464.9,49.9c-5,0-9,4-9,9s4,9,9,9s9-4,9-9S469.9,49.9,464.9,49.9z"/>
				</g>
			</g>
			<circle id="XMLID_402_" class="st32" cx="672.3" cy="122" r="8.2"/>
			<g id="XMLID_453_" class="st5">
				<path id="XMLID_457_" class="st33" d="M471.7,304.7c0,2.6-2.1,4.7-4.7,4.7s-4.7-2.1-4.7-4.7c0-2.6,2.1-4.7,4.7-4.7
					S471.7,302.1,471.7,304.7z"/>
				<path id="XMLID_458_" class="st6" d="M474.8,307.8c0,2.6-2.1,4.7-4.7,4.7c-2.6,0-4.7-2.1-4.7-4.7s2.1-4.7,4.7-4.7
					C472.7,303.1,474.8,305.2,474.8,307.8z"/>
			</g>
			<g id="XMLID_460_" class="st5">
				<path id="XMLID_462_" class="st33" d="M143,268.7c0,2.6-2.1,4.7-4.7,4.7c-2.6,0-4.7-2.1-4.7-4.7c0-2.6,2.1-4.7,4.7-4.7
					C140.9,264,143,266.1,143,268.7z"/>
				<path id="XMLID_461_" class="st6" d="M146.1,271.8c0,2.6-2.1,4.7-4.7,4.7s-4.7-2.1-4.7-4.7s2.1-4.7,4.7-4.7
					S146.1,269.2,146.1,271.8z"/>
			</g>
			<g id="XMLID_463_" class="st5">
				<path id="XMLID_465_" class="st33" d="M272.3,38.6c0,2.6-2.1,4.7-4.7,4.7c-2.6,0-4.7-2.1-4.7-4.7c0-2.6,2.1-4.7,4.7-4.7
					C270.2,33.9,272.3,36,272.3,38.6z"/>
				<path id="XMLID_464_" class="st6" d="M275.3,41.7c0,2.6-2.1,4.7-4.7,4.7s-4.7-2.1-4.7-4.7c0-2.6,2.1-4.7,4.7-4.7
					S275.3,39.1,275.3,41.7z"/>
			</g>
			<g id="XMLID_451_" class="st5">
				<path id="XMLID_450_" class="st6" d="M362.4,38.7c5.4,5.4,5.4,14.1,0,19.5l-19.7-19.5C348.2,33.3,357,33.3,362.4,38.7z"/>
				<path id="XMLID_452_" class="st13" d="M326.8,47.8c-5.4-5.4-5.4-14.1,0-19.5l19.7,19.5C341.1,53.2,332.2,53.2,326.8,47.8z"/>
			</g>
			<g id="XMLID_454_" class="st5">
				<path id="XMLID_456_" class="st6" d="M673.7,293.3c5.4,5.4,5.4,14.1,0,19.5l-19.7-19.5C659.5,288,668.3,288,673.7,293.3z"/>
				<path id="XMLID_455_" class="st13" d="M638.1,302.5c-5.4-5.4-5.4-14.1,0-19.5l19.7,19.5C652.4,307.9,643.6,307.9,638.1,302.5z"
					/>
			</g>
		</g>
	</g>
</g>
</svg>
